<svg width="30" height="30" viewBox="0 0 30 30" fill="none" xmlns="http://www.w3.org/2000/svg">
<path d="M15.0917 10.0533C12.3679 10.0533 10.145 12.2762 10.145 15C10.145 17.7238 12.3679 19.9467 15.0917 19.9467C17.8156 19.9467 20.0384 17.7238 20.0384 15C20.0384 12.2762 17.8156 10.0533 15.0917 10.0533ZM29.9281 15C29.9281 12.9515 29.9466 10.9217 29.8316 8.87693C29.7165 6.50193 29.1747 4.39412 27.438 2.6574C25.6976 0.916973 23.5935 0.378887 21.2185 0.263848C19.17 0.148809 17.1402 0.167364 15.0954 0.167364C13.047 0.167364 11.0171 0.148809 8.97239 0.263848C6.59739 0.378887 4.48958 0.920684 2.75286 2.6574C1.01243 4.39783 0.474346 6.50193 0.359307 8.87693C0.244268 10.9254 0.262823 12.9553 0.262823 15C0.262823 17.0447 0.244268 19.0783 0.359307 21.123C0.474346 23.498 1.01614 25.6058 2.75286 27.3426C4.49329 29.083 6.59739 29.6211 8.97239 29.7361C11.0208 29.8512 13.0507 29.8326 15.0954 29.8326C17.1439 29.8326 19.1738 29.8512 21.2185 29.7361C23.5935 29.6211 25.7013 29.0793 27.438 27.3426C29.1784 25.6021 29.7165 23.498 29.8316 21.123C29.9503 19.0783 29.9281 17.0484 29.9281 15ZM15.0917 22.6111C10.8798 22.6111 7.4806 19.2119 7.4806 15C7.4806 10.7881 10.8798 7.38885 15.0917 7.38885C19.3036 7.38885 22.7029 10.7881 22.7029 15C22.7029 19.2119 19.3036 22.6111 15.0917 22.6111ZM23.0146 8.85467C22.0312 8.85467 21.237 8.06053 21.237 7.07713C21.237 6.09373 22.0312 5.29959 23.0146 5.29959C23.998 5.29959 24.7921 6.09373 24.7921 7.07713C24.7924 7.31064 24.7466 7.54192 24.6574 7.75771C24.5682 7.9735 24.4373 8.16957 24.2721 8.33469C24.107 8.49981 23.911 8.63073 23.6952 8.71996C23.4794 8.80918 23.2481 8.85496 23.0146 8.85467Z" fill="white"/>
</svg>
