<svg width="32" height="32" viewBox="0 0 32 32" fill="none" xmlns="http://www.w3.org/2000/svg">
<path d="M15.8418 6.63438C10.7301 6.63438 6.57461 10.7898 6.56758 15.9016C6.56758 17.6523 7.05977 19.3609 7.98789 20.8305L8.20586 21.182L7.2707 24.5992L10.7793 23.6781L11.1168 23.882C12.5371 24.7258 14.1684 25.1758 15.8348 25.1758H15.8418C20.9465 25.1758 25.2145 21.0203 25.2145 15.9086C25.2145 13.4336 24.1457 11.1062 22.3949 9.35547C20.6371 7.59766 18.3168 6.63438 15.8418 6.63438ZM21.291 19.8813C21.059 20.5352 19.948 21.1258 19.4137 21.2031C18.5277 21.3367 17.8387 21.2664 16.0738 20.507C13.2824 19.2977 11.4543 16.4852 11.3137 16.3023C11.173 16.1195 10.1746 14.7906 10.1746 13.4195C10.1746 12.0484 10.8918 11.3734 11.152 11.0922C11.4051 10.8109 11.7074 10.7406 11.8973 10.7406C12.0801 10.7406 12.2699 10.7406 12.4316 10.7477C12.6004 10.7547 12.8324 10.6844 13.0574 11.2258C13.2895 11.7812 13.8449 13.1523 13.9152 13.293C13.9855 13.4336 14.0348 13.5953 13.9363 13.7781C13.402 14.8469 12.8324 14.8047 13.1207 15.2969C14.1965 17.1461 15.2723 17.7859 16.9105 18.6086C17.1918 18.7492 17.3535 18.7281 17.5152 18.5383C17.677 18.3555 18.2113 17.7227 18.3941 17.4484C18.577 17.1672 18.7668 17.2164 19.0199 17.3078C19.273 17.3992 20.6441 18.0742 20.9254 18.2148C21.2066 18.3555 21.3895 18.4258 21.4598 18.5383C21.523 18.6719 21.523 19.2344 21.291 19.8813ZM28.2168 0.25H3.4668C1.60352 0.25 0.0917969 1.76172 0.0917969 3.625V28.375C0.0917969 30.2383 1.60352 31.75 3.4668 31.75H28.2168C30.0801 31.75 31.5918 30.2383 31.5918 28.375V3.625C31.5918 1.76172 30.0801 0.25 28.2168 0.25ZM15.8348 27.0531C13.9645 27.0531 12.1293 26.582 10.5051 25.6961L4.5918 27.25L6.17383 21.4703C5.19648 19.7828 4.6832 17.8633 4.6832 15.8945C4.69023 9.74922 9.68945 4.75 15.8348 4.75C18.816 4.75 21.6145 5.91016 23.7238 8.01953C25.8262 10.1289 27.0918 12.9273 27.0918 15.9086C27.0918 22.0539 21.9801 27.0531 15.8348 27.0531Z" fill="white"/>
</svg>
