<svg width="51" height="52" viewBox="0 0 51 52" fill="none" xmlns="http://www.w3.org/2000/svg">
<path d="M37.8165 29.6227C37.7177 29.5753 34.0218 27.7553 33.365 27.5189C33.0969 27.4226 32.8096 27.3286 32.5042 27.3286C32.0051 27.3286 31.5858 27.5773 31.2593 28.0659C30.8901 28.6147 29.7724 29.9211 29.4271 30.3114C29.382 30.3629 29.3204 30.4244 29.2836 30.4244C29.2505 30.4244 28.6785 30.1889 28.5053 30.1137C24.5406 28.3915 21.5312 24.2499 21.1185 23.5515C21.0596 23.4511 21.0571 23.4055 21.0566 23.4055C21.0711 23.3524 21.2045 23.2187 21.2733 23.1497C21.4746 22.9506 21.6927 22.688 21.9037 22.4341C22.0036 22.3137 22.1037 22.1932 22.2019 22.0797C22.5081 21.7235 22.6444 21.4469 22.8024 21.1266L22.8852 20.9602C23.271 20.1937 22.9415 19.5468 22.835 19.3379C22.7476 19.1631 21.187 15.3967 21.0211 15.001C20.6221 14.0461 20.0949 13.6016 19.3622 13.6016C19.2943 13.6016 19.3622 13.6016 19.0772 13.6136C18.73 13.6282 16.8396 13.8771 16.0037 14.404C15.1173 14.9628 13.6178 16.7441 13.6178 19.8768C13.6178 22.6963 15.407 25.3584 16.1752 26.3708C16.1943 26.3963 16.2294 26.4482 16.2803 26.5226C19.2222 30.819 22.8896 34.003 26.6075 35.4882C30.1867 36.9179 31.8816 37.0832 32.8452 37.0832C32.8454 37.0832 32.8454 37.0832 32.8454 37.0832C33.2503 37.0832 33.5744 37.0514 33.8603 37.0233L34.0417 37.006C35.2782 36.8964 37.9954 35.4884 38.6135 33.7708C39.1004 32.4179 39.2288 30.9398 38.9048 30.4034C38.6829 30.0386 38.3006 29.8551 37.8165 29.6227Z" fill="black"/>
<path d="M26.1014 0.491211C12.3711 0.491211 1.20061 11.5777 1.20061 25.2049C1.20061 29.6124 2.38014 33.9268 4.6146 37.7027L0.337775 50.3186C0.258108 50.5538 0.317364 50.8138 0.491347 50.9909C0.616938 51.1192 0.7873 51.1883 0.961283 51.1883C1.02795 51.1883 1.0951 51.1783 1.16061 51.1574L14.3155 46.9771C17.9153 48.9005 21.984 49.9158 26.1016 49.9158C39.8307 49.9159 51 38.8306 51 25.2049C51 11.5777 39.8307 0.491211 26.1014 0.491211ZM26.1014 44.7679C22.2269 44.7679 18.4742 43.6491 15.2483 41.5323C15.1398 41.461 15.0139 41.4245 14.8872 41.4245C14.8202 41.4245 14.753 41.4347 14.6877 41.4554L8.09789 43.5502L10.2252 37.2741C10.294 37.071 10.2596 36.847 10.1328 36.6738C7.67634 33.3172 6.37781 29.3515 6.37781 25.2049C6.37781 14.4165 15.2258 5.63927 26.1013 5.63927C36.9755 5.63927 45.8225 14.4165 45.8225 25.2049C45.8226 35.992 36.9758 44.7679 26.1014 44.7679Z" fill="black"/>
</svg>
