<svg width="90" height="90" viewBox="0 0 90 90" fill="none" xmlns="http://www.w3.org/2000/svg">
<path d="M81.5344 54.3797L85.7813 73.125L78.3562 66.2625L81.5344 54.3797Z" fill="#FB3006"/>
<path d="M83.6719 21.0938L80.6344 23.3016L81.7875 26.8734L78.75 24.6656L75.7125 26.8734L76.8656 23.3016L73.8281 21.0938H77.5828L78.75 17.5219L79.9172 21.0938H83.6719Z" fill="white"/>
<path d="M78.2437 39.8109L81.5344 54.3797L78.3563 66.2625L72.5766 60.9188L78.2437 39.8109Z" fill="white"/>
<path d="M76.3453 31.4859L78.2437 39.8109L72.5766 60.9188L66.8109 55.575L72.7031 33.5953L76.3453 31.4859Z" fill="#FB3006"/>
<path d="M72.7031 33.5953L66.8109 55.575L61.0312 50.2453L64.1672 38.5172L72.7031 33.5953Z" fill="white"/>
<path d="M64.1672 38.5172L61.0312 50.2453L54.4359 44.1422L64.1672 38.5172Z" fill="#FB3006"/>
<path d="M53.6625 50.625L48.3047 54.5063L50.3437 60.8063L45 56.911L39.6562 60.8063L41.6953 54.5063L36.3375 50.625H42.9609L45 44.3391L47.0391 50.625H53.6625Z" fill="white"/>
<path d="M49.9219 19.6875L46.8844 21.8953L48.0375 25.4672L45 23.2594L41.9625 25.4672L43.1156 21.8953L40.0781 19.6875H43.8328L45 16.1156L46.1672 19.6875H49.9219Z" fill="white"/>
<path d="M35.5641 44.1422L28.9687 50.2453L25.8328 38.5172L35.5641 44.1422Z" fill="#FB3006"/>
<path d="M25.8328 38.5172L28.9687 50.2453L23.1891 55.575L17.2969 33.5953L25.8328 38.5172Z" fill="white"/>
<path d="M17.2969 33.5953L23.1891 55.575L17.4234 60.9188L11.7562 39.8109L13.6547 31.4859L17.2969 33.5953Z" fill="#FB3006"/>
<path d="M11.7562 39.8109L17.4234 60.9188L11.6437 66.2625L8.46562 54.3797L11.7562 39.8109Z" fill="white"/>
<path d="M16.1719 21.0938L13.1344 23.3016L14.2875 26.8734L11.25 24.6656L8.2125 26.8734L9.36562 23.3016L6.32812 21.0938H10.0828L11.25 17.5219L12.4172 21.0938H16.1719Z" fill="white"/>
<path d="M8.46562 54.3797L11.6437 66.2625L4.21875 73.125L8.46562 54.3797Z" fill="#FB3006"/>
<path d="M36.9675 43.9791C36.943 43.76 36.8674 43.5498 36.7467 43.3654C36.626 43.181 36.4637 43.0275 36.2728 42.9173L14.3522 30.2611C14.1612 30.1507 13.947 30.0868 13.7268 30.0745C13.5066 30.0622 13.2866 30.1019 13.0846 30.1903C12.8826 30.2787 12.7042 30.4134 12.5638 30.5835C12.4234 30.7536 12.325 30.9544 12.2766 31.1695L2.89406 72.6061L2.29781 73.6397C2.02049 74.1198 1.84052 74.6498 1.76818 75.1994C1.69584 75.7491 1.73255 76.3076 1.87621 76.8431C2.01987 77.3786 2.26767 77.8805 2.60544 78.3201C2.9432 78.7598 3.36431 79.1285 3.84469 79.4053C4.1669 79.5918 4.40203 79.8984 4.49851 80.258C4.59499 80.6175 4.54495 81.0007 4.35937 81.3234L2.95312 83.7591C2.85933 83.9191 2.79811 84.096 2.77298 84.2798C2.74786 84.4635 2.75933 84.6504 2.80673 84.8297C2.85414 85.009 2.93654 85.1772 3.04919 85.3245C3.16184 85.4718 3.30252 85.5954 3.46313 85.6881C3.62374 85.7808 3.8011 85.8409 3.98501 85.8648C4.16892 85.8887 4.35574 85.876 4.53472 85.8274C4.7137 85.7788 4.8813 85.6953 5.02787 85.5817C5.17444 85.468 5.29709 85.3265 5.38875 85.1653L6.795 82.7311C7.07231 82.251 7.25229 81.721 7.32463 81.1713C7.39697 80.6217 7.36026 80.0631 7.2166 79.5277C7.07294 78.9922 6.82514 78.4903 6.48737 78.0506C6.14961 77.611 5.7285 77.2423 5.24812 76.9655C4.92515 76.779 4.68947 76.4718 4.59295 76.1116C4.49643 75.7513 4.54696 75.3675 4.73344 75.0445L5.33109 74.0109L36.5245 45.1687C36.6865 45.0191 36.8109 44.8334 36.8879 44.6267C36.9648 44.4201 36.9921 44.1982 36.9675 43.9791ZM6.5925 69.0103L8.57812 60.2466L10.0673 65.8027L6.5925 69.0103ZM12.4003 63.6398L9.91125 54.3558L11.88 45.6708L15.8414 60.4688L12.4003 63.6398ZM18.1758 58.2961L13.2187 39.78L14.6067 33.6516L16.1016 34.515L21.6169 55.125L18.1758 58.2961ZM23.9512 52.9523L19.5469 36.5034L24.6277 39.4369L27.3923 49.7812L23.9512 52.9523ZM29.7267 47.6086L28.0659 41.4098L33.2142 44.3841L29.7267 47.6086Z" fill="black"/>
<path d="M26.0311 35.3798C26.3563 35.5621 26.7406 35.6078 27.0995 35.5068C27.4584 35.4058 27.7626 35.1664 27.945 34.8413L42.7106 8.51344C42.8058 8.35215 42.8679 8.17346 42.8931 7.98786C42.9183 7.80226 42.9062 7.61349 42.8575 7.43264C42.8088 7.25178 42.7244 7.08249 42.6093 6.93468C42.4943 6.78688 42.3509 6.66355 42.1875 6.57194C42.0241 6.48032 41.8441 6.42227 41.658 6.40118C41.4719 6.3801 41.2834 6.3964 41.1037 6.44914C40.924 6.50188 40.7566 6.59 40.6114 6.70831C40.4662 6.82663 40.3461 6.97276 40.2581 7.13813L25.4925 33.4688C25.3111 33.7937 25.2659 34.1774 25.3669 34.5356C25.4678 34.8938 25.7067 35.1974 26.0311 35.3798Z" fill="black"/>
<path d="M38.6578 27.9281C37.4163 28.6602 36.2847 29.5645 35.2969 30.6141C34.9491 30.9861 34.6205 31.3757 34.3125 31.7813C34.2998 31.7953 34.2717 31.8094 34.2562 31.8375C33.0097 33.4617 32.0625 35.295 31.4592 37.2516C31.349 37.6066 31.3839 37.9909 31.5562 38.3203C31.7331 38.6494 32.0312 38.8966 32.3873 39.0094C32.5238 39.0533 32.6659 39.077 32.8092 39.0797C33.1117 39.0806 33.4064 38.9839 33.6496 38.8041C33.8928 38.6242 34.0715 38.3707 34.1592 38.0813C34.6563 36.4428 35.4473 34.9084 36.4936 33.5531C36.7601 33.1996 37.0465 32.8616 37.3514 32.5406C38.1591 31.6816 39.0819 30.9386 40.0936 30.3328C40.253 30.24 40.3923 30.1163 40.5034 29.969C40.6145 29.8217 40.6951 29.6538 40.7405 29.475C40.8249 29.1118 40.7691 28.7301 40.5844 28.4063C40.3866 28.0938 40.0759 27.8697 39.717 27.7806C39.3581 27.6916 38.9787 27.7444 38.6578 27.9281Z" fill="black"/>
<path d="M19.5975 29.6831C19.4598 29.8159 19.3505 29.9753 19.2765 30.1517C19.2025 30.3282 19.1653 30.5178 19.1671 30.7091C19.169 30.9004 19.2098 31.0893 19.2871 31.2643C19.3645 31.4392 19.4767 31.5966 19.617 31.7267C19.7572 31.8568 19.9226 31.9569 20.1028 32.0209C20.2831 32.0849 20.4746 32.1115 20.6654 32.0989C20.8563 32.0864 21.0427 32.035 21.213 31.948C21.3834 31.861 21.5342 31.7401 21.6562 31.5928C23.4223 29.702 24.7322 27.432 25.4855 24.9567C27.1181 19.5694 25.3027 14.722 24.2887 12.0192C23.6613 10.3435 22.866 8.73544 21.915 7.21969C21.8275 7.0436 21.7041 6.8878 21.5527 6.76236C21.4014 6.63691 21.2253 6.54461 21.0361 6.4914C20.8468 6.4382 20.6485 6.42527 20.4539 6.45347C20.2593 6.48166 20.0728 6.55034 19.9064 6.65507C19.74 6.75981 19.5974 6.89828 19.4879 7.06153C19.3783 7.22478 19.3042 7.4092 19.2703 7.60287C19.2364 7.79654 19.2435 7.99516 19.2912 8.18591C19.3388 8.37667 19.4259 8.55531 19.5469 8.71031C20.414 10.0981 21.1377 11.5706 21.7069 13.1048C22.6252 15.5573 24.1636 19.6636 22.8066 24.1411C22.1736 26.2091 21.0759 28.1048 19.5975 29.6831Z" fill="black"/>
<path d="M86.1581 79.4025C86.6385 79.1257 87.0596 78.757 87.3974 78.3173C87.7351 77.8777 87.9829 77.3758 88.1266 76.8403C88.2703 76.3048 88.307 75.7463 88.2346 75.1966C88.1623 74.647 87.9823 74.1169 87.705 73.6369L87.1088 72.6047L77.7234 31.1695C77.675 30.9544 77.5766 30.7536 77.4362 30.5835C77.2959 30.4134 77.1174 30.2787 76.9154 30.1903C76.7134 30.1019 76.4934 30.0622 76.2732 30.0745C76.053 30.0868 75.8388 30.1507 75.6478 30.2611L53.7272 42.9173C53.5364 43.0275 53.3742 43.181 53.2536 43.3653C53.133 43.5497 53.0574 43.7598 53.0329 43.9788C53.0084 44.1977 53.0357 44.4193 53.1126 44.6258C53.1895 44.8322 53.3138 45.0177 53.4755 45.1673L84.6689 74.0123L85.2666 75.0473C85.4526 75.3702 85.5029 75.7537 85.4064 76.1136C85.3099 76.4735 85.0745 76.7804 84.7519 76.9669C84.2715 77.2437 83.8504 77.6124 83.5126 78.0521C83.1749 78.4917 82.9271 78.9936 82.7834 79.5291C82.6397 80.0645 82.603 80.6231 82.6754 81.1727C82.7477 81.7224 82.9277 82.2524 83.205 82.7325L84.6113 85.1681C84.7029 85.3293 84.8256 85.4708 84.9721 85.5845C85.1187 85.6981 85.2863 85.7816 85.4653 85.8302C85.6443 85.8788 85.8311 85.8915 86.015 85.8676C86.1989 85.8437 86.3763 85.7836 86.5369 85.6909C86.6975 85.5982 86.8382 85.4746 86.9508 85.3273C87.0635 85.18 87.1459 85.0118 87.1933 84.8325C87.2407 84.6532 87.2521 84.4663 87.227 84.2826C87.2019 84.0988 87.1407 83.9219 87.0469 83.7619L85.6406 81.3263C85.4542 81.0033 85.4036 80.6194 85.5001 80.2592C85.5967 79.8989 85.8323 79.5918 86.1553 79.4053L86.1581 79.4025ZM61.9355 41.4253L60.2747 47.6241L56.7872 44.3995L61.9355 41.4253ZM65.3794 39.4369L70.4602 36.5034L66.0502 52.965L62.6077 49.7812L65.3794 39.4369ZM73.9055 34.515L75.4003 33.6516L76.7883 39.78L71.8256 58.3045L68.3831 55.125L73.9055 34.515ZM78.1242 45.6708L80.093 54.3558L77.6053 63.6455L74.1586 60.4688L78.1242 45.6708ZM79.9355 65.8027L81.4219 60.2466L83.4075 69.0159L79.9355 65.8027Z" fill="black"/>
<path d="M62.055 34.8412C62.2418 35.1577 62.5452 35.3885 62.9001 35.4841C63.255 35.5797 63.6332 35.5326 63.9538 35.3528C64.2743 35.1731 64.5118 34.8749 64.6153 34.5223C64.7188 34.1696 64.6801 33.7904 64.5075 33.4659L49.7419 7.13813C49.6539 6.97276 49.5338 6.82663 49.3886 6.70831C49.2434 6.59 49.076 6.50188 48.8963 6.44914C48.7166 6.3964 48.5281 6.3801 48.342 6.40118C48.1559 6.42227 47.9759 6.48032 47.8125 6.57194C47.6491 6.66355 47.5057 6.78688 47.3906 6.93468C47.2756 7.08249 47.1912 7.25178 47.1425 7.43264C47.0938 7.61349 47.0817 7.80226 47.1069 7.98786C47.1321 8.17346 47.1941 8.35215 47.2894 8.51344L62.055 34.8412Z" fill="black"/>
<path d="M54.7031 30.6141C54.3389 30.2344 53.9873 29.8969 53.6358 29.5875C52.9262 28.9628 52.1587 28.4071 51.3436 27.9281C51.0226 27.7448 50.6433 27.6921 50.2845 27.7812C49.9257 27.8702 49.615 28.0941 49.417 28.4063C49.2266 28.7293 49.1714 29.1144 49.2636 29.4779C49.3558 29.8414 49.5878 30.1537 49.9092 30.3469C50.5723 30.7386 51.1979 31.1905 51.7781 31.6969C52.0594 31.95 52.3547 32.2313 52.65 32.5406C54.1229 34.12 55.2152 36.0151 55.8436 38.0813C55.9313 38.3707 56.11 38.6242 56.3532 38.8041C56.5964 38.9839 56.8911 39.0806 57.1936 39.0797C57.3369 39.0769 57.479 39.0532 57.6155 39.0094C57.9683 38.8991 58.2636 38.6543 58.4373 38.3279C58.611 38.0016 58.6492 37.6199 58.5436 37.2656V37.2516C57.7799 34.778 56.4671 32.5089 54.7031 30.6141Z" fill="black"/>
<path d="M53.6555 49.2188H48.0656L46.3373 43.9017C46.2449 43.6204 46.0659 43.3754 45.826 43.2017C45.5862 43.0281 45.2976 42.9346 45.0014 42.9346C44.7053 42.9346 44.4167 43.0281 44.1768 43.2017C43.9369 43.3754 43.7579 43.6204 43.6655 43.9017L41.9344 49.2188H36.3445C36.0475 49.2187 35.7581 49.3127 35.5179 49.4872C35.2776 49.6617 35.0987 49.9079 35.0069 50.1903C34.9151 50.4727 34.915 50.777 35.0068 51.0595C35.0986 51.3419 35.2774 51.5881 35.5176 51.7627L40.0402 55.0491L38.3119 60.3661C38.2201 60.6486 38.22 60.9528 38.3118 61.2353C38.4036 61.5178 38.5824 61.764 38.8227 61.9385C39.063 62.1131 39.3524 62.2071 39.6495 62.207C39.9465 62.207 40.2358 62.1129 40.4761 61.9383L45 58.6519L49.5239 61.9383C49.7642 62.1129 50.0535 62.207 50.3505 62.207C50.6476 62.2071 50.937 62.1131 51.1773 61.9385C51.4176 61.764 51.5964 61.5178 51.6882 61.2353C51.78 60.9528 51.7799 60.6486 51.6881 60.3661L49.9598 55.0491L54.4823 51.7627C54.7226 51.5881 54.9014 51.3419 54.9932 51.0595C55.085 50.777 55.0849 50.4727 54.9931 50.1903C54.9013 49.9079 54.7224 49.6617 54.4821 49.4872C54.2418 49.3127 53.9525 49.2187 53.6555 49.2188ZM46.9688 54.9464L47.6719 57.1191L45.8241 55.7761C45.5837 55.6014 45.2943 55.5073 44.9972 55.5073C44.7001 55.5073 44.4106 55.6014 44.1703 55.7761L42.3225 57.1191L43.0256 54.9464C43.1173 54.6639 43.1171 54.3596 43.0252 54.0771C42.9332 53.7947 42.7542 53.5486 42.5137 53.3742L40.6716 52.0312H42.9567C43.2537 52.0312 43.543 51.9372 43.7832 51.7626C44.0235 51.5881 44.2023 51.342 44.2941 51.0595L44.9972 48.8869L45.7003 51.0595C45.7921 51.342 45.9709 51.5881 46.2111 51.7626C46.4514 51.9372 46.7407 52.0312 47.0377 52.0312H49.3228L47.475 53.3742C47.2356 53.5494 47.0577 53.7958 46.9667 54.0782C46.8758 54.3605 46.8765 54.6644 46.9688 54.9464Z" fill="black"/>
<path d="M40.0781 18.2813C39.7811 18.2812 39.4917 18.3752 39.2514 18.5497C39.0112 18.7242 38.8323 18.9704 38.7405 19.2528C38.6487 19.5352 38.6486 19.8395 38.7404 20.122C38.8322 20.4044 39.011 20.6506 39.2512 20.8252L41.4661 22.4353L40.6223 25.0383C40.5305 25.3208 40.5305 25.625 40.6223 25.9075C40.7141 26.19 40.8929 26.4362 41.1332 26.6107C41.3735 26.7853 41.6629 26.8793 41.9599 26.8792C42.2569 26.8792 42.5463 26.7851 42.7866 26.6105L45 25.0017L47.2148 26.6105C47.4551 26.7851 47.7444 26.8792 48.0415 26.8792C48.3385 26.8793 48.6279 26.7853 48.8682 26.6107C49.1085 26.4362 49.2873 26.19 49.3791 25.9075C49.4709 25.625 49.4709 25.3208 49.379 25.0383L48.5353 22.4353L50.7501 20.8252C50.9905 20.6505 51.1694 20.4042 51.2611 20.1216C51.3528 19.839 51.3527 19.5346 51.2607 19.2521C51.1687 18.9696 50.9896 18.7235 50.7491 18.5491C50.5086 18.3747 50.219 18.2809 49.9219 18.2813H47.1839L46.3401 15.6769C46.2477 15.3955 46.0687 15.1506 45.8288 14.9769C45.589 14.8032 45.3004 14.7097 45.0042 14.7097C44.7081 14.7097 44.4195 14.8032 44.1796 14.9769C43.9397 15.1506 43.7607 15.3955 43.6683 15.6769L42.8161 18.2813H40.0781ZM45 20.4792C45.1828 20.7503 45.4543 20.9492 45.7678 21.0417C45.5681 21.2995 45.4642 21.6186 45.4739 21.9445C45.1676 21.8339 44.8323 21.8339 44.5261 21.9445C44.5357 21.6186 44.4318 21.2995 44.2322 21.0417C44.5457 20.9492 44.8172 20.7503 45 20.4792Z" fill="black"/>
<path d="M7.71609 23.8416L6.87234 26.4445C6.78053 26.727 6.78051 27.0313 6.87228 27.3138C6.96406 27.5962 7.14292 27.8424 7.38322 28.017C7.62352 28.1915 7.91292 28.2855 8.20993 28.2855C8.50694 28.2854 8.79631 28.1914 9.03656 28.0167L11.25 26.408L13.4648 28.0167C13.7051 28.1914 13.9945 28.2854 14.2915 28.2855C14.5885 28.2855 14.8779 28.1915 15.1182 28.017C15.3585 27.8424 15.5373 27.5962 15.6291 27.3138C15.7209 27.0313 15.7209 26.727 15.6291 26.4445L14.7853 23.8416L17.0002 22.2314C17.2405 22.0568 17.4194 21.8105 17.5111 21.5279C17.6028 21.2453 17.6027 20.9409 17.5107 20.6584C17.4187 20.3759 17.2396 20.1298 16.9991 19.9553C16.7586 19.7809 16.469 19.6872 16.1719 19.6875H13.4339L12.5902 17.0831C12.4977 16.8018 12.3187 16.5568 12.0789 16.3831C11.839 16.2095 11.5504 16.116 11.2542 16.116C10.9581 16.116 10.6695 16.2095 10.4296 16.3831C10.1897 16.5568 10.0108 16.8018 9.91828 17.0831L9.06609 19.6875H6.32812C6.03113 19.6874 5.74175 19.7814 5.50145 19.956C5.26116 20.1305 5.08229 20.3766 4.99048 20.6591C4.89867 20.9415 4.89865 21.2458 4.9904 21.5282C5.08216 21.8107 5.26098 22.0568 5.50125 22.2314L7.71609 23.8416ZM11.25 21.8855C11.4328 22.1565 11.7043 22.3554 12.0178 22.448C11.8181 22.7057 11.7142 23.0249 11.7239 23.3508C11.4176 23.2402 11.0823 23.2402 10.7761 23.3508C10.7857 23.0249 10.6819 22.7057 10.4822 22.448C10.7957 22.3554 11.0672 22.1565 11.25 21.8855Z" fill="black"/>
<path d="M75.2161 23.8416L74.3723 26.4445C74.2805 26.727 74.2805 27.0313 74.3723 27.3138C74.4641 27.5962 74.6429 27.8424 74.8832 28.017C75.1235 28.1915 75.4129 28.2855 75.7099 28.2855C76.0069 28.2854 76.2963 28.1914 76.5366 28.0167L78.75 26.408L80.9648 28.0167C81.2051 28.1914 81.4945 28.2854 81.7915 28.2855C82.0885 28.2855 82.3779 28.1915 82.6182 28.017C82.8585 27.8424 83.0373 27.5962 83.1291 27.3138C83.2209 27.0313 83.2209 26.727 83.1291 26.4445L82.2853 23.8416L84.5002 22.2314C84.7405 22.0568 84.9194 21.8105 85.0111 21.5279C85.1028 21.2453 85.1027 20.9409 85.0107 20.6584C84.9187 20.3759 84.7396 20.1298 84.4991 19.9553C84.2586 19.7809 83.969 19.6872 83.6719 19.6875H80.9339L80.0902 17.0831C79.9977 16.8018 79.8187 16.5568 79.5789 16.3831C79.339 16.2095 79.0504 16.116 78.7542 16.116C78.4581 16.116 78.1695 16.2095 77.9296 16.3831C77.6897 16.5568 77.5108 16.8018 77.4183 17.0831L76.5661 19.6875H73.8281C73.5311 19.6874 73.2417 19.7814 73.0014 19.956C72.7612 20.1305 72.5823 20.3766 72.4905 20.6591C72.3987 20.9415 72.3986 21.2458 72.4904 21.5282C72.5822 21.8107 72.761 22.0568 73.0012 22.2314L75.2161 23.8416ZM78.75 21.8855C78.9328 22.1565 79.2043 22.3554 79.5178 22.448C79.3181 22.7057 79.2143 23.0249 79.2239 23.3508C78.9177 23.2402 78.5823 23.2402 78.2761 23.3508C78.2857 23.0249 78.1819 22.7057 77.9822 22.448C78.2957 22.3554 78.5672 22.1565 78.75 21.8855Z" fill="black"/>
<path d="M68.3437 31.5928C68.5985 31.8604 68.9483 32.0171 69.3176 32.0288C69.6869 32.0405 70.046 31.9065 70.3173 31.6556C70.5885 31.4046 70.7501 31.0571 70.7671 30.688C70.7841 30.3189 70.6551 29.9579 70.4081 29.6831C68.9322 28.1041 67.8369 26.2084 67.2061 24.1411C65.8491 19.6636 67.3875 15.563 68.3451 13.0022C68.9059 11.5039 69.6164 10.066 70.4658 8.71031C70.5708 8.55399 70.6433 8.37817 70.679 8.19328C70.7148 8.00839 70.713 7.81821 70.6739 7.63401C70.6348 7.44981 70.559 7.27535 70.4512 7.12097C70.3434 6.9666 70.2056 6.83545 70.0461 6.73532C69.8867 6.63518 69.7087 6.5681 69.5228 6.53804C69.3369 6.50799 69.1469 6.51558 68.964 6.56036C68.781 6.60514 68.609 6.68621 68.458 6.79874C68.307 6.91127 68.1802 7.05298 68.085 7.21547C67.116 8.7637 66.3074 10.4067 65.6719 12.1191C64.6973 14.722 62.8819 19.5722 64.5145 24.9567C65.2678 27.432 66.5777 29.702 68.3437 31.5928Z" fill="black"/>
</svg>
