<svg width="90" height="90" viewBox="0 0 90 90" fill="none" xmlns="http://www.w3.org/2000/svg">
<path d="M40.6406 30.9375C42.2846 29.1885 44.0929 27.6015 46.0406 26.1984C49.2896 23.702 53.0811 22.0062 57.1078 21.2484C57.7547 21.1497 58.408 21.098 59.0624 21.0938C69.7781 21.0937 87.1874 35.5781 87.1874 53.4375C87.1874 71.2969 74.6015 85.7812 59.0624 85.7812C48.3468 85.7812 39.0374 78.8906 34.2984 68.7516C32.0617 63.9574 30.914 58.7277 30.9374 53.4375C30.943 50.576 31.3791 47.7317 32.2312 45C33.9144 39.7276 36.7923 34.9152 40.6406 30.9375ZM72.6749 50.175C73.7156 49.1344 72.8718 46.6031 70.7906 44.5219C68.7093 42.4406 66.1781 41.5969 65.1374 42.6375C64.0968 43.6781 64.9406 46.2094 67.0218 48.2906C69.1031 50.3719 71.6343 51.2156 72.6749 50.175ZM51.1031 48.2906C53.1843 46.2094 54.0281 43.6781 52.9874 42.6375C51.9468 41.5969 49.4156 42.4406 47.3343 44.5219C45.2531 46.6031 44.4093 49.1344 45.4499 50.175C46.4906 51.2156 49.0218 50.3719 51.1031 48.2906Z" fill="#FB3006"/>
<path d="M72.6745 50.1753C73.7152 49.1346 72.8716 46.6037 70.7902 44.5223C68.7088 42.441 66.1779 41.5973 65.1372 42.638C64.0965 43.6787 64.9402 46.2096 67.0216 48.291C69.1029 50.3724 71.6339 51.216 72.6745 50.1753Z" fill="white"/>
<path d="M51.1034 48.2903C53.1848 46.2089 54.0284 43.678 52.9877 42.6373C51.9471 41.5966 49.4161 42.4403 47.3348 44.5216C45.2534 46.603 44.4097 49.1339 45.4504 50.1746C46.4911 51.2153 49.022 50.3717 51.1034 48.2903Z" fill="white"/>
<path d="M32.2313 45C31.3792 47.7317 30.9431 50.576 30.9375 53.4375C30.914 58.7277 32.0618 63.9574 34.2984 68.7516C33.6515 68.8503 32.9982 68.902 32.3438 68.9062C21.6281 68.9062 4.21875 54.4219 4.21875 36.5625C4.21875 18.7031 16.8047 4.21875 32.3438 4.21875C43.0594 4.21875 52.3688 11.1094 57.1078 21.2484C53.0811 22.0062 49.2896 23.702 46.0406 26.1984L46.0125 26.1562C46.7578 24.7078 46.8703 23.3859 46.1672 22.6828C45.0703 21.5859 42.3984 22.4719 40.2047 24.6797C38.0109 26.8875 37.1109 29.5453 38.2078 30.6422C38.5381 30.9004 38.9323 31.0642 39.3483 31.1162C39.7643 31.1682 40.1866 31.1064 40.5703 30.9375H40.6406C36.7923 34.9151 33.9145 39.7276 32.2313 45ZM26.2688 30.4875C27.3094 29.4469 26.4656 26.9156 24.3844 24.8344C22.3031 22.7531 19.7719 21.9094 18.7312 22.95C17.6906 23.9906 18.5344 26.5219 20.6156 28.6031C22.6969 30.6844 25.2281 31.5281 26.2688 30.4875Z" fill="white"/>
<path d="M46.1672 22.6828C46.8703 23.386 46.7578 24.7078 46.0125 26.1563L46.0406 26.1985C44.093 27.6015 42.2847 29.1885 40.6406 30.9375H40.5703C40.1866 31.1065 39.7643 31.1682 39.3483 31.1162C38.9323 31.0642 38.5381 30.9004 38.2078 30.6422C37.1109 29.5453 37.9969 26.8735 40.2047 24.6797C42.4125 22.486 45.0703 21.586 46.1672 22.6828Z" fill="white"/>
<path d="M26.2683 30.4878C27.309 29.4471 26.4654 26.9162 24.384 24.8348C22.3026 22.7535 19.7717 21.9098 18.731 22.9505C17.6903 23.9912 18.534 26.5221 20.6153 28.6035C22.6967 30.6849 25.2277 31.5285 26.2683 30.4878Z" fill="white"/>
<path d="M59.3044 9.82266C63.359 9.15056 67.5164 10.0732 70.9059 12.3975C72.7433 13.7622 74.2682 15.5036 75.3784 17.505C76.4886 19.5065 77.1587 21.722 77.3438 24.0033C77.3684 24.3592 77.5273 24.6924 77.7884 24.9355C78.0495 25.1786 78.3933 25.3133 78.75 25.3125H78.8484C79.0331 25.3 79.2136 25.2512 79.3794 25.1688C79.5451 25.0864 79.693 24.9721 79.8145 24.8324C79.936 24.6928 80.0288 24.5305 80.0874 24.3549C80.1461 24.1793 80.1695 23.9939 80.1563 23.8092C79.9356 21.1134 79.1414 18.4959 77.8269 16.132C76.5124 13.7681 74.7079 11.7124 72.5344 10.1025C68.5431 7.32221 63.617 6.22636 58.8234 7.05235C58.6395 7.08186 58.4632 7.14762 58.3049 7.24583C58.1466 7.34404 58.0094 7.47272 57.9012 7.62442C57.793 7.77611 57.7161 7.94778 57.6748 8.12947C57.6336 8.31115 57.6288 8.49922 57.6609 8.68274C57.6929 8.86627 57.7611 9.04161 57.8615 9.19856C57.9619 9.35551 58.0925 9.49094 58.2456 9.597C58.3988 9.70306 58.5715 9.77762 58.7538 9.81636C58.936 9.8551 59.1241 9.85724 59.3072 9.82266H59.3044Z" fill="black"/>
<path d="M30.6956 80.1774C26.6409 80.8519 22.4827 79.929 19.094 77.6025C17.2566 76.2378 15.7318 74.4965 14.6216 72.495C13.5114 70.4935 12.8413 68.278 12.6562 65.9968C12.6263 65.6254 12.4523 65.2805 12.1714 65.0358C11.8904 64.7911 11.5249 64.6661 11.1529 64.6875C10.9681 64.6998 10.7875 64.7486 10.6216 64.8309C10.4556 64.9132 10.3076 65.0274 10.1859 65.1671C10.0643 65.3068 9.97142 65.4691 9.91269 65.6448C9.85396 65.8205 9.83052 66.0061 9.84371 66.1908C10.0644 68.8866 10.8586 71.5041 12.1731 73.868C13.4876 76.2319 15.292 78.2877 17.4656 79.8975C20.5581 82.0769 24.2546 83.2348 28.0378 83.2092C29.0896 83.2119 30.1397 83.1244 31.1765 82.9477C31.5397 82.8791 31.8613 82.6703 32.0717 82.3664C32.2821 82.0625 32.3644 81.6881 32.3008 81.324C32.2372 80.9599 32.0329 80.6355 31.7319 80.4209C31.431 80.2063 31.0577 80.1188 30.6928 80.1774H30.6956Z" fill="black"/>
<path d="M19.6186 29.6002C21.0163 31.1665 22.9573 32.1428 25.0481 32.3311C25.4556 32.3461 25.862 32.2791 26.2432 32.1342C26.6244 31.9893 26.9726 31.7693 27.2672 31.4873C27.7224 30.9626 28.0174 30.3181 28.1171 29.6306C28.2168 28.9431 28.1171 28.2414 27.8297 27.6089C27.3066 26.1831 26.4677 24.8942 25.3758 23.8388C22.6589 21.1247 19.3683 20.3119 17.7272 21.953C17.2719 22.4777 16.9769 23.1222 16.8772 23.8097C16.7775 24.4972 16.8773 25.1989 17.1647 25.8314C17.6879 27.2567 18.5268 28.5451 19.6186 29.6002ZM19.7212 23.9414C20.0025 23.7769 21.5944 24.0314 23.393 25.8272C25.1915 27.623 25.4447 29.2388 25.283 29.4919C25.0186 29.6578 23.4183 29.4202 21.607 27.6103C19.7958 25.8005 19.5595 24.2227 19.7212 23.9414Z" fill="black"/>
<path d="M59.0625 19.6875C58.687 19.6875 58.3045 19.7044 57.9178 19.7353C52.6556 9.28125 42.9511 2.8125 32.3438 2.8125C16.0608 2.8125 2.8125 17.9536 2.8125 36.5625C2.8125 55.1714 20.6817 70.3125 32.3438 70.3125C32.708 70.3125 33.0863 70.2928 33.4772 70.2591C38.5861 80.3658 48.1373 87.1875 59.0625 87.1875C75.3455 87.1875 88.5938 72.0464 88.5938 53.4375C88.5938 34.8075 70.7245 19.6875 59.0625 19.6875ZM5.625 36.5625C5.625 19.5033 17.6105 5.625 32.3438 5.625C41.6166 5.625 50.1595 11.1797 55.0181 20.2317C52.5396 20.8838 50.1661 21.8842 47.9686 23.2031C47.8556 22.6278 47.5747 22.0989 47.1614 21.683C46.8553 21.3915 46.4939 21.1642 46.0985 21.0147C45.7031 20.8652 45.2818 20.7965 44.8594 20.8125C42.6844 21.0263 40.6701 22.0528 39.2189 23.6869C37.5815 25.1395 36.552 27.1562 36.3361 29.3344C36.3215 29.7585 36.3922 30.1813 36.5439 30.5777C36.6956 30.974 36.9252 31.336 37.2192 31.642C37.3734 31.7952 37.5447 31.9301 37.7297 32.0442C34.8673 35.4845 32.6514 39.4146 31.1892 43.6444C26.3001 43.8734 21.5672 45.438 17.505 48.1683C17.1949 48.3756 16.9798 48.6977 16.9072 49.0636C16.8345 49.4295 16.9102 49.8093 17.1176 50.1195C17.3249 50.4296 17.647 50.6446 18.0129 50.7173C18.3788 50.7899 18.7586 50.7142 19.0688 50.5069C22.4356 48.2406 26.3212 46.8633 30.3637 46.5033C29.8174 48.7744 29.538 51.1016 29.5312 53.4375C29.52 58.2543 30.4347 63.0285 32.2256 67.5C21.9108 67.3889 5.625 53.2786 5.625 36.5625ZM39.8405 29.6719C39.6313 29.7348 39.4075 29.7289 39.202 29.655C39.1525 29.5584 39.132 29.4494 39.143 29.3414C39.3762 27.9136 40.1058 26.6139 41.2031 25.6711C42.1436 24.5806 43.438 23.8562 44.8594 23.625C44.9663 23.6149 45.074 23.6349 45.1702 23.6827C45.2419 23.753 45.2981 24.307 44.8706 25.2591C43.0726 26.5857 41.3899 28.0619 39.8405 29.6719ZM59.0625 84.375C44.3292 84.375 32.3438 70.4967 32.3438 53.4375C32.3438 45.3178 36.1898 37.8183 41.3241 32.2341C41.5006 32.1588 41.6596 32.0478 41.7913 31.9082C41.9229 31.7686 42.0243 31.6033 42.0891 31.4227C46.7859 26.6034 52.4109 23.3677 57.15 22.6533H57.1781C57.8017 22.5562 58.4315 22.505 59.0625 22.5C69.3703 22.5 85.7812 36.6581 85.7812 53.4375C85.7812 70.4967 73.7958 84.375 59.0625 84.375Z" fill="black"/>
<path d="M72.1898 62.1056C68.2788 64.7232 63.6746 66.112 58.9685 66.0935C54.2624 66.0749 49.6692 64.6499 45.779 62.0015C45.6253 61.898 45.4527 61.826 45.271 61.7894C45.0893 61.7529 44.9023 61.7526 44.7205 61.7887C44.5387 61.8247 44.3659 61.8962 44.2119 61.9993C44.0579 62.1023 43.9257 62.2348 43.8231 62.389C43.7204 62.5433 43.6493 62.7163 43.6137 62.8982C43.5781 63.08 43.5789 63.2671 43.6158 63.4487C43.6528 63.6302 43.7253 63.8027 43.8291 63.9562C43.933 64.1096 44.0661 64.2411 44.2209 64.3429C48.5698 67.2967 53.7012 68.8855 58.9584 68.9061C64.2155 68.9266 69.3592 67.3779 73.7311 64.4582C73.8855 64.3566 74.0185 64.2256 74.1224 64.0727C74.2262 63.9197 74.2989 63.7478 74.3363 63.5668C74.3737 63.3857 74.3751 63.1991 74.3404 63.0175C74.3057 62.8359 74.2355 62.6629 74.134 62.5084C74.0324 62.354 73.9014 62.221 73.7484 62.1172C73.5955 62.0133 73.4236 61.9406 73.2425 61.9032C73.0615 61.8658 72.8748 61.8644 72.6932 61.8991C72.5116 61.9338 72.3387 62.004 72.1842 62.1056H72.1898Z" fill="black"/>
<path d="M71.7876 43.5249C69.0708 40.8108 65.7816 39.998 64.1391 41.6391C63.6838 42.1639 63.3888 42.8083 63.2891 43.4959C63.1894 44.1834 63.2892 44.8851 63.5766 45.5176C64.0996 46.9433 64.9385 48.2322 66.0305 49.2877C67.4282 50.854 69.3692 51.8303 71.46 52.0186C71.8675 52.0336 72.2739 51.9667 72.6551 51.8218C73.0362 51.6768 73.3844 51.4569 73.6791 51.1749C74.1343 50.6501 74.4293 50.0057 74.529 49.3182C74.6287 48.6306 74.529 47.9289 74.2415 47.2965C73.7187 45.8702 72.8798 44.5808 71.7876 43.5249ZM71.685 49.1836C71.4037 49.344 69.8105 49.0936 68.0133 47.2979C66.2161 45.5021 65.9616 43.8863 66.1233 43.6332C66.1977 43.5996 66.2796 43.586 66.3609 43.5938C67.6992 43.8081 68.9177 44.4909 69.7992 45.5204C71.5936 47.3091 71.8467 48.9024 71.685 49.1836Z" fill="black"/>
<path d="M46.6706 52.0186C48.7617 51.8302 50.7028 50.8534 52.1001 49.2863C53.1923 48.2315 54.0313 46.943 54.554 45.5175C54.8414 44.885 54.9412 44.1833 54.8415 43.4958C54.7418 42.8083 54.4468 42.1639 53.9915 41.6391C52.3504 39.9966 49.0598 40.8108 46.3429 43.5263C45.2508 44.581 44.4118 45.8695 43.889 47.295C43.6016 47.9275 43.5019 48.6292 43.6016 49.3167C43.7013 50.0043 43.9963 50.6487 44.4515 51.1735C44.746 51.4557 45.0942 51.6759 45.4754 51.8211C45.8565 51.9663 46.263 52.0334 46.6706 52.0186ZM48.3258 45.5147C50.1342 43.7077 51.7331 43.4588 51.9933 43.6233C52.1634 43.8863 51.9201 45.4894 50.1117 47.2978C48.3033 49.1063 46.7212 49.3453 46.44 49.1836C46.2783 48.9024 46.5314 47.3091 48.3258 45.5147Z" fill="black"/>
</svg>
