<svg width="90" height="90" viewBox="0 0 90 90" fill="none" xmlns="http://www.w3.org/2000/svg">
<g clip-path="url(#clip0)">
<path d="M46.758 30.322H45.0002L41.4846 40.8689L45.0002 51.4158H50.2736V33.8376C50.2736 31.8961 48.6995 30.322 46.758 30.322Z" fill="#F13E26"/>
<path d="M31.8165 47.9002V67.2362C31.8165 68.6917 32.9977 69.8729 34.4532 69.8729C35.9086 69.8729 37.0899 68.6917 37.0899 67.2362V58.8741C37.9148 59.1657 38.8018 59.326 39.7266 59.326C40.6514 59.326 41.5384 59.1657 42.3633 58.8741L45.879 55.1449V47.9002H31.8165Z" fill="#FF4128"/>
<path d="M42.3633 47.9002V67.2362C42.3633 68.6924 43.5438 69.8729 45 69.8729C46.4562 69.8729 47.6367 68.6924 47.6367 67.2362V47.9002H42.3633Z" fill="#FF4128"/>
<path d="M34.4533 30.3221H32.6955C30.7538 30.3221 29.1799 31.896 29.1799 33.8377V51.4158H34.4533L45.0002 40.869L34.4533 30.3221Z" fill="#FF4128"/>
<path d="M45.0002 30.3221H34.4533L39.7268 40.869L45.0002 40.869V30.3221Z" fill="#FF4128"/>
<path d="M34.4533 51.4158H45.0002V30.3221L34.4533 51.4158Z" fill="#FF4128"/>
<path d="M76.6406 51.4159H71.3671L66.0937 40.869L71.3671 30.3221H76.6406V51.4159Z" fill="#010101"/>
<path d="M55.5468 30.3221H71.3671V51.4159H55.5468V30.3221Z" fill="white"/>
<path d="M45.281 5.91293C44.1386 3.71654 42.14 2.03678 39.7264 1.31836C37.3127 2.03678 35.3141 3.71654 34.1717 5.91293C32.8009 6.39264 31.8162 7.69412 31.8162 9.22852V17.1387H47.6365V9.22852C47.6363 7.69395 46.6516 6.39264 45.281 5.91293Z" fill="white"/>
<path d="M39.7262 9.22852V25.0488C44.0949 25.0488 47.6365 21.5074 47.6365 17.1387C47.6365 12.77 44.0949 9.22852 39.7262 9.22852Z" fill="white"/>
<path d="M42.3629 17.1387C42.3629 12.77 41.1824 9.22852 39.7262 9.22852C35.3575 9.22852 31.8162 12.77 31.8162 17.1387C31.8162 21.5074 35.3575 25.0488 39.7262 25.0488C41.1824 25.0488 42.3629 21.5072 42.3629 17.1387Z" fill="white"/>
<path d="M71.367 36.9139C72.0952 36.9139 72.6854 36.3236 72.6854 35.5955C72.6854 34.8674 72.0952 34.2772 71.367 34.2772C70.6389 34.2772 70.0487 34.8674 70.0487 35.5955C70.0487 36.3236 70.6389 36.9139 71.367 36.9139Z" fill="white"/>
<path d="M71.367 42.1873C72.0952 42.1873 72.6854 41.5971 72.6854 40.869C72.6854 40.1408 72.0952 39.5506 71.367 39.5506C70.6389 39.5506 70.0487 40.1408 70.0487 40.869C70.0487 41.5971 70.6389 42.1873 71.367 42.1873Z" fill="white"/>
<path d="M60.8203 36.9139C61.5484 36.9139 62.1386 36.3236 62.1386 35.5955C62.1386 34.8674 61.5484 34.2772 60.8203 34.2772C60.0921 34.2772 59.5019 34.8674 59.5019 35.5955C59.5019 36.3236 60.0921 36.9139 60.8203 36.9139Z" fill="black"/>
<path d="M66.0937 36.9139C66.8218 36.9139 67.4121 36.3236 67.4121 35.5955C67.4121 34.8674 66.8218 34.2772 66.0937 34.2772C65.3656 34.2772 64.7754 34.8674 64.7754 35.5955C64.7754 36.3236 65.3656 36.9139 66.0937 36.9139Z" fill="black"/>
<path d="M60.8203 42.1873C61.5484 42.1873 62.1386 41.5971 62.1386 40.869C62.1386 40.1408 61.5484 39.5506 60.8203 39.5506C60.0921 39.5506 59.5019 40.1408 59.5019 40.869C59.5019 41.5971 60.0921 42.1873 60.8203 42.1873Z" fill="black"/>
<path d="M66.0937 42.1873C66.8218 42.1873 67.4121 41.5971 67.4121 40.869C67.4121 40.1408 66.8218 39.5506 66.0937 39.5506C65.3656 39.5506 64.7754 40.1408 64.7754 40.869C64.7754 41.5971 65.3656 42.1873 66.0937 42.1873Z" fill="black"/>
<path d="M60.8203 47.4608C61.5484 47.4608 62.1386 46.8705 62.1386 46.1424C62.1386 45.4143 61.5484 44.824 60.8203 44.824C60.0921 44.824 59.5019 45.4143 59.5019 46.1424C59.5019 46.8705 60.0921 47.4608 60.8203 47.4608Z" fill="black"/>
<path d="M66.0937 47.4608C66.8218 47.4608 67.4121 46.8705 67.4121 46.1424C67.4121 45.4143 66.8218 44.824 66.0937 44.824C65.3656 44.824 64.7754 45.4143 64.7754 46.1424C64.7754 46.8705 65.3656 47.4608 66.0937 47.4608Z" fill="black"/>
<path d="M50.6903 87.4307L46.3182 85.9733V70.9644C47.8526 70.4202 48.9549 68.9549 48.9549 67.2361V52.7342H50.2733C51.0014 52.7342 51.5917 52.144 51.5917 51.4159V33.8378C51.5917 31.1723 49.4232 29.0039 46.7577 29.0039H32.6952C30.5041 29.0039 28.65 30.4697 28.059 32.472C20.5848 31.8976 14.6777 25.6366 14.6777 18.0178C14.6777 17.2897 14.0875 16.6994 13.3594 16.6994C12.6313 16.6994 12.041 17.2897 12.041 18.0178C12.041 27.0244 19.0246 34.4307 27.8613 35.1061V51.4159C27.8613 52.144 28.4515 52.7342 29.1796 52.7342H30.498V67.119C30.498 68.8378 31.6003 70.3031 33.1347 70.8474V85.9734L28.7627 87.4308C28.0719 87.6611 27.6987 88.4076 27.9288 89.0985C28.113 89.6509 28.6273 90.0002 29.1793 90.0002C29.3174 90.0002 29.4581 89.9782 29.5964 89.9322L34.8698 88.1744C35.4082 87.9949 35.7712 87.4911 35.7712 86.9237V70.8474C37.3056 70.3031 38.4079 68.8378 38.4079 67.119V60.4331C39.278 60.5584 40.1745 60.5584 41.0446 60.4331V67.2361C41.0446 68.9549 42.147 70.4202 43.6814 70.9644V86.9235C43.6814 87.491 44.0445 87.9947 44.5828 88.1742L49.8562 89.932C49.9945 89.9781 50.135 90 50.2733 90C50.8253 90 51.3396 89.6506 51.5238 89.0983C51.7544 88.4075 51.3811 87.6609 50.6903 87.4307ZM48.9551 33.8376V50.0973H36.5863L45.8148 31.6404H46.7579C47.9693 31.6404 48.9551 32.6262 48.9551 33.8376ZM39.7266 37.921L36.5863 31.6404H42.867L39.7266 37.921ZM30.4982 33.8376C30.4982 32.626 31.4838 31.6404 32.6954 31.6404H33.6385L38.2527 40.8689L33.6385 50.0973H30.4982V33.8376ZM43.1245 57.6805C42.775 57.4334 42.3273 57.3713 41.9239 57.5139C40.5106 58.0136 38.9427 58.0136 37.5294 57.5139C37.1258 57.3711 36.6783 57.4332 36.3288 57.6805C35.9793 57.9277 35.7716 58.329 35.7716 58.757V67.119C35.7716 67.8461 35.1803 68.4374 34.4532 68.4374C33.7262 68.4374 33.1349 67.8461 33.1349 67.119V52.7342H46.3184V67.2361C46.3184 67.9631 45.7271 68.5545 45.0001 68.5545C44.273 68.5545 43.6817 67.9631 43.6817 67.2361V58.757C43.6817 58.329 43.4739 57.9277 43.1245 57.6805Z" fill="black"/>
<path d="M39.7262 26.3672C44.8149 26.3672 48.9547 22.2273 48.9547 17.1387V9.2285C48.9547 7.35977 47.8728 5.67157 46.2136 4.87422C44.8685 2.56094 42.6658 0.817717 40.1022 0.0546509C39.8568 -0.0182983 39.5954 -0.0182983 39.35 0.0546509C36.7865 0.817717 34.5837 2.56094 33.2387 4.87422C31.5796 5.67139 30.4977 7.35977 30.4977 9.2285V17.1387C30.4977 22.2272 34.6377 26.3672 39.7262 26.3672ZM33.1344 9.2285C33.1344 8.29791 33.7263 7.46559 34.6069 7.15727C34.9237 7.04653 35.1861 6.81907 35.341 6.52129C36.2661 4.74239 37.8503 3.36883 39.7262 2.70438C41.602 3.36883 43.1861 4.74239 44.1113 6.52129C44.2661 6.81889 44.5287 7.04635 44.8453 7.15727C45.7262 7.46559 46.318 8.29791 46.318 9.2285V10.6889C44.6418 8.9759 42.3067 7.91014 39.7262 7.91014C37.1457 7.91014 34.8108 8.9759 33.1344 10.6889V9.2285ZM39.7262 10.5469C43.361 10.5469 46.318 13.5039 46.318 17.1387C46.318 20.7735 43.361 23.7304 39.7262 23.7304C36.0914 23.7304 33.1344 20.7735 33.1344 17.1387C33.1344 13.5039 36.0916 10.5469 39.7262 10.5469Z" fill="black"/>
<path d="M76.6406 29.0038H75.3222V27.6854C75.3222 26.9573 74.732 26.3671 74.0039 26.3671C73.2758 26.3671 72.6855 26.9573 72.6855 27.6854V29.0038H70.0488V27.6854C70.0488 26.9573 69.4585 26.3671 68.7305 26.3671C68.0024 26.3671 67.4121 26.9573 67.4121 27.6854V29.0038H64.7754V27.6854C64.7754 26.9573 64.1851 26.3671 63.457 26.3671C62.7289 26.3671 62.1387 26.9573 62.1387 27.6854V29.0038H59.5019V27.6854C59.5019 26.9573 58.9117 26.3671 58.1836 26.3671C57.4555 26.3671 56.8652 26.9573 56.8652 27.6854V29.0038H55.5469C54.8188 29.0038 54.2285 29.5941 54.2285 30.3221V51.4159C54.2285 52.144 54.8188 52.7343 55.5469 52.7343H76.6406C77.3687 52.7343 77.959 52.144 77.959 51.4159V30.3221C77.959 29.5941 77.3687 29.0038 76.6406 29.0038ZM75.3222 50.0975H56.8652V31.6405H75.3222V50.0975Z" fill="black"/>
</g>
<defs>
<clipPath id="clip0">
<rect width="90" height="90" fill="white"/>
</clipPath>
</defs>
</svg>
