<svg width="90" height="90" viewBox="0 0 90 90" fill="none" xmlns="http://www.w3.org/2000/svg">
<path d="M82.9688 47.8124C84.5221 47.8124 85.7812 46.5532 85.7812 44.9999C85.7812 43.4466 84.5221 42.1874 82.9688 42.1874C81.4154 42.1874 80.1562 43.4466 80.1562 44.9999C80.1562 46.5532 81.4154 47.8124 82.9688 47.8124Z" fill="white"/>
<path d="M75.9797 63.7452L71.311 68.414L74.3063 74.3061L68.4141 71.3108L63.7453 75.9796L64.7719 69.4546L58.8797 66.4452L65.4188 65.4186L66.4453 58.8796L69.4547 64.7718L75.9797 63.7452Z" fill="#FB3006"/>
<path d="M75.9797 26.2546L69.4547 25.2281L66.4453 31.1203L65.4188 24.5812L58.8797 23.5546L64.7719 20.5453L63.7453 14.0203L68.4141 18.689L74.3063 15.6937L71.311 21.5859L75.9797 26.2546Z" fill="#FB3006"/>
<path d="M53.6625 9.84362L48.3046 13.7249L50.3437 20.0249L45 16.1296L39.6562 20.0249L41.6953 13.7249L36.3375 9.84362H42.9609L45 3.55768L47.039 9.84362H53.6625Z" fill="#FB3006"/>
<path d="M45 85.7812C46.5533 85.7812 47.8125 84.522 47.8125 82.9687C47.8125 81.4154 46.5533 80.1562 45 80.1562C43.4467 80.1562 42.1875 81.4154 42.1875 82.9687C42.1875 84.522 43.4467 85.7812 45 85.7812Z" fill="white"/>
<path d="M45 46.4062C45.7767 46.4062 46.4062 45.7766 46.4062 44.9999C46.4062 44.2233 45.7767 43.5937 45 43.5937C44.2233 43.5937 43.5938 44.2233 43.5938 44.9999C43.5938 45.7766 44.2233 46.4062 45 46.4062Z" fill="#FB3006"/>
<path d="M31.1203 23.5546L24.5813 24.5812L23.5547 31.1203L20.5453 25.2281L14.0203 26.2546L18.6891 21.5859L15.6938 15.6937L21.5859 18.689L26.2547 14.0203L25.2281 20.5453L31.1203 23.5546Z" fill="#FB3006"/>
<path d="M31.1203 66.4452L25.2281 69.4546L26.2547 75.9796L21.5859 71.3108L15.6938 74.3061L18.6891 68.414L14.0203 63.7452L20.5453 64.7718L23.5547 58.8796L24.5813 65.4186L31.1203 66.4452Z" fill="#FB3006"/>
<path d="M7.03125 47.8124C8.58455 47.8124 9.84375 46.5532 9.84375 44.9999C9.84375 43.4466 8.58455 42.1874 7.03125 42.1874C5.47795 42.1874 4.21875 43.4466 4.21875 44.9999C4.21875 46.5532 5.47795 47.8124 7.03125 47.8124Z" fill="white"/>
<path d="M40.0401 14.2677L38.3133 19.5862C38.2219 19.8686 38.2222 20.1726 38.3142 20.4548C38.4061 20.737 38.585 20.9828 38.8252 21.1571C39.0654 21.3315 39.3546 21.4253 39.6514 21.4253C39.9482 21.4253 40.2373 21.3313 40.4775 21.157L45 17.8706L49.5225 21.157C49.7626 21.3313 50.0518 21.4253 50.3486 21.4253C50.6454 21.4253 50.9345 21.3315 51.1747 21.1571C51.4149 20.9828 51.5938 20.737 51.6858 20.4548C51.7777 20.1726 51.7781 19.8686 51.6867 19.5862L49.9598 14.2677L54.4823 10.9813C54.7226 10.8068 54.9014 10.5606 54.9932 10.2781C55.0849 9.99569 55.0849 9.69143 54.9931 9.40898C54.9013 9.12654 54.7224 8.88041 54.4821 8.70588C54.2418 8.53135 53.9524 8.43738 53.6554 8.43744H48.0656L46.3373 3.12181C46.2448 2.84047 46.0659 2.5955 45.826 2.42183C45.5861 2.24816 45.2975 2.15466 45.0014 2.15466C44.7052 2.15466 44.4166 2.24816 44.1767 2.42183C43.9369 2.5955 43.7579 2.84047 43.6654 3.12181L41.9344 8.43744H36.3445C36.0475 8.43738 35.7581 8.53135 35.5178 8.70588C35.2775 8.88041 35.0987 9.12654 35.0069 9.40898C34.9151 9.69143 34.915 9.99569 35.0068 10.2781C35.0985 10.5606 35.2774 10.8068 35.5176 10.9813L40.0401 14.2677ZM42.9567 11.2499C43.2537 11.2499 43.543 11.1559 43.7832 10.9813C44.0235 10.8068 44.2023 10.5606 44.294 10.2782L45 8.10556L45.7031 10.2782C45.795 10.5611 45.9742 10.8076 46.215 10.9822C46.4559 11.1568 46.7458 11.2505 47.0433 11.2499H49.327L47.4792 12.5929C47.2393 12.7674 47.0607 13.0133 46.9691 13.2955C46.8774 13.5776 46.8773 13.8815 46.9687 14.1637L47.6719 16.3377L45.824 14.9948C45.5837 14.8201 45.2943 14.726 44.9972 14.726C44.7001 14.726 44.4106 14.8201 44.1703 14.9948L42.3225 16.3377L43.0256 14.1637C43.1171 13.8815 43.117 13.5776 43.0253 13.2955C42.9336 13.0133 42.755 12.7674 42.5151 12.5929L40.6729 11.2499H42.9567Z" fill="black"/>
<path d="M14.2397 27.6496L19.762 26.7763L22.2933 31.7573C22.411 31.9883 22.5904 32.1823 22.8115 32.3179C23.0326 32.4534 23.2869 32.5251 23.5462 32.5251C23.6197 32.5253 23.6931 32.5192 23.7656 32.5068C24.0591 32.4606 24.3303 32.3226 24.5405 32.1126C24.7507 31.9027 24.889 31.6316 24.9356 31.3382L25.8089 25.8159L31.3312 24.9412C31.6245 24.895 31.8956 24.7572 32.1057 24.5475C32.3158 24.3378 32.4542 24.067 32.5011 23.7739C32.5479 23.4807 32.5007 23.1803 32.3664 22.9156C32.232 22.6509 32.0174 22.4355 31.7531 22.3002L26.7722 19.769L27.6469 14.2466C27.6953 13.9519 27.6486 13.6494 27.5135 13.383C27.3785 13.1165 27.1621 12.9 26.8958 12.7648C26.6294 12.6296 26.3269 12.5827 26.0322 12.6309C25.7374 12.6792 25.4656 12.82 25.2562 13.033L21.3019 16.986L16.3209 14.4548C16.0565 14.3203 15.7562 14.2729 15.4632 14.3193C15.1702 14.3658 14.8993 14.5038 14.6895 14.7135C14.4796 14.9232 14.3414 15.1939 14.2947 15.4869C14.248 15.7799 14.2952 16.0802 14.4295 16.3448L16.9608 21.3257L13.0261 25.2674C12.8167 25.4775 12.679 25.7483 12.6328 26.0413C12.5866 26.3343 12.6343 26.6344 12.7689 26.8987C12.9035 27.1629 13.1183 27.3779 13.3824 27.5128C13.6466 27.6476 13.9466 27.6955 14.2397 27.6496ZM19.949 20.9474L18.9126 18.9112L20.9475 19.949C21.2124 20.0834 21.513 20.1305 21.8063 20.0835C22.0996 20.0365 22.3705 19.8979 22.5801 19.6874L24.1959 18.0716L23.8387 20.3287C23.7923 20.6218 23.8399 20.9221 23.9745 21.1865C24.1091 21.451 24.324 21.6661 24.5883 21.801L26.6245 22.8374L24.3675 23.196C24.0743 23.2425 23.8033 23.3806 23.5934 23.5905C23.3835 23.8004 23.2454 24.0714 23.1989 24.3646L22.8417 26.6216L21.8039 24.5854C21.6863 24.3545 21.5071 24.1607 21.2863 24.0252C21.0654 23.8897 20.8114 23.8178 20.5523 23.8176C20.4783 23.8173 20.4045 23.8234 20.3315 23.8359L18.0745 24.193L19.6875 22.5801C19.8967 22.3709 20.0346 22.101 20.0816 21.8089C20.1285 21.5168 20.0822 21.2173 19.949 20.953V20.9474Z" fill="black"/>
<path d="M31.3383 65.0587L25.816 64.184L24.9427 58.6617C24.8969 58.368 24.7592 58.0964 24.5494 57.8858C24.3396 57.6753 24.0685 57.5366 23.7749 57.4898C23.4814 57.4429 23.1806 57.4902 22.9157 57.625C22.6507 57.7598 22.4353 57.975 22.3003 58.2398L19.7691 63.2208L14.2467 62.3475C13.9537 62.3016 13.6537 62.3495 13.3895 62.4843C13.1254 62.6192 12.9106 62.8341 12.776 63.0984C12.6413 63.3627 12.5937 63.6628 12.6399 63.9558C12.6861 64.2488 12.8237 64.5196 13.0332 64.7297L16.9861 68.684L14.4549 73.665C14.3206 73.9295 14.2734 74.2298 14.3201 74.5228C14.3668 74.8158 14.5049 75.0865 14.7148 75.2962C14.9247 75.506 15.1955 75.6439 15.4886 75.6904C15.7816 75.7369 16.0818 75.6895 16.3463 75.555L21.3272 73.0237L25.2816 76.9767C25.491 77.1897 25.7627 77.3306 26.0575 77.3788C26.3523 77.427 26.6548 77.3801 26.9211 77.2449C27.1875 77.1097 27.4038 76.8932 27.5389 76.6268C27.6739 76.3604 27.7206 76.0578 27.6722 75.7631L26.7975 70.2408L31.7785 67.7095C32.0427 67.5743 32.2574 67.3589 32.3917 67.0942C32.5261 66.8294 32.5732 66.529 32.5264 66.2359C32.4796 65.9427 32.3412 65.6719 32.1311 65.4623C31.9209 65.2526 31.6498 65.1148 31.3566 65.0686L31.3383 65.0587ZM24.5883 68.1961C24.324 68.331 24.1092 68.5461 23.9745 68.8106C23.8399 69.075 23.7924 69.3753 23.8388 69.6684L24.196 71.9184L22.5802 70.3125C22.3702 70.1025 22.0992 69.9644 21.8059 69.9179C21.5126 69.8714 21.2121 69.919 20.9475 70.0537L18.9127 71.0915L19.9491 69.0553C20.0842 68.7901 20.1316 68.4889 20.0846 68.195C20.0376 67.9011 19.8986 67.6297 19.6875 67.4198L18.0717 65.804L20.3288 66.1612C20.622 66.2094 20.923 66.1627 21.1878 66.0279C21.4527 65.893 21.6676 65.6772 21.8011 65.4117L22.8389 63.3755L23.1961 65.6254C23.2426 65.9186 23.3807 66.1896 23.5906 66.3995C23.8006 66.6094 24.0715 66.7475 24.3647 66.794L26.6217 67.1526L24.5883 68.1961Z" fill="black"/>
<path d="M7.03125 40.7812C6.19686 40.7812 5.38121 41.0286 4.68744 41.4922C3.99367 41.9557 3.45294 42.6146 3.13364 43.3855C2.81433 44.1564 2.73078 45.0046 2.89356 45.823C3.05635 46.6413 3.45814 47.393 4.04814 47.983C4.63815 48.5731 5.38986 48.9749 6.20821 49.1376C7.02657 49.3004 7.87482 49.2169 8.6457 48.8976C9.41657 48.5783 10.0754 48.0375 10.539 47.3438C11.0026 46.65 11.25 45.8343 11.25 44.9999C11.25 43.8811 10.8055 42.808 10.0144 42.0168C9.22319 41.2257 8.15013 40.7812 7.03125 40.7812ZM7.03125 46.4062C6.75312 46.4062 6.48124 46.3237 6.24998 46.1692C6.01872 46.0147 5.83848 45.795 5.73205 45.5381C5.62561 45.2811 5.59776 44.9984 5.65202 44.7256C5.70628 44.4528 5.84021 44.2022 6.03688 44.0056C6.23355 43.8089 6.48412 43.675 6.7569 43.6207C7.02969 43.5665 7.31244 43.5943 7.5694 43.7007C7.82636 43.8072 8.04598 43.9874 8.2005 44.2187C8.35502 44.4499 8.4375 44.7218 8.4375 44.9999C8.4375 45.3729 8.28934 45.7306 8.02562 45.9943C7.7619 46.258 7.40421 46.4062 7.03125 46.4062Z" fill="black"/>
<path d="M45 78.7499C44.1656 78.7499 43.35 78.9974 42.6562 79.4609C41.9624 79.9245 41.4217 80.5834 41.1024 81.3542C40.7831 82.1251 40.6995 82.9734 40.8623 83.7917C41.0251 84.6101 41.4269 85.3618 42.0169 85.9518C42.6069 86.5418 43.3586 86.9436 44.177 87.1064C44.9953 87.2692 45.8436 87.1856 46.6145 86.8663C47.3853 86.547 48.0442 86.0063 48.5078 85.3125C48.9713 84.6187 49.2188 83.8031 49.2188 82.9687C49.2188 81.8498 48.7743 80.7768 47.9831 79.9856C47.1919 79.1944 46.1189 78.7499 45 78.7499ZM45 84.3749C44.7219 84.3749 44.45 84.2925 44.2187 84.1379C43.9875 83.9834 43.8072 83.7638 43.7008 83.5068C43.5944 83.2499 43.5665 82.9671 43.6208 82.6943C43.675 82.4216 43.809 82.171 44.0056 81.9743C44.2023 81.7777 44.4529 81.6437 44.7257 81.5895C44.9984 81.5352 45.2812 81.563 45.5382 81.6695C45.7951 81.7759 46.0147 81.9562 46.1693 82.1874C46.3238 82.4187 46.4063 82.6906 46.4063 82.9687C46.4063 83.3416 46.2581 83.6993 45.9944 83.9631C45.7307 84.2268 45.373 84.3749 45 84.3749Z" fill="black"/>
<path d="M45 47.8124C46.5533 47.8124 47.8125 46.5532 47.8125 44.9999C47.8125 43.4466 46.5533 42.1874 45 42.1874C43.4467 42.1874 42.1875 43.4466 42.1875 44.9999C42.1875 46.5532 43.4467 47.8124 45 47.8124Z" fill="black"/>
<path d="M45 33.7499C45.373 33.7499 45.7306 33.6018 45.9944 33.3381C46.2581 33.0743 46.4062 32.7167 46.4062 32.3437V21.0937C46.4062 20.7207 46.2581 20.363 45.9944 20.0993C45.7306 19.8356 45.373 19.6874 45 19.6874C44.627 19.6874 44.2694 19.8356 44.0056 20.0993C43.7419 20.363 43.5938 20.7207 43.5938 21.0937V32.3437C43.5938 32.7167 43.7419 33.0743 44.0056 33.3381C44.2694 33.6018 44.627 33.7499 45 33.7499Z" fill="black"/>
<path d="M43.5938 39.3749C43.5938 39.7479 43.7419 40.1056 44.0056 40.3693C44.2694 40.633 44.627 40.7812 45 40.7812C45.373 40.7812 45.7306 40.633 45.9944 40.3693C46.2581 40.1056 46.4062 39.7479 46.4062 39.3749V36.5624C46.4062 36.1895 46.2581 35.8318 45.9944 35.5681C45.7306 35.3043 45.373 35.1562 45 35.1562C44.627 35.1562 44.2694 35.3043 44.0056 35.5681C43.7419 35.8318 43.5938 36.1895 43.5938 36.5624V39.3749Z" fill="black"/>
<path d="M36.0507 37.4568C36.3287 37.4568 36.6006 37.3742 36.8318 37.2197C37.063 37.0652 37.2432 36.8456 37.3496 36.5887C37.456 36.3317 37.4838 36.049 37.4296 35.7763C37.3754 35.5036 37.2415 35.253 37.0449 35.0563L29.0897 27.1012C28.8259 26.8375 28.468 26.6894 28.095 26.6896C27.722 26.6897 27.3643 26.838 27.1006 27.1019C26.8369 27.3658 26.6888 27.7236 26.689 28.0966C26.6891 28.4696 26.8374 28.8273 27.1013 29.091L35.0564 37.0448C35.3201 37.3085 35.6777 37.4567 36.0507 37.4568Z" fill="black"/>
<path d="M42.0159 42.0173C42.2796 41.7536 42.4277 41.3959 42.4277 41.023C42.4277 40.6502 42.2796 40.2925 42.0159 40.0288L40.0275 38.0404C39.8978 37.9061 39.7426 37.799 39.571 37.7253C39.3995 37.6516 39.2149 37.6128 39.0282 37.6111C38.8415 37.6095 38.6563 37.6451 38.4835 37.7158C38.3107 37.7865 38.1537 37.8909 38.0216 38.023C37.8896 38.155 37.7852 38.312 37.7145 38.4848C37.6438 38.6577 37.6082 38.8428 37.6098 39.0295C37.6114 39.2163 37.6502 39.4008 37.7239 39.5724C37.7976 39.7439 37.9047 39.8991 38.0391 40.0288L40.0275 42.0173C40.2912 42.2809 40.6488 42.429 41.0217 42.429C41.3946 42.429 41.7522 42.2809 42.0159 42.0173Z" fill="black"/>
<path d="M21.0938 43.5937C20.7208 43.5937 20.3631 43.7418 20.0994 44.0056C19.8357 44.2693 19.6875 44.627 19.6875 44.9999C19.6875 45.3729 19.8357 45.7306 20.0994 45.9943C20.3631 46.258 20.7208 46.4062 21.0938 46.4062H32.3438C32.7167 46.4062 33.0744 46.258 33.3381 45.9943C33.6018 45.7306 33.75 45.3729 33.75 44.9999C33.75 44.627 33.6018 44.2693 33.3381 44.0056C33.0744 43.7418 32.7167 43.5937 32.3438 43.5937H21.0938Z" fill="black"/>
<path d="M36.5625 46.4062H39.375C39.748 46.4062 40.1056 46.258 40.3694 45.9943C40.6331 45.7306 40.7812 45.3729 40.7812 44.9999C40.7812 44.627 40.6331 44.2693 40.3694 44.0056C40.1056 43.7418 39.748 43.5937 39.375 43.5937H36.5625C36.1895 43.5937 35.8319 43.7418 35.5681 44.0056C35.3044 44.2693 35.1562 44.627 35.1562 44.9999C35.1562 45.3729 35.3044 45.7306 35.5681 45.9943C35.8319 46.258 36.1895 46.4062 36.5625 46.4062Z" fill="black"/>
<path d="M35.0564 52.9551L27.1013 60.9089C26.9706 61.0394 26.867 61.1944 26.7962 61.3651C26.7255 61.5357 26.689 61.7186 26.689 61.9033C26.6889 62.088 26.7252 62.2709 26.7958 62.4416C26.8665 62.6123 26.97 62.7673 27.1006 62.898C27.2311 63.0287 27.3862 63.1323 27.5568 63.2031C27.7274 63.2738 27.9103 63.3103 28.095 63.3103C28.2797 63.3104 28.4626 63.2741 28.6333 63.2034C28.804 63.1328 28.9591 63.0293 29.0897 62.8987L37.0449 54.9435C37.301 54.6783 37.4428 54.3231 37.4396 53.9544C37.4364 53.5857 37.2885 53.233 37.0277 52.9722C36.767 52.7115 36.4143 52.5636 36.0456 52.5604C35.6769 52.5572 35.3217 52.699 35.0564 52.9551Z" fill="black"/>
<path d="M42.0159 47.9826C41.7522 47.719 41.3946 47.5709 41.0217 47.5709C40.6488 47.5709 40.2912 47.719 40.0275 47.9826L38.0391 49.971C37.9047 50.1008 37.7976 50.2559 37.7239 50.4275C37.6502 50.5991 37.6114 50.7836 37.6098 50.9703C37.6082 51.157 37.6438 51.3422 37.7145 51.515C37.7852 51.6878 37.8896 51.8449 38.0216 51.9769C38.1537 52.1089 38.3107 52.2133 38.4835 52.2841C38.6563 52.3548 38.8415 52.3903 39.0282 52.3887C39.2149 52.3871 39.3995 52.3483 39.571 52.2746C39.7426 52.2009 39.8978 52.0938 40.0275 51.9595L42.0159 49.971C42.2796 49.7073 42.4277 49.3497 42.4277 48.9768C42.4277 48.6039 42.2796 48.2463 42.0159 47.9826Z" fill="black"/>
<path d="M46.4062 57.6562C46.4062 57.2832 46.2581 56.9255 45.9944 56.6618C45.7306 56.3981 45.373 56.2499 45 56.2499C44.627 56.2499 44.2694 56.3981 44.0056 56.6618C43.7419 56.9255 43.5938 57.2832 43.5938 57.6562V68.9062C43.5938 69.2792 43.7419 69.6368 44.0056 69.9006C44.2694 70.1643 44.627 70.3124 45 70.3124C45.373 70.3124 45.7306 70.1643 45.9944 69.9006C46.2581 69.6368 46.4062 69.2792 46.4062 68.9062V57.6562Z" fill="black"/>
<path d="M46.4062 50.6249C46.4062 50.252 46.2581 49.8943 45.9944 49.6306C45.7306 49.3668 45.373 49.2187 45 49.2187C44.627 49.2187 44.2694 49.3668 44.0056 49.6306C43.7419 49.8943 43.5938 50.252 43.5938 50.6249V53.4374C43.5938 53.8104 43.7419 54.1681 44.0056 54.4318C44.2694 54.6955 44.627 54.8437 45 54.8437C45.373 54.8437 45.7306 54.6955 45.9944 54.4318C46.2581 54.1681 46.4062 53.8104 46.4062 53.4374V50.6249Z" fill="black"/>
<path d="M14.0625 43.5937C13.6895 43.5937 13.3319 43.7418 13.0681 44.0056C12.8044 44.2693 12.6562 44.627 12.6562 44.9999C12.6562 45.3729 12.8044 45.7306 13.0681 45.9943C13.3319 46.258 13.6895 46.4062 14.0625 46.4062H16.875C17.248 46.4062 17.6056 46.258 17.8694 45.9943C18.1331 45.7306 18.2812 45.3729 18.2812 44.9999C18.2812 44.627 18.1331 44.2693 17.8694 44.0056C17.6056 43.7418 17.248 43.5937 16.875 43.5937H14.0625Z" fill="black"/>
<path d="M73.0209 21.3131L75.5522 16.3321C75.6865 16.0676 75.7337 15.7673 75.687 15.4743C75.6403 15.1813 75.5021 14.9106 75.2923 14.7009C75.0824 14.4911 74.8116 14.3532 74.5185 14.3067C74.2255 14.2602 73.9253 14.3076 73.6608 14.4421L68.6799 16.9734L64.7325 13.026C64.5226 12.816 64.2516 12.6778 63.9583 12.6313C63.665 12.5848 63.3645 12.6323 63.0999 12.767C62.8353 12.9018 62.6201 13.1168 62.4852 13.3813C62.3503 13.6459 62.3026 13.9463 62.3489 14.2396L63.2236 19.762L58.2427 22.2932C57.9784 22.4285 57.7637 22.6439 57.6294 22.9086C57.495 23.1733 57.4479 23.4737 57.4947 23.7669C57.5415 24.06 57.6799 24.3308 57.8901 24.5405C58.1002 24.7502 58.3713 24.888 58.6645 24.9342L64.1869 25.8088L65.0602 31.3312C65.1068 31.6246 65.2451 31.8957 65.4553 32.1056C65.6654 32.3156 65.9367 32.4535 66.2302 32.4998C66.3026 32.5121 66.376 32.5183 66.4495 32.5181C66.7089 32.5181 66.9632 32.4463 67.1843 32.3108C67.4054 32.1753 67.5848 31.9813 67.7025 31.7502L70.2338 26.7693L75.7561 27.6426C76.0491 27.6885 76.3492 27.6406 76.6133 27.5058C76.8775 27.3709 77.0922 27.1559 77.2269 26.8916C77.3615 26.6274 77.4092 26.3273 77.363 26.0343C77.3168 25.7413 77.1791 25.4704 76.9697 25.2604L73.0209 21.3131ZM69.6684 23.8443C69.3753 23.7979 69.0751 23.8454 68.8106 23.9801C68.5461 24.1147 68.331 24.3295 68.1961 24.5938L67.1583 26.6301L66.7969 24.3674C66.7504 24.0742 66.6123 23.8033 66.4024 23.5934C66.1925 23.3834 65.9215 23.2453 65.6283 23.1988L63.3783 22.8403L65.4145 21.8038C65.6788 21.6689 65.8937 21.4538 66.0283 21.1894C66.163 20.9249 66.2105 20.6246 66.1641 20.3315L65.8069 18.0745L67.4199 19.6874C67.6298 19.8974 67.9009 20.0356 68.1942 20.082C68.4874 20.1285 68.7879 20.081 69.0525 19.9462L71.0874 18.9084L70.0509 20.9531C69.9178 21.2173 69.8715 21.5168 69.9184 21.8089C69.9654 22.101 70.1033 22.3709 70.3125 22.5801L71.9283 24.1959L69.6684 23.8443Z" fill="black"/>
<path d="M75.7603 62.3502L70.238 63.2235L67.7067 58.2426C67.5717 57.9778 67.3563 57.7625 67.0914 57.6277C66.8265 57.493 66.5256 57.4456 66.2321 57.4925C65.9386 57.5394 65.6675 57.678 65.4577 57.8886C65.2479 58.0991 65.1102 58.3708 65.0644 58.6644L64.1911 64.1868L58.6688 65.0615C58.3755 65.1077 58.1044 65.2455 57.8943 65.4552C57.6841 65.6648 57.5458 65.9356 57.4989 66.2288C57.4521 66.5219 57.4992 66.8223 57.6336 67.0871C57.7679 67.3518 57.9826 67.5672 58.2469 67.7024L63.2278 70.2337L62.3531 75.756C62.3068 76.0493 62.3546 76.3497 62.4895 76.6141C62.6244 76.8786 62.8395 77.0936 63.1041 77.2283C63.3687 77.3631 63.6691 77.4107 63.9624 77.3642C64.2557 77.3177 64.5268 77.1796 64.7367 76.9696L68.6911 73.0166L73.672 75.5479C73.9365 75.6824 74.2367 75.7298 74.5298 75.6833C74.8228 75.6368 75.0936 75.4989 75.3035 75.2892C75.5134 75.0794 75.6515 74.8087 75.6982 74.5157C75.7449 74.2227 75.6977 73.9224 75.5634 73.6579L73.0322 68.6769L76.9852 64.7226C77.1946 64.5125 77.3322 64.2417 77.3784 63.9487C77.4246 63.6557 77.377 63.3556 77.2423 63.0913C77.1077 62.827 76.893 62.6121 76.6288 62.4772C76.3646 62.3424 76.0646 62.2945 75.7716 62.3404L75.7603 62.3502ZM70.0509 69.0468L71.0873 71.083L69.0469 70.0508C68.7826 69.9177 68.4832 69.8714 68.191 69.9183C67.8989 69.9653 67.6291 70.1032 67.4199 70.3124L65.8041 71.9282L66.1613 69.6782C66.2077 69.3851 66.1601 69.0848 66.0255 68.8203C65.8909 68.5559 65.676 68.3408 65.4117 68.2058L63.3755 67.1694L65.6255 66.8108C65.9187 66.7643 66.1896 66.6262 66.3995 66.4163C66.6095 66.2064 66.7476 65.9355 66.7941 65.6423L67.1513 63.3923L68.1891 65.4285C68.324 65.6928 68.5391 65.9077 68.8036 66.0423C69.068 66.1769 69.3683 66.2244 69.6614 66.178L71.9114 65.8209L70.3125 67.4198C70.1033 67.629 69.9654 67.8988 69.9184 68.1909C69.8715 68.4831 69.9178 68.7825 70.0509 69.0468Z" fill="black"/>
<path d="M82.9688 40.7812C82.1344 40.7812 81.3187 41.0286 80.6249 41.4922C79.9312 41.9557 79.3904 42.6146 79.0711 43.3855C78.7518 44.1564 78.6683 45.0046 78.8311 45.823C78.9938 46.6413 79.3956 47.393 79.9856 47.983C80.5757 48.5731 81.3274 48.9749 82.1457 49.1376C82.9641 49.3004 83.8123 49.2169 84.5832 48.8976C85.3541 48.5783 86.013 48.0375 86.4765 47.3438C86.9401 46.65 87.1875 45.8343 87.1875 44.9999C87.1875 43.8811 86.743 42.808 85.9519 42.0168C85.1607 41.2257 84.0876 40.7812 82.9688 40.7812ZM82.9688 46.4062C82.6906 46.4062 82.4187 46.3237 82.1875 46.1692C81.9562 46.0147 81.776 45.795 81.6696 45.5381C81.5631 45.2811 81.5353 44.9984 81.5895 44.7256C81.6438 44.4528 81.7777 44.2022 81.9744 44.0056C82.1711 43.8089 82.4216 43.675 82.6944 43.6207C82.9672 43.5665 83.2499 43.5943 83.5069 43.7007C83.7639 43.8072 83.9835 43.9874 84.138 44.2187C84.2925 44.4499 84.375 44.7218 84.375 44.9999C84.375 45.3729 84.2269 45.7306 83.9631 45.9943C83.6994 46.258 83.3417 46.4062 82.9688 46.4062Z" fill="black"/>
<path d="M60.9103 27.1012L52.9551 35.0563C52.8208 35.1861 52.7137 35.3412 52.64 35.5128C52.5663 35.6844 52.5275 35.8689 52.5259 36.0556C52.5242 36.2423 52.5598 36.4275 52.6305 36.6003C52.7012 36.7732 52.8057 36.9302 52.9377 37.0622C53.0697 37.1942 53.2267 37.2987 53.3996 37.3694C53.5724 37.4401 53.7576 37.4757 53.9443 37.474C54.131 37.4724 54.3155 37.4336 54.4871 37.3599C54.6587 37.2862 54.8138 37.1791 54.9436 37.0448L62.8987 29.091C63.1626 28.8273 63.3109 28.4696 63.311 28.0966C63.3112 27.7236 63.1631 27.3658 62.8994 27.1019C62.6357 26.838 62.278 26.6897 61.905 26.6896C61.532 26.6894 61.1742 26.8375 60.9103 27.1012Z" fill="black"/>
<path d="M48.9783 42.4294C49.3512 42.4293 49.7088 42.2811 49.9725 42.0173L51.9609 40.0289C52.2171 39.7637 52.3588 39.4084 52.3556 39.0397C52.3524 38.671 52.2045 38.3183 51.9438 38.0576C51.6831 37.7968 51.3304 37.6489 50.9617 37.6457C50.5929 37.6425 50.2377 37.7843 49.9725 38.0404L47.9841 40.0289C47.7875 40.2255 47.6536 40.4761 47.5993 40.7488C47.5451 41.0216 47.5729 41.3043 47.6794 41.5612C47.7858 41.8181 47.966 42.0377 48.1972 42.1923C48.4284 42.3468 48.7002 42.4293 48.9783 42.4294Z" fill="black"/>
<path d="M56.25 44.9999C56.25 45.3729 56.3982 45.7306 56.6619 45.9943C56.9256 46.258 57.2833 46.4062 57.6562 46.4062H68.9062C69.2792 46.4062 69.6369 46.258 69.9006 45.9943C70.1643 45.7306 70.3125 45.3729 70.3125 44.9999C70.3125 44.627 70.1643 44.2693 69.9006 44.0056C69.6369 43.7418 69.2792 43.5937 68.9062 43.5937H57.6562C57.2833 43.5937 56.9256 43.7418 56.6619 44.0056C56.3982 44.2693 56.25 44.627 56.25 44.9999Z" fill="black"/>
<path d="M50.625 46.4062H53.4375C53.8105 46.4062 54.1681 46.258 54.4319 45.9943C54.6956 45.7306 54.8438 45.3729 54.8438 44.9999C54.8438 44.627 54.6956 44.2693 54.4319 44.0056C54.1681 43.7418 53.8105 43.5937 53.4375 43.5937H50.625C50.252 43.5937 49.8944 43.7418 49.6306 44.0056C49.3669 44.2693 49.2188 44.627 49.2188 44.9999C49.2188 45.3729 49.3669 45.7306 49.6306 45.9943C49.8944 46.258 50.252 46.4062 50.625 46.4062Z" fill="black"/>
<path d="M61.9045 63.3107C62.1829 63.311 62.4551 63.2286 62.6866 63.074C62.9181 62.9194 63.0985 62.6995 63.205 62.4423C63.3114 62.1851 63.3392 61.9021 63.2847 61.6291C63.2302 61.3561 63.0958 61.1055 62.8988 60.9089L54.9436 52.9551C54.6784 52.699 54.3232 52.5572 53.9545 52.5604C53.5857 52.5636 53.233 52.7115 52.9723 52.9722C52.7116 53.233 52.5637 53.5857 52.5605 53.9544C52.5573 54.3231 52.699 54.6783 52.9552 54.9435L60.9103 62.8987C61.174 63.1624 61.5316 63.3107 61.9045 63.3107Z" fill="black"/>
<path d="M49.9725 47.9826C49.7073 47.7264 49.352 47.5847 48.9833 47.5879C48.6146 47.5911 48.2619 47.739 48.0012 47.9997C47.7404 48.2604 47.5926 48.6131 47.5893 48.9819C47.5861 49.3506 47.7279 49.7058 47.984 49.971L49.9725 51.9595C50.2377 52.2156 50.5929 52.3574 50.9616 52.3542C51.3303 52.3509 51.6831 52.2031 51.9438 51.9423C52.2045 51.6816 52.3524 51.3289 52.3556 50.9602C52.3588 50.5915 52.2171 50.2362 51.9609 49.971L49.9725 47.9826Z" fill="black"/>
<path d="M75.9375 46.4062C76.3105 46.4062 76.6681 46.258 76.9319 45.9943C77.1956 45.7306 77.3438 45.3729 77.3438 44.9999C77.3438 44.627 77.1956 44.2693 76.9319 44.0056C76.6681 43.7418 76.3105 43.5937 75.9375 43.5937H73.125C72.752 43.5937 72.3944 43.7418 72.1306 44.0056C71.8669 44.2693 71.7188 44.627 71.7188 44.9999C71.7188 45.3729 71.8669 45.7306 72.1306 45.9943C72.3944 46.258 72.752 46.4062 73.125 46.4062H75.9375Z" fill="black"/>
<path d="M45 71.7187C44.627 71.7187 44.2694 71.8668 44.0056 72.1306C43.7419 72.3943 43.5938 72.752 43.5938 73.1249V75.9374C43.5938 76.3104 43.7419 76.6681 44.0056 76.9318C44.2694 77.1955 44.627 77.3437 45 77.3437C45.373 77.3437 45.7306 77.1955 45.9944 76.9318C46.2581 76.6681 46.4062 76.3104 46.4062 75.9374V73.1249C46.4062 72.752 46.2581 72.3943 45.9944 72.1306C45.7306 71.8668 45.373 71.7187 45 71.7187Z" fill="black"/>
</svg>
