<svg width="90" height="90" viewBox="0 0 90 90" fill="none" xmlns="http://www.w3.org/2000/svg">
<path d="M61.875 9.84375C75.0797 9.84375 85.7812 24.3281 85.7812 42.1875C85.7812 60.0469 75.0797 74.5312 61.875 74.5312C56.6914 74.4327 51.7513 72.3134 48.1078 68.625C59.85 66.5719 68.9062 53.0016 68.9062 36.5625C68.9062 25.6359 64.8984 15.9891 58.7672 10.125C59.7927 9.93887 60.8328 9.84475 61.875 9.84375Z" fill="#FB3006"/>
<path d="M64.6875 74.5312L67.5 80.1562H61.875H56.25L59.0625 74.5312H61.875H64.6875Z" fill="white"/>
<path d="M58.7672 10.125C64.8984 15.9891 68.9062 25.6359 68.9062 36.5625C68.9062 53.0016 59.85 66.5719 48.1078 68.625C46.0529 69 43.9471 69 41.8922 68.625C30.15 66.5719 21.0938 53.0016 21.0938 36.5625C21.0938 25.6359 25.1016 15.9891 31.2328 10.125C34.8763 6.43663 39.8164 4.31729 45 4.21875C50.1836 4.31729 55.1237 6.43663 58.7672 10.125ZM48.3047 39.0375L53.6625 35.1562H47.0391L45 28.8703L42.9609 35.1562H36.3375L41.6953 39.0375L39.6563 45.3375L45 41.4422L50.3437 45.3375L48.3047 39.0375Z" fill="white"/>
<path d="M53.6625 35.1563L48.3047 39.0375L50.3437 45.3375L45 41.4422L39.6563 45.3375L41.6953 39.0375L36.3375 35.1563H42.9609L45 28.8703L47.0391 35.1563H53.6625Z" fill="white"/>
<path d="M45.9422 74.5312H39.375L42.1875 68.9062H45H47.8125L50.625 74.5312H45.9422Z" fill="#FB3006"/>
<path d="M41.8922 68.625C38.2487 72.3134 33.3086 74.4327 28.125 74.5312C14.9203 74.5312 4.21875 60.0469 4.21875 42.1875C4.21875 24.3281 14.9203 9.84375 28.125 9.84375C29.1672 9.84475 30.2073 9.93887 31.2328 10.125C25.1016 15.9891 21.0938 25.6359 21.0938 36.5625C21.0938 53.0016 30.15 66.5719 41.8922 68.625Z" fill="#FB3006"/>
<path d="M30.9375 74.5312L33.75 80.1562H28.125H22.5L25.3125 74.5312H28.125H30.9375Z" fill="white"/>
<path d="M40.0402 39.5803L38.3133 44.8973C38.2215 45.1798 38.2215 45.4841 38.3132 45.7666C38.405 46.049 38.5839 46.2952 38.8242 46.4698C39.0645 46.6443 39.3539 46.7383 39.6509 46.7383C39.9479 46.7383 40.2373 46.6442 40.4775 46.4695L45 43.1831L49.5225 46.4695C49.7628 46.6442 50.0521 46.7383 50.3491 46.7383C50.6462 46.7383 50.9356 46.6443 51.1759 46.4698C51.4162 46.2952 51.595 46.049 51.6868 45.7666C51.7786 45.4841 51.7785 45.1798 51.6867 44.8973L49.9599 39.5803L54.4824 36.2939C54.7226 36.1193 54.9015 35.8732 54.9932 35.5907C55.085 35.3083 55.0849 35.004 54.9931 34.7215C54.9013 34.4391 54.7225 34.193 54.4822 34.0184C54.2419 33.8439 53.9525 33.7499 53.6555 33.75H48.0656L46.3374 28.433C46.2449 28.1516 46.0659 27.9067 45.8261 27.733C45.5862 27.5593 45.2976 27.4658 45.0014 27.4658C44.7053 27.4658 44.4167 27.5593 44.1768 27.733C43.9369 27.9067 43.7579 28.1516 43.6655 28.433L41.9344 33.75H36.3445C36.0475 33.7499 35.7582 33.8439 35.5179 34.0184C35.2776 34.193 35.0987 34.4391 35.0069 34.7215C34.9151 35.004 34.9151 35.3083 35.0068 35.5907C35.0986 35.8732 35.2774 36.1193 35.5177 36.2939L40.0402 39.5803ZM42.9567 36.5625C43.2537 36.5625 43.543 36.4685 43.7833 36.2939C44.0235 36.1193 44.2023 35.8732 44.2941 35.5908L44.9972 33.4181L45.7003 35.5908C45.7921 35.8732 45.9709 36.1193 46.2111 36.2939C46.4514 36.4685 46.7407 36.5625 47.0377 36.5625H49.3228L47.4736 37.9055C47.2334 38.0801 47.0547 38.3262 46.963 38.6086C46.8713 38.8911 46.8713 39.1953 46.9631 39.4777L47.6663 41.6503L45.8184 40.3073C45.5781 40.1327 45.2887 40.0386 44.9916 40.0386C44.6945 40.0386 44.405 40.1327 44.1647 40.3073L42.3169 41.6503L43.02 39.4777C43.1118 39.1953 43.1119 38.8911 43.0202 38.6086C42.9285 38.3262 42.7497 38.0801 42.5095 37.9055L40.6716 36.5625H42.9567Z" fill="black"/>
<path d="M45 61.875C35.8594 61.875 28.125 50.2833 28.125 36.5625C28.125 36.1895 27.9768 35.8319 27.7131 35.5681C27.4494 35.3044 27.0917 35.1562 26.7188 35.1562C26.3458 35.1562 25.9881 35.3044 25.7244 35.5681C25.4607 35.8319 25.3125 36.1895 25.3125 36.5625C25.3125 51.8077 34.328 64.6875 45 64.6875C45.373 64.6875 45.7306 64.5393 45.9944 64.2756C46.2581 64.0119 46.4062 63.6542 46.4062 63.2812C46.4062 62.9083 46.2581 62.5506 45.9944 62.2869C45.7306 62.0232 45.373 61.875 45 61.875Z" fill="black"/>
<path d="M45 11.25C54.1477 11.25 61.875 22.8417 61.875 36.5625C61.875 36.9355 62.0232 37.2931 62.2869 37.5569C62.5506 37.8206 62.9083 37.9688 63.2812 37.9688C63.6542 37.9688 64.0119 37.8206 64.2756 37.5569C64.5393 37.2931 64.6875 36.9355 64.6875 36.5625C64.6875 21.3173 55.672 8.4375 45 8.4375C44.627 8.4375 44.2694 8.58566 44.0056 8.84938C43.7419 9.1131 43.5938 9.47079 43.5938 9.84375C43.5938 10.2167 43.7419 10.5744 44.0056 10.8381C44.2694 11.1018 44.627 11.25 45 11.25Z" fill="black"/>
<path d="M29.5312 68.9062C29.5312 68.5333 29.3831 68.1756 29.1194 67.9119C28.8556 67.6482 28.498 67.5 28.125 67.5C18.9844 67.5 11.25 55.9083 11.25 42.1875C11.25 41.8145 11.1018 41.4569 10.8381 41.1931C10.5744 40.9294 10.2167 40.7812 9.84375 40.7812C9.47079 40.7812 9.1131 40.9294 8.84938 41.1931C8.58566 41.4569 8.4375 41.8145 8.4375 42.1875C8.4375 57.4327 17.453 70.3125 28.125 70.3125C28.498 70.3125 28.8556 70.1643 29.1194 69.9006C29.3831 69.6369 29.5312 69.2792 29.5312 68.9062Z" fill="black"/>
<path d="M87.1875 42.1875C87.1875 23.5786 75.832 8.4375 61.875 8.4375C60.9805 8.44426 60.0877 8.51428 59.2031 8.64703C55.371 4.98514 50.2997 2.90187 45 2.8125C39.7003 2.90187 34.629 4.98514 30.7969 8.64703C29.9123 8.51428 29.0195 8.44426 28.125 8.4375C14.168 8.4375 2.8125 23.5786 2.8125 42.1875C2.8125 58.6167 11.6719 72.3347 23.3438 75.3258L21.2428 79.5277C21.1357 79.742 21.0851 79.9802 21.0959 80.2195C21.1067 80.4589 21.1785 80.6915 21.3044 80.8954C21.4304 81.0992 21.6063 81.2675 21.8155 81.3843C22.0248 81.501 22.2604 81.5624 22.5 81.5625H27.5991C27.9984 81.9253 28.125 82.1334 28.125 82.4906C28.125 82.9673 27.9042 83.1937 27.2236 83.7562C26.6546 84.1344 26.1842 84.6431 25.8518 85.24C25.5193 85.8369 25.3344 86.5046 25.3125 87.1875H28.125C28.125 86.7108 28.3458 86.4844 29.0264 85.9219C29.5951 85.5434 30.0652 85.0346 30.3976 84.4378C30.73 83.841 30.9151 83.1734 30.9375 82.4906C30.9356 82.1774 30.895 81.8657 30.8166 81.5625H33.75C33.9897 81.5626 34.2255 81.5014 34.4349 81.3848C34.6444 81.2681 34.8205 81.0999 34.9466 80.896C35.0727 80.6921 35.1446 80.4594 35.1555 80.2199C35.1663 79.9804 35.1158 79.7421 35.0086 79.5277L32.8992 75.3173C34.9162 74.8 36.8441 73.9828 38.6184 72.893L38.1136 73.9027C38.0063 74.1173 37.9558 74.3559 37.9668 74.5956C37.9777 74.8353 38.0499 75.0682 38.1763 75.2722C38.3027 75.4761 38.4793 75.6443 38.6891 75.7608C38.8989 75.8773 39.135 75.9381 39.375 75.9375H42.6825C42.3516 76.5048 42.1806 77.1511 42.1875 77.8078C42.2105 78.4898 42.396 79.1565 42.7286 79.7524C43.0613 80.3482 43.5315 80.856 44.1 81.2334C44.7806 81.7959 45 82.0238 45 82.4991C45 82.9744 44.7806 83.2022 44.1 83.7647C43.5318 84.1419 43.0619 84.6492 42.7293 85.2445C42.3966 85.8398 42.2109 86.506 42.1875 87.1875H45C45 86.7136 45.2194 86.4844 45.9 85.9219C46.4845 85.5614 46.967 85.0574 47.3017 84.4578C47.6364 83.8582 47.8121 83.1829 47.8121 82.4963C47.8121 81.8096 47.6364 81.1343 47.3017 80.5347C46.967 79.9351 46.4845 79.4311 45.9 79.0706C45.218 78.5081 44.9986 78.2803 44.9986 77.805C44.9986 77.3536 45.1786 77.1427 45.8986 76.5394C46.1067 76.365 46.3444 76.1625 46.5806 75.9291H50.625C50.8653 75.9304 51.102 75.8701 51.3124 75.7539C51.5228 75.6378 51.6999 75.4696 51.8268 75.2655C51.9537 75.0615 52.0263 74.8283 52.0374 74.5882C52.0486 74.3481 51.9981 74.1092 51.8906 73.8942L51.3858 72.8845C53.1561 73.9763 55.0802 74.7963 57.0937 75.3173L54.9844 79.5277C54.8769 79.7426 54.8264 79.9816 54.8376 80.2216C54.8487 80.4617 54.9213 80.6949 55.0482 80.899C55.1751 81.1031 55.3522 81.2712 55.5626 81.3874C55.773 81.5035 56.0097 81.5638 56.25 81.5625H59.1834C59.105 81.8657 59.0644 82.1774 59.0625 82.4906C59.0849 83.1734 59.27 83.841 59.6024 84.4378C59.9348 85.0346 60.4049 85.5434 60.9736 85.9219C61.6542 86.4844 61.875 86.7136 61.875 87.1875H64.6875C64.6649 86.5054 64.4797 85.8385 64.1473 85.2424C63.8149 84.6463 63.3449 84.1382 62.7764 83.7605C62.0958 83.1909 61.875 82.9688 61.875 82.4906C61.875 82.1363 61.9973 81.9281 62.4009 81.5625H67.5C67.7403 81.5638 67.977 81.5035 68.1874 81.3874C68.3978 81.2712 68.5749 81.1031 68.7018 80.899C68.8287 80.6949 68.9013 80.4617 68.9124 80.2216C68.9236 79.9816 68.8731 79.7426 68.7656 79.5277L66.6563 75.3258C78.3352 72.3347 87.1875 58.6167 87.1875 42.1875ZM67.5 36.5625C67.5 53.6217 57.4059 67.5 45 67.5C32.5941 67.5 22.5 53.6217 22.5 36.5625C22.5 19.5033 32.5941 5.625 45 5.625C57.4059 5.625 67.5 19.5033 67.5 36.5625ZM5.625 42.1875C5.625 25.1283 15.7191 11.25 28.125 11.25C28.1756 11.25 28.2277 11.257 28.2783 11.257C22.5442 18.4284 19.5045 27.3824 19.6875 36.5625C19.6875 52.3645 27.8761 65.6606 38.8927 69.3127C35.8217 71.7355 32.0363 73.0757 28.125 73.125C15.7191 73.125 5.625 59.2467 5.625 42.1875ZM30.0684 75.9375L31.4747 78.75H24.7753L26.1816 75.9375H30.0684ZM47.8125 73.125H41.6503L43.0566 70.3125H46.9434L48.3497 73.125H47.8125ZM63.8184 75.9375L65.2247 78.75H58.5253L59.9316 75.9375H63.8184ZM61.875 73.125C57.9637 73.0757 54.1783 71.7355 51.1073 69.3127C62.1239 65.6606 70.3125 52.3645 70.3125 36.5625C70.4955 27.3824 67.4558 18.4284 61.7217 11.257C61.7723 11.257 61.8244 11.25 61.875 11.25C74.2809 11.25 84.375 25.1283 84.375 42.1875C84.375 59.2467 74.2809 73.125 61.875 73.125Z" fill="black"/>
<path d="M80.1562 40.7812C79.7833 40.7812 79.4256 40.9294 79.1619 41.1931C78.8982 41.4569 78.75 41.8145 78.75 42.1875C78.75 55.9083 71.0227 67.5 61.875 67.5C61.502 67.5 61.1444 67.6482 60.8806 67.9119C60.6169 68.1756 60.4688 68.5333 60.4688 68.9062C60.4688 69.2792 60.6169 69.6369 60.8806 69.9006C61.1444 70.1643 61.502 70.3125 61.875 70.3125C72.547 70.3125 81.5625 57.4327 81.5625 42.1875C81.5625 41.8145 81.4143 41.4569 81.1506 41.1931C80.8869 40.9294 80.5292 40.7812 80.1562 40.7812Z" fill="black"/>
</svg>
