<svg width="90" height="90" viewBox="0 0 90 90" fill="none" xmlns="http://www.w3.org/2000/svg">
<path d="M45 67.5V85.7812C37.1953 85.7812 30.375 78.4266 26.7328 67.5H45Z" fill="white"/>
<path d="M45 49.2188H66.0937C66.1359 55.4245 65.1816 61.5968 63.2672 67.5H45V49.2188ZM56.5031 59.5969L59.175 57.6562H55.8703L54.8437 54.5062L53.8172 57.6562H50.5125L53.1844 59.5969L52.1719 62.7469L54.8437 60.8063L57.5156 62.7469L56.5031 59.5969Z" fill="white"/>
<path d="M44.9999 30.9375V49.2188H23.9062C23.864 43.013 24.8184 36.8407 26.7327 30.9375H44.9999ZM36.8156 41.3156L39.4874 39.375H36.1827L35.1562 36.225L34.1296 39.375H30.8249L33.4968 41.3156L32.4843 44.4656L35.1562 42.525L37.8281 44.4656L36.8156 41.3156Z" fill="white"/>
<path d="M63.2672 30.9375H45V12.6562C52.8047 12.6562 59.625 20.0109 63.2672 30.9375Z" fill="white"/>
<path d="M84.4875 77.3438L81.8156 79.2844L82.8281 82.4344L80.1562 80.4938L77.4843 82.4344L78.4968 79.2844L75.825 77.3438H79.1296L80.1562 74.1937L81.1828 77.3438H84.4875Z" fill="white"/>
<path d="M83.0812 9.84374L80.4093 11.7844L81.4218 14.9344L78.75 12.9937L76.0781 14.9344L77.0906 11.7844L74.4187 9.84374H77.7234L78.75 6.69374L79.7765 9.84374H83.0812Z" fill="white"/>
<path d="M81.5624 49.2188H66.0937C66.1359 43.013 65.1815 36.8407 63.2672 30.9375H76.6546C79.8802 36.4893 81.5738 42.798 81.5624 49.2188Z" fill="white"/>
<path d="M66.0937 49.2188H81.5624C81.5738 55.6395 79.8802 61.9482 76.6546 67.5H63.2672C65.1815 61.5968 66.1359 55.4245 66.0937 49.2188Z" fill="white"/>
<path d="M76.6547 30.9375H63.2672C59.625 20.0109 52.8047 12.6563 45 12.6563C47.3221 12.654 49.639 12.8754 51.9187 13.3172C57.0639 14.3095 61.9355 16.3965 66.2034 19.4366C70.4713 22.4768 74.0356 26.3991 76.6547 30.9375Z" fill="white"/>
<path d="M63.2672 67.5H76.6547C73.4509 73.0608 68.8378 77.6787 63.2804 80.8882C57.723 84.0977 51.4176 85.7854 45 85.7812C52.8047 85.7812 59.625 78.4266 63.2672 67.5Z" fill="white"/>
<path d="M66.0937 49.2188H45V30.9375H63.2672C65.1816 36.8407 66.1359 43.013 66.0937 49.2188Z" fill="#FB3006"/>
<path d="M45 67.5H63.2672C59.625 78.4266 52.8047 85.7812 45 85.7812V67.5Z" fill="#FB3006"/>
<path d="M59.175 57.6562L56.5031 59.5969L57.5156 62.7469L54.8437 60.8063L52.1718 62.7469L53.1843 59.5969L50.5125 57.6562H53.8171L54.8437 54.5062L55.8703 57.6562H59.175Z" fill="white"/>
<path d="M52.0312 8.4375V12.6563L51.9187 13.3172C47.3483 12.4359 42.6517 12.4359 38.0812 13.3172L37.9688 12.6563V8.4375H52.0312Z" fill="#57565C"/>
<path d="M44.9999 49.2188V67.5H26.7327C24.8184 61.5968 23.864 55.4245 23.9062 49.2188H44.9999Z" fill="#FB3006"/>
<path d="M45 12.6562V30.9375H26.7328C30.375 20.0109 37.1953 12.6562 45 12.6562Z" fill="#FB3006"/>
<path d="M39.4875 39.375L36.8156 41.3156L37.8281 44.4656L35.1563 42.525L32.4844 44.4656L33.4969 41.3156L30.825 39.375H34.1297L35.1563 36.225L36.1828 39.375H39.4875Z" fill="white"/>
<path d="M38.0812 13.3172C40.3609 12.8754 42.6778 12.654 45 12.6563C37.1953 12.6563 30.375 20.0109 26.7328 30.9375H13.3453C15.9644 26.3991 19.5287 22.4768 23.7966 19.4366C28.0644 16.3965 32.9361 14.3095 38.0812 13.3172Z" fill="white"/>
<path d="M26.7328 67.5C30.375 78.4266 37.1953 85.7812 45 85.7812C38.5823 85.7854 32.277 84.0977 26.7196 80.8882C21.1621 77.6787 16.549 73.0608 13.3453 67.5H26.7328Z" fill="white"/>
<path d="M13.3452 30.9375H26.7327C24.8184 36.8407 23.864 43.013 23.9062 49.2188H8.43743C8.42607 42.798 10.1197 36.4893 13.3452 30.9375Z" fill="white"/>
<path d="M26.7327 67.5H13.3452C10.1197 61.9482 8.42607 55.6395 8.43743 49.2188H23.9062C23.864 55.4245 24.8184 61.5968 26.7327 67.5Z" fill="white"/>
<path d="M18.3938 12.6562L15.7219 14.5969L16.7344 17.7469L14.0625 15.8062L11.3906 17.7469L12.4031 14.5969L9.73126 12.6562H13.036L14.0625 9.50624L15.0891 12.6562H18.3938Z" fill="white"/>
<path d="M12.7688 80.1562L10.0969 82.0969L11.1094 85.2469L8.43751 83.3063L5.76564 85.2469L6.77814 82.0969L4.10626 80.1562H7.41095L8.43751 77.0062L9.46408 80.1562H12.7688Z" fill="white"/>
<path d="M78.7499 67.5C78.7464 67.2854 78.693 67.0745 78.5939 66.8841C81.467 61.439 82.9687 55.3753 82.9687 49.2188C82.9687 43.0622 81.467 36.9985 78.5939 31.5534C78.6996 31.3517 78.7533 31.1266 78.7498 30.8988C78.7464 30.671 78.686 30.4477 78.5742 30.2492C78.4623 30.0507 78.3026 29.8833 78.1096 29.7624C77.9165 29.6414 77.6963 29.5706 77.4689 29.5566C74.8258 25.2055 71.3374 21.4283 67.2098 18.4483C63.0823 15.4682 58.3992 13.3457 53.4375 12.2063V8.4375C53.4375 8.06454 53.2893 7.70685 53.0256 7.44313C52.7618 7.17941 52.4042 7.03125 52.0312 7.03125H46.4062V2.8125H43.5937V7.03125H37.9687C37.5957 7.03125 37.2381 7.17941 36.9743 7.44313C36.7106 7.70685 36.5625 8.06454 36.5625 8.4375V12.2063C31.6004 13.3456 26.9171 15.468 22.7893 18.448C18.6614 21.4281 15.1728 25.2053 12.5296 29.5566C12.3022 29.5706 12.082 29.6414 11.8889 29.7624C11.6959 29.8833 11.5362 30.0507 11.4243 30.2492C11.3125 30.4477 11.2521 30.671 11.2487 30.8988C11.2452 31.1266 11.2989 31.3517 11.4046 31.5534C8.53151 36.9985 7.02985 43.0622 7.02985 49.2188C7.02985 55.3753 8.53151 61.439 11.4046 66.8841C11.2989 67.0858 11.2452 67.3109 11.2487 67.5387C11.2521 67.7665 11.3125 67.9898 11.4243 68.1883C11.5362 68.3868 11.6959 68.5542 11.8889 68.6751C12.082 68.7961 12.3022 68.8669 12.5296 68.8809C15.9095 74.4682 20.6739 79.0888 26.3622 82.2959C32.0504 85.5029 38.4699 87.188 45 87.188C51.53 87.188 57.9495 85.5029 63.6377 82.2959C69.326 79.0888 74.0904 74.4682 77.4703 68.8809C77.8175 68.8521 78.1414 68.6945 78.3782 68.4389C78.615 68.1833 78.7476 67.8484 78.7499 67.5ZM9.87886 50.625H22.521C22.6136 55.8614 23.3976 61.0627 24.8526 66.0938H14.1651C11.5544 61.3403 10.0869 56.0442 9.87886 50.625ZM14.1693 32.3438H24.8568C23.4018 37.3748 22.6179 42.5761 22.5253 47.8125H9.87886C10.0882 42.393 11.5572 37.0968 14.1693 32.3438ZM80.1225 47.8125H67.4803C67.3877 42.5761 66.6037 37.3748 65.1487 32.3438H75.8362C78.4464 37.0973 79.9134 42.3935 80.121 47.8125H80.1225ZM64.6678 47.8125H46.4062V32.3438H62.2659C63.771 37.3657 64.5791 42.5706 64.6678 47.8125ZM46.4062 29.5312V14.1623C52.5937 14.947 58.0064 20.8561 61.3026 29.5312H46.4062ZM43.5937 14.1623V29.5312H28.6973C31.9935 20.8561 37.4062 14.947 43.5937 14.1623ZM43.5937 32.3438V47.8125H25.3321C25.4208 42.5706 26.2289 37.3657 27.734 32.3438H43.5937ZM25.3321 50.625H43.5937V66.0938H27.734C26.2289 61.0718 25.4208 55.8669 25.3321 50.625ZM43.5937 68.9062V84.2752C37.4062 83.4905 31.9935 77.5814 28.6973 68.9062H43.5937ZM46.4062 84.2752V68.9062H61.3026C58.0064 77.5814 52.5937 83.4905 46.4062 84.2752ZM46.4062 66.0938V50.625H64.6678C64.5791 55.8669 63.771 61.0718 62.2659 66.0938H46.4062ZM67.4789 50.625H80.121C79.9117 56.0445 78.4427 61.3407 75.8306 66.0938H65.1431C66.5995 61.0629 67.3849 55.8616 67.4789 50.625ZM74.1093 29.5312H64.2318C62.4977 24.2732 59.5091 19.5166 55.5243 15.6727C63.1023 18.0693 69.6502 22.9521 74.1093 29.5312ZM39.375 9.84375H50.625V11.6719C46.8958 11.1131 43.1041 11.1131 39.375 11.6719V9.84375ZM34.4756 15.6727C30.4908 19.5166 27.5022 24.2732 25.7681 29.5312H15.8906C20.3497 22.9521 26.8976 18.0693 34.4756 15.6727ZM15.8906 68.9062H25.7709C27.505 74.1643 30.4936 78.9209 34.4784 82.7648C26.8994 80.3687 20.3504 75.4859 15.8906 68.9062ZM55.5271 82.7648C59.5109 78.9206 62.4985 74.164 64.2318 68.9062H74.1093C69.6502 75.4854 63.1023 80.3682 55.5243 82.7648H55.5271Z" fill="black"/>
<path d="M75.4425 12.3244L74.7393 14.497C74.6471 14.7797 74.6469 15.0843 74.7387 15.3671C74.8305 15.6499 75.0095 15.8964 75.2501 16.0711C75.4907 16.2457 75.7805 16.3397 76.0778 16.3393C76.3752 16.339 76.6647 16.2444 76.905 16.0692L78.75 14.7262L80.5978 16.0692C80.838 16.2444 81.1276 16.339 81.4249 16.3393C81.7222 16.3397 82.012 16.2457 82.2526 16.0711C82.4932 15.8964 82.6723 15.6499 82.764 15.3671C82.8558 15.0843 82.8556 14.7797 82.7634 14.497L82.0603 12.3244L83.9081 10.9814C84.1485 10.8067 84.3275 10.5603 84.4192 10.2775C84.5108 9.9948 84.5106 9.69029 84.4184 9.4077C84.3263 9.12512 84.1469 8.87901 83.9062 8.7047C83.6654 8.53039 83.3756 8.43684 83.0784 8.4375H80.7932L80.0901 6.26484C79.9976 5.98349 79.8187 5.73852 79.5788 5.56486C79.3389 5.39119 79.0503 5.29769 78.7542 5.29769C78.458 5.29769 78.1694 5.39119 77.9295 5.56486C77.6897 5.73852 77.5107 5.98349 77.4183 6.26484L76.7067 8.4375H74.4215C74.1245 8.43744 73.8352 8.53141 73.5949 8.70594C73.3546 8.88047 73.1757 9.1266 73.0839 9.40904C72.9921 9.69149 72.9921 9.99575 73.0838 10.2782C73.1756 10.5607 73.3544 10.8068 73.5947 10.9814L75.4425 12.3244ZM78.75 10.8098C78.8704 10.9366 79.0135 11.0396 79.1718 11.1136C79.0878 11.266 79.0339 11.4331 79.0129 11.6058C78.841 11.5739 78.6646 11.5739 78.4926 11.6058C78.4704 11.4312 78.4146 11.2626 78.3281 11.1094C78.4861 11.0367 78.6292 10.9351 78.75 10.8098Z" fill="black"/>
<path d="M10.755 15.1369L10.0518 17.3095C9.95965 17.5922 9.95943 17.8968 10.0512 18.1796C10.143 18.4624 10.322 18.7089 10.5626 18.8836C10.8032 19.0582 11.093 19.1522 11.3904 19.1518C11.6877 19.1515 11.9773 19.0569 12.2175 18.8817L14.0625 17.5388L15.9103 18.8817C16.1505 19.0569 16.4401 19.1515 16.7374 19.1518C17.0347 19.1522 17.3245 19.0582 17.5651 18.8836C17.8057 18.7089 17.9848 18.4624 18.0766 18.1796C18.1683 17.8968 18.1681 17.5922 18.0759 17.3095L17.3728 15.1369L19.2206 13.7939C19.4611 13.6192 19.64 13.3728 19.7317 13.09C19.8234 12.8073 19.8231 12.5028 19.7309 12.2202C19.6388 11.9376 19.4594 11.6915 19.2187 11.5172C18.9779 11.3429 18.6881 11.2494 18.3909 11.25H16.1058L15.4026 9.07735C15.3102 8.796 15.1312 8.55103 14.8913 8.37736C14.6514 8.2037 14.3628 8.1102 14.0667 8.1102C13.7705 8.1102 13.4819 8.2037 13.2421 8.37736C13.0022 8.55103 12.8232 8.796 12.7308 9.07735L12.0192 11.25H9.73403C9.43704 11.2499 9.14766 11.3439 8.90736 11.5184C8.66707 11.693 8.4882 11.9391 8.39639 12.2215C8.30458 12.504 8.30456 12.8083 8.39631 13.0907C8.48807 13.3732 8.66689 13.6193 8.90716 13.7939L10.755 15.1369ZM14.0625 13.6223C14.1829 13.7491 14.326 13.8521 14.4843 13.9261C14.4003 14.0785 14.3464 14.2456 14.3254 14.4183C14.1535 14.3864 13.9771 14.3864 13.8051 14.4183C13.783 14.2437 13.7271 14.0751 13.6406 13.9219C13.7986 13.8492 13.9417 13.7476 14.0625 13.6223Z" fill="black"/>
<path d="M30.0009 40.5127L31.8487 41.8556L31.1456 44.0283C31.0534 44.311 31.0532 44.6156 31.1449 44.8984C31.2367 45.1812 31.4158 45.4276 31.6564 45.6023C31.897 45.777 32.1868 45.8709 32.4841 45.8706C32.7814 45.8702 33.071 45.7757 33.3112 45.6005L35.1562 44.2575L37.004 45.6005C37.2443 45.7757 37.5338 45.8702 37.8312 45.8706C38.1285 45.8709 38.4183 45.777 38.6589 45.6023C38.8995 45.4276 39.0785 45.1812 39.1703 44.8984C39.2621 44.6156 39.2619 44.311 39.1697 44.0283L38.4665 41.8556L40.3143 40.5127C40.5548 40.3379 40.7337 40.0915 40.8254 39.8088C40.9171 39.5261 40.9169 39.2215 40.8247 38.939C40.7325 38.6564 40.5532 38.4103 40.3124 38.236C40.0717 38.0616 39.7819 37.9681 39.4847 37.9688H37.1995L36.4964 35.7961C36.4039 35.5147 36.225 35.2698 35.9851 35.0961C35.7452 34.9224 35.4566 34.8289 35.1604 34.8289C34.8643 34.8289 34.5757 34.9224 34.3358 35.0961C34.0959 35.2698 33.917 35.5147 33.8245 35.7961L33.1129 37.9688H30.8278C30.5308 37.9687 30.2414 38.0627 30.0011 38.2372C29.7608 38.4117 29.5819 38.6579 29.4901 38.9403C29.3983 39.2227 29.3983 39.527 29.4901 39.8095C29.5818 40.0919 29.7606 40.3381 30.0009 40.5127ZM35.1562 40.3411C35.2766 40.4678 35.4197 40.5709 35.5781 40.6448C35.4941 40.7972 35.4402 40.9643 35.4192 41.137C35.2472 41.1052 35.0709 41.1052 34.8989 41.137C34.8779 40.9643 34.824 40.7972 34.74 40.6448C34.8963 40.5703 35.0375 40.4673 35.1562 40.3411Z" fill="black"/>
<path d="M60.5095 57.2217C60.4177 56.9393 60.2389 56.6932 59.9987 56.5186C59.7584 56.344 59.4691 56.25 59.1722 56.25H56.887L56.1839 54.0773C56.0914 53.796 55.9125 53.551 55.6726 53.3774C55.4327 53.2037 55.1441 53.1102 54.8479 53.1102C54.5518 53.1102 54.2632 53.2037 54.0233 53.3774C53.7834 53.551 53.6045 53.796 53.512 54.0773L52.8004 56.25H50.5153C50.2183 56.2499 49.9289 56.3439 49.6886 56.5184C49.4483 56.693 49.2694 56.9391 49.1776 57.2215C49.0858 57.504 49.0858 57.8083 49.1776 58.0907C49.2693 58.3732 49.4481 58.6193 49.6884 58.7939L51.5362 60.1369L50.8331 62.3095C50.7409 62.5922 50.7407 62.8968 50.8324 63.1796C50.9242 63.4624 51.1033 63.7089 51.3439 63.8836C51.5845 64.0582 51.8743 64.1522 52.1716 64.1518C52.4689 64.1515 52.7585 64.0569 52.9987 63.8817L54.8437 62.5387L56.6915 63.8817C56.9317 64.0569 57.2213 64.1515 57.5186 64.1518C57.816 64.1522 58.1058 64.0582 58.3464 63.8836C58.587 63.7089 58.766 63.4624 58.8578 63.1796C58.9496 62.8968 58.9493 62.5922 58.8572 62.3095L58.154 60.1369L60.0018 58.7939C60.2415 58.6189 60.4197 58.3726 60.5109 58.0902C60.6021 57.8078 60.6016 57.5038 60.5095 57.2217ZM55.1039 59.4183C54.9319 59.3864 54.7555 59.3864 54.5836 59.4183C54.5626 59.2456 54.5087 59.0785 54.4247 58.9261C54.583 58.8521 54.7261 58.7491 54.8465 58.6223C54.9669 58.7491 55.11 58.8521 55.2684 58.9261C55.1824 59.0781 55.1266 59.2452 55.1039 59.4183Z" fill="black"/>
<path d="M12.7659 78.75H10.4808L9.77763 76.5773C9.68515 76.296 9.50622 76.051 9.26633 75.8774C9.02644 75.7037 8.73784 75.6102 8.44169 75.6102C8.14554 75.6102 7.85694 75.7037 7.61705 75.8774C7.37716 76.051 7.19823 76.296 7.10575 76.5773L6.39419 78.75H4.10903C3.81204 78.7499 3.52266 78.8439 3.28236 79.0184C3.04207 79.193 2.8632 79.4391 2.77139 79.7216C2.67958 80.004 2.67956 80.3083 2.77131 80.5907C2.86307 80.8732 3.04189 81.1193 3.28216 81.2939L5.12997 82.6369L4.42685 84.8095C4.33465 85.0922 4.33443 85.3968 4.4262 85.6796C4.51797 85.9624 4.69703 86.2089 4.93763 86.3836C5.17824 86.5582 5.46803 86.6522 5.76535 86.6518C6.06268 86.6515 6.35225 86.5569 6.59247 86.3817L8.43747 85.0387L10.2853 86.3817C10.5255 86.5569 10.8151 86.6515 11.1124 86.6518C11.4097 86.6522 11.6995 86.5582 11.9401 86.3836C12.1807 86.2089 12.3598 85.9624 12.4516 85.6796C12.5433 85.3968 12.5431 85.0922 12.4509 84.8095L11.7478 82.6369L13.5956 81.2939C13.8361 81.1192 14.015 80.8728 14.1067 80.59C14.1984 80.3073 14.1981 80.0028 14.1059 79.7202C14.0138 79.4376 13.8344 79.1915 13.5937 79.0172C13.3529 78.8429 13.0631 78.7493 12.7659 78.75ZM8.69763 81.9183C8.52565 81.8864 8.34929 81.8864 8.17731 81.9183C8.15601 81.7439 8.10109 81.5753 8.0156 81.4219C8.17398 81.3479 8.31708 81.2449 8.43747 81.1181C8.55787 81.2449 8.70097 81.3479 8.85935 81.4219C8.77385 81.5753 8.71893 81.7439 8.69763 81.9183Z" fill="black"/>
<path d="M85.822 76.9092C85.7302 76.6268 85.5514 76.3807 85.3112 76.2061C85.0709 76.0315 84.7816 75.9375 84.4846 75.9375H82.1995L81.4964 73.7648C81.4039 73.4835 81.225 73.2385 80.9851 73.0649C80.7452 72.8912 80.4566 72.7977 80.1604 72.7977C79.8643 72.7977 79.5757 72.8912 79.3358 73.0649C79.0959 73.2385 78.917 73.4835 78.8245 73.7648L78.1129 75.9375H75.8278C75.5308 75.9374 75.2414 76.0314 75.0011 76.2059C74.7608 76.3805 74.5819 76.6266 74.4901 76.9091C74.3983 77.1915 74.3983 77.4958 74.4901 77.7782C74.5818 78.0607 74.7606 78.3068 75.0009 78.4814L76.8487 79.8244L76.1456 81.997C76.0534 82.2797 76.0532 82.5843 76.1449 82.8671C76.2367 83.1499 76.4158 83.3964 76.6564 83.5711C76.897 83.7457 77.1868 83.8397 77.4841 83.8393C77.7814 83.839 78.071 83.7444 78.3112 83.5692L80.1562 82.2262L82.004 83.5692C82.2442 83.7444 82.5338 83.839 82.8311 83.8393C83.1285 83.8397 83.4183 83.7457 83.6589 83.5711C83.8995 83.3964 84.0785 83.1499 84.1703 82.8671C84.2621 82.5843 84.2618 82.2797 84.1696 81.997L83.4665 79.8244L85.3143 78.4814C85.554 78.3064 85.7322 78.0601 85.8234 77.7777C85.9146 77.4953 85.9141 77.1913 85.822 76.9092ZM80.4164 79.1058C80.2444 79.0739 80.068 79.0739 79.8961 79.1058C79.8751 78.9331 79.8212 78.766 79.7372 78.6136C79.8955 78.5396 80.0386 78.4366 80.159 78.3098C80.2794 78.4366 80.4225 78.5396 80.5809 78.6136C80.4949 78.7656 80.4391 78.9327 80.4164 79.1058Z" fill="black"/>
</svg>
