<svg width="90" height="90" viewBox="0 0 90 90" fill="none" xmlns="http://www.w3.org/2000/svg">
<path d="M85.7812 35.1562L81.4359 62.0859C81.0245 61.9432 80.5917 61.8718 80.1562 61.875C79.6022 61.8722 79.0531 61.9786 78.5402 62.1881C78.0273 62.3975 77.5607 62.7059 77.167 63.0957C76.3718 63.8829 75.922 64.9538 75.9164 66.0727C75.9108 67.1915 76.3499 68.2668 77.1371 69.0619C77.9243 69.8571 78.9952 70.3069 80.1141 70.3125L78.75 78.75H11.25L9.88594 70.3125C10.44 70.3097 10.988 70.1979 11.4988 69.9833C12.0096 69.7687 12.4731 69.4556 12.8629 69.0619C13.2527 68.6682 13.5611 68.2016 13.7705 67.6887C13.98 67.1758 14.0864 66.6267 14.0836 66.0727C14.0808 65.5186 13.969 64.9706 13.7544 64.4598C13.5398 63.949 13.2267 63.4855 12.833 63.0957C12.4393 62.7059 11.9727 62.3975 11.4598 62.1881C10.9469 61.9786 10.3978 61.8722 9.84375 61.875C9.40828 61.8718 8.97547 61.9432 8.56406 62.0859L4.21875 35.1562L15.4688 54.8437L25.2984 29.5312L35.1422 54.8437L44.9859 16.875L54.8297 54.8437L64.6734 29.5312L74.5172 54.8437L85.7812 35.1562ZM66.0938 53.1984L70.0734 49.2187L66.0938 45.2391L62.1141 49.2187L66.0938 53.1984ZM68.9062 66.0937C68.9062 65.2594 68.6588 64.4437 68.1953 63.7499C67.7317 63.0562 67.0728 62.5154 66.3019 62.1961C65.5311 61.8768 64.6828 61.7933 63.8645 61.9561C63.0461 62.1188 62.2944 62.5206 61.7044 63.1106C61.1144 63.7006 60.7126 64.4524 60.5498 65.2707C60.387 66.0891 60.4706 66.9373 60.7899 67.7082C61.1092 68.4791 61.6499 69.1379 62.3437 69.6015C63.0375 70.0651 63.8531 70.3125 64.6875 70.3125C65.8064 70.3125 66.8794 69.868 67.6706 69.0769C68.4618 68.2857 68.9062 67.2126 68.9062 66.0937ZM48.3047 65.7562L53.6625 61.875H47.0391L45 55.5891L42.9609 61.875H36.3375L41.6953 65.7562L39.6562 72.0562L45 68.1609L50.3438 72.0562L48.3047 65.7562ZM45 50.3859L48.9797 46.4062L45 42.4266L41.0203 46.4062L45 50.3859ZM25.3125 53.1984L29.2922 49.2187L25.3125 45.2391L21.3328 49.2187L25.3125 53.1984ZM29.5312 66.0937C29.5312 65.2594 29.2838 64.4437 28.8203 63.7499C28.3567 63.0562 27.6978 62.5154 26.9269 62.1961C26.1561 61.8768 25.3078 61.7933 24.4895 61.9561C23.6711 62.1188 22.9194 62.5206 22.3294 63.1106C21.7394 63.7006 21.3376 64.4524 21.1748 65.2707C21.012 66.0891 21.0956 66.9373 21.4149 67.7082C21.7342 68.4791 22.2749 69.1379 22.9687 69.6015C23.6625 70.0651 24.4781 70.3125 25.3125 70.3125C26.4314 70.3125 27.5044 69.868 28.2956 69.0769C29.0868 68.2857 29.5312 67.2126 29.5312 66.0937Z" fill="#FB3006"/>
<path d="M82.2656 78.75C83.198 78.75 84.0922 79.1204 84.7515 79.7797C85.4109 80.439 85.7812 81.3332 85.7812 82.2656C85.7812 83.198 85.4109 84.0922 84.7515 84.7515C84.0922 85.4109 83.198 85.7812 82.2656 85.7812H7.73438C6.80197 85.7812 5.90776 85.4109 5.24845 84.7515C4.58915 84.0922 4.21875 83.198 4.21875 82.2656C4.21875 81.3332 4.58915 80.439 5.24845 79.7797C5.90776 79.1204 6.80197 78.75 7.73438 78.75H82.2656Z" fill="white"/>
<path d="M81.4359 62.0859L80.1141 70.3124C78.9952 70.3068 77.9243 69.857 77.1371 69.0619C76.3499 68.2667 75.9108 67.1915 75.9164 66.0726C75.922 64.9537 76.3718 63.8829 77.167 63.0956C77.9621 62.3084 79.0374 61.8693 80.1562 61.8749C80.5917 61.8717 81.0245 61.9431 81.4359 62.0859Z" fill="white"/>
<path d="M66.0934 45.2388L62.1139 49.2183L66.0934 53.1977L70.0729 49.2183L66.0934 45.2388Z" fill="white"/>
<path d="M64.6875 21.0937C65.8064 21.0937 66.8794 21.5382 67.6706 22.3293C68.4618 23.1205 68.9063 24.1936 68.9063 25.3124C68.9063 26.4313 68.4618 27.5044 67.6706 28.2956C66.8794 29.0867 65.8064 29.5312 64.6875 29.5312H64.6734C63.5546 29.5293 62.4822 29.0831 61.6924 28.2906C60.9025 27.4981 60.4599 26.4243 60.4617 25.3054C60.4636 24.1865 60.9099 23.1142 61.7023 22.3244C62.4948 21.5345 63.5686 21.0918 64.6875 21.0937Z" fill="white"/>
<path d="M64.6875 70.3125C67.0175 70.3125 68.9062 68.4237 68.9062 66.0937C68.9062 63.7638 67.0175 61.875 64.6875 61.875C62.3575 61.875 60.4688 63.7638 60.4688 66.0937C60.4688 68.4237 62.3575 70.3125 64.6875 70.3125Z" fill="white"/>
<path d="M53.6625 9.84362L48.3047 13.7249L50.3437 20.0249L45 16.1296L39.6563 20.0249L41.6953 13.7249L36.3375 9.84362H42.9609L45 3.55768L47.0391 9.84362H53.6625Z" fill="white"/>
<path d="M53.6625 61.875L48.3047 65.7562L50.3437 72.0562L45 68.1609L39.6563 72.0562L41.6953 65.7562L36.3375 61.875H42.9609L45 55.5891L47.0391 61.875H53.6625Z" fill="white"/>
<path d="M44.9999 42.4268L41.0205 46.4062L44.9999 50.3857L48.9794 46.4062L44.9999 42.4268Z" fill="white"/>
<path d="M25.312 45.239L21.3326 49.2185L25.312 53.198L29.2915 49.2185L25.312 45.239Z" fill="white"/>
<path d="M25.3125 21.0937C26.4314 21.0937 27.5044 21.5382 28.2956 22.3293C29.0868 23.1205 29.5313 24.1936 29.5313 25.3124C29.5313 26.4313 29.0868 27.5044 28.2956 28.2956C27.5044 29.0867 26.4314 29.5312 25.3125 29.5312H25.2984C24.1796 29.5293 23.1072 29.0831 22.3174 28.2906C21.5275 27.4981 21.0849 26.4243 21.0867 25.3054C21.0886 24.1865 21.5348 23.1142 22.3273 22.3244C23.1198 21.5345 24.1936 21.0918 25.3125 21.0937Z" fill="white"/>
<path d="M25.3125 70.3125C27.6425 70.3125 29.5312 68.4237 29.5312 66.0937C29.5312 63.7638 27.6425 61.875 25.3125 61.875C22.9825 61.875 21.0938 63.7638 21.0938 66.0937C21.0938 68.4237 22.9825 70.3125 25.3125 70.3125Z" fill="white"/>
<path d="M14.0625 66.0937C14.0626 67.2053 13.6239 68.272 12.8418 69.062C12.0597 69.8519 10.9975 70.3013 9.88594 70.3124L8.56406 62.0859C8.97547 61.9431 9.40828 61.8717 9.84375 61.8749C10.9626 61.8749 12.0357 62.3194 12.8269 63.1106C13.618 63.9017 14.0625 64.9748 14.0625 66.0937Z" fill="white"/>
<path d="M24.3183 54.1897C24.582 54.4534 24.9396 54.6015 25.3125 54.6015C25.6854 54.6015 26.043 54.4534 26.3067 54.1897L30.285 50.2129C30.5486 49.9492 30.6967 49.5915 30.6967 49.2186C30.6967 48.8458 30.5486 48.4881 30.285 48.2244L26.3067 44.2475C26.043 43.9839 25.6854 43.8358 25.3125 43.8358C24.9396 43.8358 24.582 43.9839 24.3183 44.2475L20.34 48.2244C20.0764 48.4881 19.9283 48.8458 19.9283 49.2186C19.9283 49.5915 20.0764 49.9492 20.34 50.2129L24.3183 54.1897ZM25.3125 47.2302L27.3009 49.2186L25.3125 51.2071L23.3241 49.2186L25.3125 47.2302Z" fill="black"/>
<path d="M44.0058 51.3772C44.2695 51.6409 44.6271 51.789 45 51.789C45.3729 51.789 45.7305 51.6409 45.9942 51.3772L49.9725 47.4004C50.2361 47.1367 50.3842 46.779 50.3842 46.4061C50.3842 46.0333 50.2361 45.6756 49.9725 45.4119L45.9942 41.435C45.7305 41.1714 45.3729 41.0233 45 41.0233C44.6271 41.0233 44.2695 41.1714 44.0058 41.435L40.0275 45.4119C39.7639 45.6756 39.6158 46.0333 39.6158 46.4061C39.6158 46.779 39.7639 47.1367 40.0275 47.4004L44.0058 51.3772ZM45 44.4177L46.9884 46.4061L45 48.3946L43.0116 46.4061L45 44.4177Z" fill="black"/>
<path d="M53.6555 60.4687H48.0656L46.3374 55.1531C46.2449 54.8717 46.0659 54.6267 45.8261 54.4531C45.5862 54.2794 45.2976 54.1859 45.0014 54.1859C44.7053 54.1859 44.4167 54.2794 44.1768 54.4531C43.9369 54.6267 43.758 54.8717 43.6655 55.1531L41.9344 60.4687H36.3445C36.0475 60.4686 35.7582 60.5626 35.5179 60.7371C35.2776 60.9117 35.0987 61.1578 35.0069 61.4402C34.9151 61.7227 34.9151 62.0269 35.0068 62.3094C35.0986 62.5919 35.2774 62.838 35.5177 63.0126L40.0402 66.299L38.3133 71.6174C38.2219 71.8998 38.2223 72.2038 38.3142 72.486C38.4062 72.7682 38.585 73.0141 38.8252 73.1884C39.0654 73.3627 39.3546 73.4566 39.6514 73.4565C39.9482 73.4565 40.2374 73.3626 40.4775 73.1882L45 69.9018L49.5225 73.1882C49.7627 73.3626 50.0518 73.4565 50.3486 73.4565C50.6454 73.4566 50.9346 73.3627 51.1748 73.1884C51.415 73.0141 51.5938 72.7682 51.6858 72.486C51.7778 72.2038 51.7781 71.8998 51.6867 71.6174L49.9599 66.299L54.4824 63.0126C54.7226 62.838 54.9015 62.5919 54.9932 62.3094C55.085 62.0269 55.0849 61.7227 54.9931 61.4402C54.9013 61.1578 54.7225 60.9117 54.4822 60.7371C54.2419 60.5626 53.9525 60.4686 53.6555 60.4687ZM46.9688 66.1949L47.6719 68.369L45.8241 67.026C45.5838 66.8513 45.2943 66.7572 44.9972 66.7572C44.7001 66.7572 44.4106 66.8513 44.1703 67.026L42.3225 68.369L43.0256 66.1949C43.1171 65.9127 43.117 65.6088 43.0253 65.3267C42.9336 65.0446 42.7551 64.7987 42.5152 64.6242L40.673 63.2812H42.9567C43.2537 63.2812 43.543 63.1871 43.7833 63.0126C44.0235 62.838 44.2023 62.5919 44.2941 62.3095L44.9972 60.1368L45.7003 62.3095C45.7921 62.5919 45.9709 62.838 46.2111 63.0126C46.4514 63.1871 46.7407 63.2812 47.0377 63.2812H49.3214L47.4736 64.6242C47.2347 64.7994 47.0573 65.0456 46.9666 65.3277C46.876 65.6098 46.8767 65.9133 46.9688 66.1949Z" fill="black"/>
<path d="M82.2656 77.3437H80.4009L87.1692 35.3798C87.2215 35.0547 87.1582 34.7217 86.9901 34.4386C86.8221 34.1554 86.5601 33.9403 86.2497 33.8305C85.9393 33.7207 85.6003 33.7233 85.2916 33.8379C84.983 33.9524 84.7243 34.1716 84.5606 34.4573L74.7605 51.5882L66.5916 30.5831C67.8365 30.135 68.8836 29.2623 69.5488 28.1186C70.214 26.9749 70.4548 25.6333 70.2288 24.3297C70.0028 23.026 69.3245 21.8437 68.3131 20.9907C67.3017 20.1376 66.022 19.6684 64.6989 19.6655C63.3758 19.6626 62.094 20.1262 61.0788 20.9748C60.0637 21.8233 59.3802 23.0026 59.1484 24.3053C58.9167 25.6079 59.1516 26.9506 59.8118 28.0972C60.4719 29.2438 61.5152 30.121 62.7581 30.5746L55.0983 50.2748L47.0911 19.3893L49.5225 21.157C49.7627 21.3313 50.0518 21.4253 50.3486 21.4253C50.6454 21.4253 50.9346 21.3315 51.1748 21.1571C51.415 20.9828 51.5938 20.737 51.6858 20.4548C51.7777 20.1726 51.7781 19.8686 51.6867 19.5862L49.9598 14.2677L54.4823 10.9813C54.7226 10.8068 54.9014 10.5606 54.9932 10.2781C55.0849 9.99569 55.0849 9.69143 54.9931 9.40898C54.9013 9.12654 54.7224 8.88041 54.4821 8.70588C54.2418 8.53135 53.9525 8.43738 53.6555 8.43744H48.0656L46.3373 3.12181C46.2449 2.84047 46.0659 2.5955 45.826 2.42183C45.5862 2.24816 45.2976 2.15466 45.0014 2.15466C44.7053 2.15466 44.4167 2.24816 44.1768 2.42183C43.9369 2.5955 43.7579 2.84047 43.6655 3.12181L41.9344 8.43744H36.3445C36.0475 8.43738 35.7582 8.53135 35.5179 8.70588C35.2776 8.88041 35.0987 9.12654 35.0069 9.40898C34.9151 9.69143 34.9151 9.99569 35.0068 10.2781C35.0986 10.5606 35.2774 10.8068 35.5177 10.9813L40.0402 14.2677L38.3133 19.5862C38.2219 19.8686 38.2223 20.1726 38.3142 20.4548C38.4062 20.737 38.585 20.9828 38.8252 21.1571C39.0654 21.3315 39.3546 21.4253 39.6514 21.4253C39.9482 21.4253 40.2373 21.3313 40.4775 21.157L42.8752 19.4146L34.875 50.2748L27.2166 30.5873C28.4614 30.1389 29.5084 29.2659 30.1733 28.122C30.8383 26.9781 31.0787 25.6363 30.8523 24.3327C30.6259 23.029 29.9472 21.8469 28.9354 20.9941C27.9237 20.1414 26.6437 19.6726 25.3206 19.6702C23.9974 19.6677 22.7157 20.1318 21.7009 20.9809C20.686 21.8299 20.003 23.0095 19.7718 24.3123C19.5406 25.6151 19.7761 26.9578 20.4368 28.1041C21.0976 29.2505 22.1413 30.1273 23.3845 30.5802L15.2283 51.5896L5.43937 34.4531C5.27571 34.1677 5.01717 33.9487 4.70873 33.8342C4.40029 33.7198 4.06148 33.7171 3.75126 33.8266C3.44103 33.9361 3.17903 34.151 3.01085 34.4337C2.84267 34.7165 2.77895 35.0493 2.83078 35.3742L9.59906 77.3437H7.73437C6.42901 77.3437 5.17711 77.8622 4.25408 78.7853C3.33105 79.7083 2.8125 80.9602 2.8125 82.2656C2.8125 83.5709 3.33105 84.8228 4.25408 85.7458C5.17711 86.6689 6.42901 87.1874 7.73437 87.1874H82.2656C83.571 87.1874 84.8229 86.6689 85.7459 85.7458C86.6689 84.8228 87.1875 83.5709 87.1875 82.2656C87.1875 80.9602 86.6689 79.7083 85.7459 78.7853C84.8229 77.8622 83.571 77.3437 82.2656 77.3437ZM78.9553 68.6432C78.4 68.3849 77.9442 67.9524 77.6571 67.4114C77.37 66.8704 77.2673 66.2505 77.3647 65.6459C77.4621 65.0412 77.7542 64.4849 78.1966 64.0614C78.639 63.6379 79.2076 63.3703 79.8159 63.2995L78.9553 68.6432ZM61.875 25.3124C61.875 24.7562 62.0399 24.2124 62.349 23.7499C62.658 23.2874 63.0973 22.9269 63.6112 22.714C64.1251 22.5012 64.6906 22.4455 65.2362 22.554C65.7818 22.6625 66.2829 22.9304 66.6762 23.3237C67.0696 23.717 67.3374 24.2182 67.446 24.7637C67.5545 25.3093 67.4988 25.8748 67.2859 26.3887C67.073 26.9027 66.7126 27.3419 66.25 27.6509C65.7875 27.96 65.2438 28.1249 64.6875 28.1249C63.9416 28.1249 63.2262 27.8286 62.6988 27.3012C62.1713 26.7737 61.875 26.0584 61.875 25.3124ZM42.5208 12.5929L40.673 11.2499H42.9567C43.2537 11.2499 43.543 11.1559 43.7832 10.9813C44.0235 10.8068 44.2023 10.5606 44.2941 10.2782L45 8.10556L45.7031 10.2782C45.795 10.5611 45.9743 10.8076 46.2151 10.9822C46.4559 11.1568 46.7458 11.2505 47.0433 11.2499H49.327L47.4792 12.5929C47.2393 12.7674 47.0608 13.0133 46.9691 13.2955C46.8774 13.5776 46.8773 13.8815 46.9688 14.1637L47.6719 16.3377L45.8241 14.9948C45.5837 14.8201 45.2943 14.726 44.9972 14.726C44.7001 14.726 44.4106 14.8201 44.1703 14.9948L42.3225 16.3377L43.0256 14.1637C43.1177 13.8821 43.1184 13.5786 43.0278 13.2965C42.9371 13.0144 42.7597 12.7682 42.5208 12.5929ZM22.5 25.3124C22.5 24.7562 22.665 24.2124 22.974 23.7499C23.283 23.2874 23.7223 22.9269 24.2362 22.714C24.7501 22.5012 25.3156 22.4455 25.8612 22.554C26.4068 22.6625 26.9079 22.9304 27.3012 23.3237C27.6946 23.717 27.9624 24.2182 28.071 24.7637C28.1795 25.3093 28.1238 25.8748 27.9109 26.3887C27.698 26.9027 27.3376 27.3419 26.875 27.6509C26.4125 27.96 25.8688 28.1249 25.3125 28.1249C24.5666 28.1249 23.8512 27.8286 23.3238 27.3012C22.7963 26.7737 22.5 26.0584 22.5 25.3124ZM10.1841 63.3023C10.7924 63.3732 11.361 63.6407 11.8034 64.0642C12.2458 64.4877 12.5379 65.044 12.6353 65.6487C12.7327 66.2533 12.63 66.8733 12.3429 67.4143C12.0558 67.9552 11.6 68.3877 11.0447 68.646L10.1841 63.3023ZM11.4947 71.4374C12.7806 71.0446 13.8825 70.2027 14.5995 69.0652C15.3165 67.9278 15.6009 66.5705 15.4007 65.2409C15.2006 63.9113 14.5293 62.6979 13.5093 61.8219C12.4892 60.9459 11.1883 60.4656 9.84375 60.4687C9.80438 60.4687 9.76641 60.4771 9.72703 60.4785L6.84141 42.5784L14.2481 55.5468C14.38 55.7773 14.5744 55.9658 14.8089 56.0904C15.0434 56.215 15.3084 56.2707 15.5732 56.2509C15.838 56.2312 16.0918 56.1369 16.3053 55.979C16.5187 55.821 16.6831 55.6059 16.7794 55.3584L25.2998 33.4209L33.8316 55.3584C33.9422 55.6337 34.1358 55.8678 34.3856 56.028C34.6353 56.1883 34.9288 56.2668 35.2252 56.2527C35.5219 56.2352 35.8055 56.1241 36.0351 55.9354C36.2648 55.7467 36.4287 55.49 36.5034 55.2023L44.9859 22.4774L53.4684 55.1967C53.5432 55.4846 53.7074 55.7414 53.9373 55.9302C54.1673 56.1189 54.4511 56.2299 54.7481 56.2471C55.0445 56.262 55.3381 56.1837 55.5877 56.0233C55.8374 55.863 56.0306 55.6285 56.1403 55.3527L64.6734 33.4152L70.0327 47.1965L67.088 44.2518C66.8243 43.9882 66.4666 43.8401 66.0938 43.8401C65.7209 43.8401 65.3632 43.9882 65.0995 44.2518L61.1213 48.2287C60.8576 48.4924 60.7095 48.85 60.7095 49.2229C60.7095 49.5958 60.8576 49.9534 61.1213 50.2171L65.0995 54.194C65.3632 54.4576 65.7209 54.6057 66.0938 54.6057C66.4666 54.6057 66.8243 54.4576 67.088 54.194L71.0662 50.2171C71.0984 50.1744 71.1279 50.1297 71.1548 50.0835L73.2066 55.357C73.3027 55.6045 73.4669 55.8198 73.6803 55.9779C73.8937 56.136 74.1475 56.2305 74.4123 56.2503C74.6771 56.2702 74.9422 56.2147 75.1767 56.0902C75.4113 55.9657 75.6059 55.7773 75.7378 55.5468L83.1614 42.5713L80.273 60.4785C80.2336 60.4785 80.1956 60.4687 80.1562 60.4687C78.8117 60.4656 77.5108 60.9459 76.4907 61.8219C75.4707 62.6979 74.7994 63.9113 74.5993 65.2409C74.3991 66.5705 74.6835 67.9278 75.4005 69.0652C76.1175 70.2027 77.2194 71.0446 78.5053 71.4374L77.5519 77.3437H12.4481L11.4947 71.4374ZM68.0822 49.2187L66.0938 51.2071L64.1053 49.2187L66.0938 47.2302L68.0822 49.2187ZM82.2656 84.3749H7.73437C7.17493 84.3749 6.63841 84.1527 6.24282 83.7571C5.84724 83.3615 5.625 82.825 5.625 82.2656C5.625 81.7061 5.84724 81.1696 6.24282 80.774C6.63841 80.3784 7.17493 80.1562 7.73437 80.1562H82.2656C82.8251 80.1562 83.3616 80.3784 83.7572 80.774C84.1528 81.1696 84.375 81.7061 84.375 82.2656C84.375 82.825 84.1528 83.3615 83.7572 83.7571C83.3616 84.1527 82.8251 84.3749 82.2656 84.3749Z" fill="black"/>
<path d="M25.3125 60.4688C24.2 60.4688 23.1124 60.7987 22.1874 61.4167C21.2624 62.0348 20.5414 62.9133 20.1157 63.9412C19.6899 64.969 19.5785 66.1 19.7956 67.1911C20.0126 68.2823 20.5484 69.2846 21.335 70.0712C22.1217 70.8579 23.124 71.3936 24.2151 71.6107C25.3063 71.8277 26.4373 71.7163 27.4651 71.2906C28.4929 70.8648 29.3714 70.1439 29.9895 69.2188C30.6076 68.2938 30.9375 67.2063 30.9375 66.0938C30.9375 64.6019 30.3449 63.1712 29.29 62.1163C28.2351 61.0614 26.8043 60.4688 25.3125 60.4688ZM25.3125 68.9063C24.7562 68.9063 24.2125 68.7413 23.75 68.4323C23.2874 68.1232 22.927 67.684 22.7141 67.1701C22.5012 66.6561 22.4455 66.0906 22.554 65.5451C22.6626 64.9995 22.9304 64.4983 23.3238 64.105C23.7171 63.7117 24.2182 63.4438 24.7638 63.3353C25.3094 63.2268 25.8749 63.2825 26.3888 63.4953C26.9027 63.7082 27.342 64.0687 27.651 64.5312C27.9601 64.9937 28.125 65.5375 28.125 66.0938C28.125 66.8397 27.8287 67.555 27.3012 68.0825C26.7738 68.6099 26.0584 68.9063 25.3125 68.9063Z" fill="black"/>
<path d="M64.6875 60.4688C63.575 60.4688 62.4874 60.7987 61.5624 61.4167C60.6374 62.0348 59.9164 62.9133 59.4907 63.9412C59.0649 64.969 58.9535 66.1 59.1706 67.1911C59.3876 68.2823 59.9234 69.2846 60.71 70.0712C61.4967 70.8579 62.499 71.3936 63.5901 71.6107C64.6813 71.8277 65.8123 71.7163 66.8401 71.2906C67.8679 70.8648 68.7464 70.1439 69.3645 69.2188C69.9826 68.2938 70.3125 67.2063 70.3125 66.0938C70.3125 64.6019 69.7199 63.1712 68.665 62.1163C67.6101 61.0614 66.1793 60.4688 64.6875 60.4688ZM64.6875 68.9063C64.1312 68.9063 63.5875 68.7413 63.125 68.4323C62.6624 68.1232 62.302 67.684 62.0891 67.1701C61.8762 66.6561 61.8205 66.0906 61.929 65.5451C62.0376 64.9995 62.3054 64.4983 62.6988 64.105C63.0921 63.7117 63.5932 63.4438 64.1388 63.3353C64.6844 63.2268 65.2499 63.2825 65.7638 63.4953C66.2777 63.7082 66.717 64.0687 67.026 64.5312C67.335 64.9937 67.5 65.5375 67.5 66.0938C67.5 66.8397 67.2037 67.555 66.6762 68.0825C66.1488 68.6099 65.4334 68.9063 64.6875 68.9063Z" fill="black"/>
</svg>
