<svg width="90" height="90" viewBox="0 0 90 90" fill="none" xmlns="http://www.w3.org/2000/svg">
<path d="M56.7562 54.9563L60.975 62.2688L53.6625 66.4875L45.1406 71.4094L41.4844 73.5188L37.2656 66.2063L56.7562 54.9563Z" fill="white"/>
<path d="M58.1344 51.7218C58.273 51.9618 58.363 52.2269 58.3992 52.5017C58.4354 52.7765 58.417 53.0558 58.3452 53.3235C58.2733 53.5913 58.1494 53.8422 57.9806 54.062C57.8117 54.2819 57.6011 54.4662 57.3609 54.6046L56.7562 54.9562L37.2656 66.2062L36.6609 66.5578C36.1761 66.8375 35.6 66.9131 35.0593 66.7681C34.5187 66.623 34.0578 66.2692 33.7781 65.7843C33.4984 65.2995 33.4227 64.7234 33.5678 64.1827C33.7128 63.6421 34.0667 63.1812 34.5516 62.9015L35.1562 62.5499L54.6469 51.2999L55.2516 50.9484C55.4916 50.8097 55.7566 50.7197 56.0314 50.6836C56.3063 50.6474 56.5855 50.6657 56.8533 50.7376C57.121 50.8094 57.372 50.9333 57.5918 51.1022C57.8116 51.2711 57.996 51.4816 58.1344 51.7218Z" fill="white"/>
<path d="M52.5375 47.6578L54.6469 51.3L35.1562 62.55L33.0469 58.9078L52.5375 47.6578Z" fill="#FB3006"/>
<path d="M53.9156 44.4235C54.1934 44.9088 54.268 45.4842 54.1231 46.0243C53.9782 46.5644 53.6256 47.0252 53.1422 47.3063L52.5375 47.6578L33.0469 58.9079L32.4422 59.2594C31.9565 59.5357 31.3816 59.6094 30.842 59.4646C30.3023 59.3199 29.8415 58.9682 29.5594 58.486C29.4194 58.2463 29.3283 57.9812 29.2915 57.7061C29.2546 57.431 29.2727 57.1513 29.3446 56.8832C29.4165 56.6151 29.5409 56.3639 29.7105 56.1442C29.8801 55.9245 30.0917 55.7406 30.3328 55.6032L30.9375 55.2516L50.4281 44.0016L51.0328 43.65C51.2728 43.5114 51.5378 43.4214 51.8127 43.3852C52.0875 43.3491 52.3668 43.3674 52.6345 43.4392C52.9023 43.5111 53.1532 43.635 53.373 43.8039C53.5928 43.9727 53.7772 44.1833 53.9156 44.4235Z" fill="white"/>
<path d="M45.1406 71.4094L51.4687 83.6719L47.8125 85.7813L41.4844 73.5188L45.1406 71.4094Z" fill="white"/>
<path d="M48.3188 40.3479L28.826 51.5939L30.9356 55.2505L50.4284 44.0045L48.3188 40.3479Z" fill="#FB3006"/>
<path d="M49.9219 9.84385L46.8844 12.0517L48.0375 15.6235L45 13.4157L41.9625 15.6235L43.1156 12.0517L40.0781 9.84385H43.8328L45 6.27197L46.1672 9.84385H49.9219Z" fill="white"/>
<path d="M49.6969 37.111C49.8355 37.351 49.9255 37.616 49.9617 37.8909C49.9979 38.1657 49.9795 38.445 49.9077 38.7127C49.8358 38.9804 49.7119 39.2314 49.5431 39.4512C49.3742 39.671 49.1636 39.8554 48.9234 39.9938L48.3187 40.3453L28.8281 51.5953L28.2234 51.9469C27.7386 52.2266 27.1625 52.3023 26.6218 52.1572C26.0812 52.0122 25.6203 51.6583 25.3406 51.1735C25.0609 50.6886 24.9852 50.1125 25.1303 49.5719C25.2753 49.0312 25.6292 48.5704 26.1141 48.2907L26.7187 47.9391L46.2094 36.6891L46.8141 36.3375C47.0541 36.1989 47.3191 36.1089 47.5939 36.0727C47.8688 36.0366 48.148 36.0549 48.4158 36.1267C48.6835 36.1986 48.9345 36.3225 49.1543 36.4914C49.3741 36.6602 49.5585 36.8708 49.6969 37.111Z" fill="white"/>
<path d="M44.0998 33.0354L24.6071 44.2814L26.7167 47.938L46.2095 36.692L44.0998 33.0354Z" fill="#FB3006"/>
<path d="M45.4781 29.7985C45.6168 30.0385 45.7068 30.3035 45.7429 30.5784C45.7791 30.8532 45.7608 31.1325 45.6889 31.4002C45.6171 31.6679 45.4932 31.9189 45.3243 32.1387C45.1554 32.3585 44.9449 32.5429 44.7047 32.6813L44.1 33.0329L24.6094 44.2829L24.0047 44.6344C23.7646 44.7729 23.4996 44.8628 23.2248 44.8989C22.95 44.935 22.6708 44.9166 22.4031 44.8447C22.1354 44.7729 21.8845 44.6491 21.6646 44.4803C21.4448 44.3115 21.2604 44.1011 21.1219 43.861C20.9834 43.6209 20.8935 43.3559 20.8574 43.0811C20.8213 42.8063 20.8397 42.5271 20.9115 42.2594C20.9834 41.9917 21.1072 41.7408 21.276 41.5209C21.4448 41.3011 21.6552 41.1167 21.8953 40.9782L22.5 40.6266L41.9906 29.3766L42.5953 29.025C43.0812 28.7499 43.6558 28.6768 44.1951 28.8215C44.7344 28.9662 45.1952 29.3171 45.4781 29.7985Z" fill="white"/>
<path d="M39.8813 25.7345L41.9906 29.3767L22.5 40.6267L20.3906 36.9845L39.8813 25.7345Z" fill="#FB3006"/>
<path d="M41.2594 22.5C41.398 22.74 41.488 23.0051 41.5242 23.2799C41.5604 23.5547 41.542 23.834 41.4702 24.1017C41.3983 24.3695 41.2744 24.6204 41.1056 24.8402C40.9367 25.0601 40.7261 25.2444 40.4859 25.3828L39.8812 25.7344L20.3906 36.9844L19.7859 37.336C19.3011 37.6157 18.725 37.6913 18.1843 37.5463C17.6437 37.4012 17.1828 37.0474 16.9031 36.5625C16.6234 36.0777 16.5477 35.5016 16.6928 34.9609C16.8378 34.4203 17.1917 33.9594 17.6766 33.6797L18.2812 33.3281L37.7719 22.0781L38.3766 21.7266C38.6166 21.5879 38.8816 21.4979 39.1564 21.4618C39.4313 21.4256 39.7105 21.4439 39.9783 21.5158C40.246 21.5876 40.497 21.7115 40.7168 21.8804C40.9366 22.0493 41.121 22.2598 41.2594 22.5Z" fill="white"/>
<path d="M35.6634 18.4241L16.1706 29.67L18.2802 33.3267L37.773 22.0807L35.6634 18.4241Z" fill="#FB3006"/>
<path d="M37.0406 15.1875C37.1793 15.4275 37.2693 15.6926 37.3054 15.9674C37.3416 16.2422 37.3233 16.5215 37.2514 16.7892C37.1796 17.057 37.0557 17.3079 36.8868 17.5277C36.7179 17.7476 36.5074 17.9319 36.2672 18.0703L35.6625 18.4219L16.1719 29.6719L15.5672 30.0235C15.0823 30.3032 14.5062 30.3788 13.9656 30.2338C13.425 30.0887 12.9641 29.7349 12.6844 29.25C12.4047 28.7652 12.329 28.1891 12.474 27.6484C12.6191 27.1078 12.973 26.6469 13.4578 26.3672L14.0625 26.0156L33.5531 14.7656L34.1578 14.4141C34.3978 14.2754 34.6629 14.1854 34.9377 14.1493C35.2125 14.1131 35.4918 14.1314 35.7595 14.2033C36.0273 14.2751 36.2782 14.399 36.498 14.5679C36.7179 14.7368 36.9022 14.9473 37.0406 15.1875Z" fill="white"/>
<path d="M34.0172 5.35786L29.6016 7.9313L29.3344 7.46724L9.84375 18.7172L10.1812 19.2938L5.16093 22.2329L13.9641 3.34692L34.0172 5.35786Z" fill="white"/>
<path d="M29.6016 7.93127L33.5531 14.7657L14.0625 26.0157L10.1812 19.2938L29.6016 7.93127Z" fill="#FB3006"/>
<path d="M18.9844 59.0626L15.9469 61.2704L17.1 64.8423L14.0625 62.6345L11.025 64.8423L12.1781 61.2704L9.14062 59.0626H12.8953L14.0625 55.4907L15.2297 59.0626H18.9844Z" fill="white"/>
<path d="M41.4661 12.5901L40.6223 15.1959C40.531 15.4783 40.5313 15.7823 40.6233 16.0645C40.7152 16.3467 40.8941 16.5925 41.1343 16.7669C41.3745 16.9412 41.6637 17.0351 41.9605 17.035C42.2572 17.035 42.5464 16.9411 42.7866 16.7667L45 15.158L47.2148 16.7667C47.455 16.9411 47.7442 17.035 48.041 17.035C48.3377 17.0351 48.6269 16.9412 48.8671 16.7669C49.1073 16.5925 49.2862 16.3467 49.3781 16.0645C49.4701 15.7823 49.4704 15.4783 49.3791 15.1959L48.5353 12.5901L50.7502 10.9814C50.9905 10.8068 51.1694 10.5605 51.2611 10.2779C51.3528 9.99527 51.3527 9.69088 51.2607 9.40837C51.1687 9.12586 50.9896 8.87974 50.7491 8.70532C50.5086 8.53089 50.219 8.43714 49.9219 8.43749H47.1839L46.3402 5.83312C46.2477 5.55177 46.0687 5.3068 45.8289 5.13313C45.589 4.95947 45.3004 4.86597 45.0042 4.86597C44.7081 4.86597 44.4195 4.95947 44.1796 5.13313C43.9397 5.3068 43.7608 5.55177 43.6683 5.83312L42.8161 8.43749H40.0781C39.7811 8.43743 39.4918 8.53141 39.2515 8.70594C39.0112 8.88047 38.8323 9.12659 38.7405 9.40904C38.6487 9.69148 38.6486 9.99574 38.7404 10.2782C38.8322 10.5607 39.011 10.8068 39.2513 10.9814L41.4661 12.5901ZM45 10.6355C45.1824 10.9062 45.4534 11.1051 45.7664 11.198C45.5672 11.4559 45.4639 11.775 45.4739 12.1008C45.1677 11.9902 44.8324 11.9902 44.5261 12.1008C44.5362 11.775 44.4328 11.4559 44.2336 11.198C44.5466 11.1051 44.8176 10.9062 45 10.6355Z" fill="black"/>
<path d="M59.4998 20.7057C59.77 20.9625 60.131 21.1015 60.5035 21.0923C60.8761 21.0831 61.2298 20.9263 61.4869 20.6565C64.1655 17.8352 67.36 15.5535 70.8975 13.9346C75.5307 11.8311 80.613 10.9088 85.6898 11.2501C86.0628 11.2743 86.4301 11.1494 86.711 10.9028C86.9918 10.6562 87.1632 10.3082 87.1875 9.93523C87.2117 9.56227 87.0868 9.19495 86.8402 8.91409C86.5937 8.63322 86.2456 8.46181 85.8726 8.43757C80.3308 8.0713 74.7844 9.08145 69.7275 11.378C65.8635 13.1443 62.3746 15.6364 59.4506 18.7187C59.1938 18.9888 59.0548 19.3498 59.064 19.7224C59.0733 20.0949 59.23 20.4486 59.4998 20.7057Z" fill="black"/>
<path d="M50.0625 23.7924C50.2321 23.8654 50.4145 23.9043 50.5991 23.9069C50.7838 23.9095 50.9672 23.8756 51.1387 23.8073C51.3103 23.739 51.4668 23.6376 51.5992 23.5089C51.7316 23.3801 51.8373 23.2265 51.9103 23.0569C53.6907 18.8923 56.4461 15.2167 59.9442 12.3399C61.9724 10.6911 64.2254 9.34015 66.6351 8.32782C66.979 8.18274 67.2512 7.907 67.3917 7.56126C67.5323 7.21552 67.5298 6.8281 67.3847 6.48423C67.2396 6.14036 66.9638 5.86821 66.6181 5.72764C66.2724 5.58708 65.8849 5.58962 65.5411 5.7347C62.8866 6.85316 60.4046 8.34321 58.1695 10.1602C54.3221 13.3202 51.2916 17.3597 49.3341 21.9375C49.2597 22.1071 49.2196 22.2897 49.216 22.4748C49.2124 22.6599 49.2454 22.8439 49.313 23.0162C49.3807 23.1886 49.4818 23.3458 49.6104 23.479C49.739 23.6122 49.8926 23.7187 50.0625 23.7924Z" fill="black"/>
<path d="M85.8726 32.3438C80.3311 31.9773 74.7848 32.9865 69.7275 35.2815C65.8635 37.0478 62.3746 39.5398 59.4506 42.6221C59.3161 42.7544 59.2096 42.9123 59.1374 43.0865C59.0652 43.2608 59.0288 43.4477 59.0303 43.6363C59.0319 43.8249 59.0713 44.0113 59.1464 44.1843C59.2214 44.3574 59.3305 44.5135 59.4671 44.6436C59.6037 44.7736 59.7651 44.8748 59.9416 44.9412C60.1182 45.0075 60.3063 45.0377 60.4947 45.0299C60.6831 45.0221 60.8681 44.9765 61.0385 44.8957C61.209 44.815 61.3614 44.7008 61.4869 44.5599C64.1655 41.7387 67.36 39.4569 70.8975 37.8381C75.5309 35.7355 80.6132 34.8142 85.6898 35.1563C86.0628 35.1806 86.4301 35.0557 86.711 34.8091C86.9918 34.5625 87.1632 34.2145 87.1875 33.8415C87.2117 33.4685 87.0868 33.1012 86.8402 32.8204C86.5937 32.5395 86.2456 32.3681 85.8726 32.3438Z" fill="black"/>
<path d="M79.6092 38.0785C76.9548 39.1969 74.4728 40.687 72.2376 42.5039C68.3881 45.6633 65.3557 49.7028 63.3966 54.2813C63.3187 54.4515 63.2757 54.6356 63.27 54.8228C63.2642 55.0099 63.2959 55.1963 63.3632 55.371C63.4304 55.5457 63.5319 55.7052 63.6616 55.8402C63.7913 55.9752 63.9466 56.0829 64.1185 56.1571C64.2904 56.2312 64.4754 56.2703 64.6626 56.272C64.8498 56.2738 65.0355 56.2381 65.2087 56.1671C65.3819 56.0961 65.5393 55.9913 65.6714 55.8587C65.8036 55.7261 65.908 55.5685 65.9784 55.395C67.7588 51.2304 70.5142 47.5549 74.0123 44.678C76.0405 43.0292 78.2935 41.6783 80.7033 40.666C81.0471 40.5209 81.3193 40.2451 81.4599 39.8994C81.6004 39.5537 81.5979 39.1662 81.4528 38.8224C81.3077 38.4785 81.032 38.2063 80.6862 38.0658C80.3405 37.9252 79.9531 37.9278 79.6092 38.0728V38.0785Z" fill="black"/>
<path d="M20.3217 58.628C20.23 58.3455 20.0511 58.0994 19.8109 57.9248C19.5707 57.7503 19.2813 57.6563 18.9844 57.6562H16.2464L15.4027 55.0519C15.3102 54.7705 15.1312 54.5255 14.8914 54.3519C14.6515 54.1782 14.3629 54.0847 14.0667 54.0847C13.7706 54.0847 13.482 54.1782 13.2421 54.3519C13.0022 54.5255 12.8233 54.7705 12.7308 55.0519L11.8786 57.6562H9.14063C8.84364 57.6562 8.55425 57.7502 8.31396 57.9247C8.07366 58.0992 7.89479 58.3453 7.80298 58.6278C7.71118 58.9102 7.71115 59.2145 7.8029 59.497C7.89466 59.7794 8.07349 60.0256 8.31375 60.2001L10.5286 61.8089L9.68485 64.4147C9.59349 64.697 9.59382 65.0011 9.68578 65.2833C9.77773 65.5654 9.95661 65.8113 10.1968 65.9856C10.437 66.1599 10.7262 66.2538 11.023 66.2538C11.3197 66.2538 11.6089 66.1598 11.8491 65.9855L14.0625 64.3767L16.2773 65.9855C16.5175 66.1598 16.8067 66.2538 17.1035 66.2538C17.4002 66.2538 17.6894 66.1599 17.9296 65.9856C18.1698 65.8113 18.3487 65.5654 18.4406 65.2833C18.5326 65.0011 18.5329 64.697 18.4416 64.4147L17.5978 61.8089L19.8127 60.2001C20.0526 60.0254 20.2311 59.7791 20.3225 59.4967C20.4139 59.2143 20.4137 58.9102 20.3217 58.628ZM14.5364 61.3125C14.2302 61.2019 13.8949 61.2019 13.5886 61.3125C13.5987 60.9867 13.4953 60.6676 13.2961 60.4097C13.6091 60.3168 13.8801 60.118 14.0625 59.8472C14.2449 60.118 14.5159 60.3168 14.8289 60.4097C14.6297 60.6676 14.5264 60.9867 14.5364 61.3125Z" fill="black"/>
<path d="M20.2725 70.4406C15.2154 68.1446 9.66917 67.1344 4.12734 67.5001C3.75438 67.5244 3.40633 67.6958 3.15975 67.9766C2.91316 68.2575 2.78826 68.6248 2.8125 68.9978C2.83674 69.3707 3.00815 69.7188 3.28901 69.9654C3.56988 70.2119 3.93719 70.3369 4.31015 70.3126C9.38723 69.9726 14.4694 70.8959 19.1025 73C22.64 74.6188 25.8345 76.9006 28.5131 79.7218C28.7733 79.9776 29.1227 80.1223 29.4876 80.1253C29.8524 80.1283 30.2042 79.9893 30.4685 79.7378C30.7328 79.4862 30.889 79.1418 30.9041 78.7773C30.9192 78.4127 30.792 78.0565 30.5494 77.784C27.6256 74.7007 24.1368 72.2077 20.2725 70.4406Z" fill="black"/>
<path d="M31.8248 69.2227C29.5897 67.4057 27.1077 65.9157 24.4533 64.7972C24.1094 64.6521 23.722 64.6496 23.3762 64.7901C23.0305 64.9307 22.7548 65.2029 22.6097 65.5467C22.4646 65.8906 22.4621 66.278 22.6026 66.6238C22.7432 66.9695 23.0153 67.2452 23.3592 67.3903C25.769 68.4027 28.022 69.7536 30.0502 71.4024C33.549 74.2808 36.3045 77.9584 38.0841 82.125C38.1545 82.2985 38.2589 82.4561 38.3911 82.5887C38.5232 82.7213 38.6805 82.8261 38.8538 82.8971C39.027 82.9681 39.2127 83.0037 39.3999 83.002C39.5871 83.0003 39.7721 82.9612 39.944 82.8871C40.1158 82.8129 40.2712 82.7052 40.4009 82.5702C40.5306 82.4352 40.6321 82.2757 40.6993 82.101C40.7666 81.9263 40.7983 81.7399 40.7925 81.5527C40.7868 81.3656 40.7438 81.1815 40.6659 81.0113C38.7084 76.4288 35.6758 72.3852 31.8248 69.2227Z" fill="black"/>
<path d="M68.8936 78.8007C68.6168 78.3203 68.2481 77.8992 67.8084 77.5614C67.3688 77.2237 66.8669 76.9759 66.3314 76.8322C65.7959 76.6885 65.2374 76.6518 64.6877 76.7242C64.1381 76.7965 63.608 76.9765 63.128 77.2538L59.4717 79.3632C59.2308 79.5023 58.9541 79.5669 58.6765 79.5487C58.3989 79.5305 58.133 79.4304 57.9123 79.2611C57.6916 79.0917 57.5261 78.8607 57.4367 78.5973C57.3473 78.3338 57.3381 78.0498 57.4102 77.7812C57.4574 77.6026 57.5397 77.4352 57.6522 77.2886C57.7647 77.1421 57.9052 77.0194 58.0655 76.9276L65.378 72.7088C66.3477 72.1494 67.0554 71.2276 67.3455 70.1464C67.6356 69.0651 67.4843 67.9129 66.9248 66.9432C66.6478 66.463 66.279 66.0422 65.8393 65.7046C65.3996 65.367 64.8978 65.1193 64.3624 64.9756C63.2811 64.6855 62.1289 64.8369 61.1592 65.3963L57.503 67.5057C57.343 67.5982 57.1663 67.6583 56.9831 67.6826C56.7999 67.7068 56.6136 67.6946 56.4351 67.6468C56.2566 67.599 56.0892 67.5165 55.9426 67.404C55.796 67.2914 55.673 67.1511 55.5806 66.991L61.6697 63.4754C61.8299 63.3831 61.9704 63.2602 62.0831 63.1137C62.1957 62.9671 62.2784 62.7998 62.3263 62.6212C62.3743 62.4427 62.3865 62.2564 62.3624 62.0731C62.3383 61.8898 62.2783 61.7131 62.1858 61.553L58.6406 55.4063C59.1164 54.9853 59.4692 54.4432 59.6614 53.8376C59.8537 53.2321 59.8783 52.5858 59.7326 51.9674C59.5869 51.349 59.2764 50.7817 58.834 50.3257C58.3917 49.8697 57.834 49.5421 57.2203 49.3777C56.5541 49.2005 55.8506 49.2225 55.1967 49.441L54.4219 48.1008C55.0286 47.5636 55.431 46.8332 55.5612 46.0334C55.6913 45.2335 55.5411 44.4133 55.136 43.7114C54.7309 43.0096 54.0958 42.4692 53.3381 42.1818C52.5804 41.8944 51.7466 41.8775 50.978 42.1341L50.2031 40.794C50.8107 40.257 51.214 39.5264 51.3447 38.7261C51.4753 37.9258 51.3253 37.1049 50.92 36.4026C50.5147 35.7002 49.8791 35.1596 49.1208 34.8722C48.3625 34.5849 47.5282 34.5685 46.7592 34.8258L45.9844 33.4857C46.5911 32.9484 46.9935 32.2181 47.1237 31.4182C47.2538 30.6184 47.1036 29.7981 46.6985 29.0963C46.2934 28.3944 45.6583 27.854 44.9006 27.5666C44.1429 27.2792 43.3091 27.2624 42.5405 27.519L41.7656 26.1788C42.3722 25.6416 42.7747 24.9114 42.9048 24.1116C43.035 23.3119 42.8849 22.4917 42.48 21.7899C42.0734 21.0894 41.4381 20.5502 40.6809 20.2629C39.9237 19.9756 39.0906 19.9576 38.3217 20.2121L37.5469 18.8719C38.152 18.334 38.5529 17.6036 38.6819 16.8042C38.8108 16.0048 38.6598 15.1854 38.2544 14.4845C37.8491 13.7835 37.2142 13.244 36.457 12.957C35.6999 12.67 34.8669 12.6532 34.0987 12.9094L31.5183 8.43755L34.7217 6.56724C34.9776 6.41775 35.1798 6.19123 35.2993 5.92001C35.4188 5.6488 35.4495 5.34676 35.3871 5.05703C35.3248 4.76729 35.1725 4.50467 34.9519 4.30666C34.7314 4.10865 34.454 3.98537 34.1592 3.95443L14.1019 1.9449C13.8118 1.91578 13.5198 1.97755 13.2664 2.12166C13.0129 2.26577 12.8105 2.48509 12.6872 2.74927L3.88687 21.6338C3.76016 21.9054 3.72356 22.2105 3.78242 22.5044C3.84127 22.7983 3.99249 23.0657 4.21403 23.2676C4.43556 23.4695 4.71582 23.5954 5.01391 23.6268C5.312 23.6582 5.61233 23.5935 5.87109 23.4422L9.66797 21.2218L12.1767 25.5671C11.701 25.9882 11.3482 26.5304 11.1561 27.136C10.9639 27.7416 10.9394 28.388 11.0852 29.0064C11.2311 29.6248 11.5418 30.1922 11.9843 30.6481C12.4268 31.104 12.9846 31.4315 13.5984 31.5957C13.8963 31.6746 14.203 31.7153 14.5111 31.7166C14.8863 31.7097 15.2577 31.6413 15.6108 31.5141L16.3955 32.8726C15.9193 33.2936 15.5663 33.8359 15.3739 34.4417C15.1814 35.0475 15.1568 35.6941 15.3027 36.3128C15.4486 36.9315 15.7594 37.499 16.2022 37.955C16.645 38.4111 17.2031 38.7385 17.8172 38.9026C18.1149 38.9822 18.4217 39.0228 18.7298 39.0235C19.1049 39.0163 19.4762 38.9484 19.8295 38.8224L20.6142 40.1794C20.1381 40.6005 19.785 41.1428 19.5926 41.7486C19.4002 42.3544 19.3756 43.001 19.5215 43.6197C19.6673 44.2383 19.9782 44.8059 20.4209 45.2619C20.8637 45.7179 21.4219 46.0454 22.0359 46.2094C22.3336 46.2891 22.6404 46.3297 22.9486 46.3304C23.3234 46.3217 23.6943 46.2524 24.0469 46.1251L24.8316 47.4835C24.3558 47.9045 24.003 48.4466 23.8108 49.0522C23.6185 49.6577 23.5939 50.304 23.7396 50.9224C23.8852 51.5408 24.1958 52.1081 24.6382 52.5641C25.0805 53.0201 25.6382 53.3477 26.2519 53.5121C26.5505 53.5917 26.8582 53.6324 27.1673 53.633C27.5416 53.6277 27.9125 53.5617 28.2656 53.4376L29.0503 54.796C28.4323 55.3266 28.0192 56.0565 27.8824 56.8595C27.7456 57.6624 27.8937 58.4879 28.3011 59.1933C28.7085 59.8986 29.3495 60.4394 30.1134 60.7221C30.8773 61.0048 31.7159 61.0117 32.4844 60.7416L33.2705 62.1015C32.7947 62.5226 32.442 63.0648 32.2498 63.6704C32.0576 64.276 32.0331 64.9224 32.179 65.5408C32.3248 66.1592 32.6355 66.7265 33.078 67.1825C33.5206 67.6384 34.0784 67.9659 34.6922 68.1301C34.9899 68.2097 35.2967 68.2503 35.6048 68.251C35.9799 68.2439 36.3512 68.1759 36.7045 68.0499L40.2553 74.1994L46.5623 86.4254C46.6497 86.5942 46.7704 86.7435 46.9171 86.8644C47.0638 86.9852 47.2335 87.0751 47.4159 87.1285C47.5448 87.1661 47.6782 87.186 47.8125 87.1876C48.0594 87.1879 48.302 87.1229 48.5156 86.9991L52.1719 84.8897C52.4848 84.7091 52.7162 84.4149 52.818 84.0683C52.9199 83.7216 52.8844 83.3491 52.7189 83.0279L47.0053 71.9537L53.1506 68.4057C53.7112 69.3741 54.6329 70.0808 55.7137 70.3708C56.7945 70.6608 57.9462 70.5104 58.9162 69.9526L62.5725 67.8432C62.7325 67.7494 62.9095 67.6882 63.0932 67.663C63.2769 67.6379 63.4638 67.6494 63.6431 67.6968C63.8224 67.7442 63.9906 67.8266 64.1379 67.9392C64.2852 68.0519 64.4088 68.1926 64.5015 68.3532C64.5943 68.5138 64.6543 68.6912 64.6782 68.8751C64.7021 69.059 64.6894 69.2458 64.6408 69.4248C64.5922 69.6038 64.5087 69.7714 64.3951 69.9179C64.2815 70.0645 64.14 70.1871 63.9787 70.2788L56.6733 74.4976C55.7036 75.057 54.9958 75.9787 54.7057 77.06C54.4156 78.1413 54.567 79.2935 55.1264 80.2632C55.6858 81.2329 56.6076 81.9406 57.6888 82.2307C58.7701 82.5208 59.9223 82.3695 60.892 81.8101L64.5483 79.7007C64.8713 79.5142 65.2551 79.4637 65.6153 79.5602C65.9756 79.6567 66.2827 79.8924 66.4692 80.2154L67.1723 81.4332C67.2647 81.5932 67.3876 81.7335 67.5342 81.846C67.6807 81.9585 67.848 82.041 68.0264 82.0889C68.2049 82.1367 68.391 82.149 68.5742 82.1249C68.7573 82.1008 68.934 82.0409 69.094 81.9486C69.254 81.8562 69.3943 81.7333 69.5068 81.5867C69.6193 81.4402 69.7018 81.2729 69.7497 81.0945C69.7975 80.9161 69.8098 80.7299 69.7857 80.5468C69.7616 80.3636 69.7017 80.187 69.6094 80.0269L68.8936 78.8007ZM52.7203 50.7896L35.6709 60.6333L34.9678 59.4169L52.0186 49.5732L52.7203 50.7896ZM48.5016 43.4771L31.4522 53.3208L30.7491 52.1044L47.7998 42.2607L48.5016 43.4771ZM44.2828 36.1646L27.2334 46.0083L26.5303 44.7905L43.5811 34.9468L44.2828 36.1646ZM39.3609 27.6399L40.0641 28.8563L23.0147 38.7001L22.3116 37.4836L39.3609 27.6399ZM35.8453 21.5494L18.7959 31.3932L18.0928 30.1768L35.1436 20.333L35.8453 21.5494ZM14.8148 4.84177L28.6664 6.23115C28.6537 6.23115 28.6383 6.23115 28.6256 6.2438L9.14062 17.4938C8.99578 17.5811 8.86807 17.694 8.76375 17.8271L14.8148 4.84177ZM8.48672 18.4374C8.47471 18.5137 8.46906 18.5908 8.46984 18.668L8.34469 18.7411L8.48672 18.4374ZM29.0967 9.85927L31.628 14.2538L14.5786 24.0976L12.0937 19.8015L29.0967 9.85927ZM13.8994 28.5469C13.8061 28.3854 13.7809 28.1935 13.8291 28.0134C13.8774 27.8333 13.9952 27.6797 14.1567 27.5865L14.7656 27.2349L34.8609 15.6333C34.9671 15.5711 35.088 15.5386 35.2111 15.5391C35.3655 15.5393 35.5156 15.5904 35.6381 15.6845C35.7607 15.7785 35.8488 15.9103 35.889 16.0594C35.9291 16.2085 35.9191 16.3667 35.8604 16.5096C35.8016 16.6524 35.6975 16.772 35.5641 16.8497L34.9552 17.2013L14.8612 28.8029C14.7813 28.8493 14.693 28.8795 14.6014 28.8918C14.5097 28.9041 14.4166 28.8982 14.3272 28.8744C14.2379 28.8506 14.1541 28.8095 14.0807 28.7533C14.0073 28.6971 13.9457 28.627 13.8994 28.5469ZM18.1181 35.8594C18.0717 35.7794 18.0416 35.691 18.0294 35.5993C18.0173 35.5076 18.0233 35.4144 18.0472 35.3251C18.0711 35.2357 18.1124 35.152 18.1687 35.0786C18.2251 35.0053 18.2953 34.9437 18.3755 34.8976L18.9844 34.5474L38.4694 23.2974L39.0755 22.9472C39.1823 22.8867 39.3029 22.8547 39.4256 22.8544C39.5806 22.8538 39.7315 22.9044 39.8548 22.9984C39.978 23.0924 40.0668 23.2246 40.1072 23.3742C40.1476 23.5239 40.1375 23.6827 40.0783 23.826C40.0191 23.9692 39.9142 24.0889 39.78 24.1665L39.1711 24.518L19.0772 36.1196C18.9155 36.2121 18.7236 36.2367 18.5438 36.188C18.364 36.1392 18.2109 36.021 18.1181 35.8594ZM22.3369 43.1719C22.2436 43.0104 22.2184 42.8185 22.2666 42.6384C22.3149 42.4583 22.4327 42.3047 22.5942 42.2115L23.2031 41.8599L43.2984 30.2583C43.4052 30.1961 43.5264 30.1631 43.65 30.1627C43.7108 30.1622 43.7714 30.1703 43.83 30.1866C43.9649 30.2221 44.0861 30.2969 44.1784 30.4014C44.2706 30.506 44.3297 30.6356 44.3481 30.7739C44.3665 30.9121 44.3433 31.0527 44.2816 31.1777C44.2199 31.3028 44.1224 31.4066 44.0016 31.4761L43.3927 31.8277L23.2987 43.4293C23.2182 43.4753 23.1294 43.505 23.0373 43.5165C22.9453 43.5281 22.8519 43.5213 22.7625 43.4966C22.6731 43.4719 22.5894 43.4297 22.5164 43.3726C22.4433 43.3154 22.3823 43.2443 22.3369 43.1635V43.1719ZM26.9775 50.8079C26.8427 50.7722 26.7216 50.6973 26.6295 50.5926C26.5374 50.488 26.4785 50.3583 26.4603 50.2201C26.4421 50.0819 26.4653 49.9414 26.5271 49.8165C26.5889 49.6915 26.6864 49.5877 26.8073 49.5183L27.4162 49.1668L47.5116 37.5652C47.6177 37.503 47.7387 37.4704 47.8617 37.471C47.9851 37.471 48.1064 37.5035 48.2133 37.5652C48.3202 37.6269 48.4089 37.7157 48.4706 37.8226C48.564 37.9839 48.5895 38.1757 48.5415 38.3558C48.4935 38.5359 48.3759 38.6895 48.2147 38.783L47.6058 39.1346L27.5119 50.7361C27.4323 50.7812 27.3446 50.8101 27.2539 50.8209C27.1631 50.8318 27.071 50.8245 26.9831 50.7994L26.9775 50.8079ZM30.7744 57.7857C30.6811 57.6242 30.6559 57.4323 30.7041 57.2522C30.7524 57.072 30.8702 56.9185 31.0317 56.8252L31.6406 56.4737L51.7359 44.8594C51.8421 44.7972 51.963 44.7647 52.0861 44.7652C52.2414 44.7644 52.3927 44.815 52.5162 44.9092C52.6398 45.0034 52.7286 45.1358 52.769 45.2858C52.8093 45.4359 52.7988 45.595 52.7391 45.7385C52.6794 45.8819 52.5739 46.0015 52.4391 46.0786L51.8302 46.4288L32.3437 57.6844L31.7391 58.0346C31.6589 58.0814 31.5703 58.1119 31.4783 58.1243C31.3863 58.1367 31.2928 58.1308 31.2031 58.1069C31.1134 58.0829 31.0294 58.0415 30.9558 57.9849C30.8822 57.9283 30.8205 57.8578 30.7744 57.7772V57.7857ZM34.9931 65.0982C34.9003 64.9368 34.8753 64.7452 34.9236 64.5655C34.9718 64.3857 35.0894 64.2324 35.2505 64.1391L35.8594 63.7876L55.9547 52.1719C56.0607 52.1093 56.1817 52.0762 56.3048 52.0763C56.4597 52.076 56.6104 52.1269 56.7334 52.221C56.8565 52.3151 56.945 52.4472 56.9852 52.5968C57.0254 52.7463 57.0152 52.905 56.956 53.0482C56.8968 53.1913 56.792 53.3109 56.6578 53.3883L56.0489 53.7399L35.955 65.3415C35.875 65.3878 35.7866 65.418 35.6949 65.4302C35.6032 65.4423 35.51 65.4363 35.4207 65.4124C35.3313 65.3885 35.2476 65.3472 35.1742 65.2908C35.1008 65.2345 35.0393 65.1643 34.9931 65.0841V65.0982ZM56.2359 56.8786L59.0484 61.7499L41.9991 71.5937L39.1866 66.7224L56.2359 56.8786ZM49.6012 83.1249L48.3862 83.828L43.3491 74.0658L44.5641 73.3627L49.6012 83.1249Z" fill="black"/>
</svg>
