<svg width="90" height="90" viewBox="0 0 90 90" fill="none" xmlns="http://www.w3.org/2000/svg">
<path d="M45 67.0641C44.9789 67.2086 44.9789 67.3555 45 67.5C44.325 73.1391 24.4406 79.6781 12.6562 71.7188C5.69531 67.0078 3.22031 58.3734 4.21874 57.6563C5.52656 56.7141 12.3187 69.6235 21.0937 68.9063C27.9141 68.3578 29.9812 60.0469 36.5625 60.4688C40.6406 60.7359 44.8875 64.2516 45 67.0641Z" fill="white"/>
<path d="M85.7812 57.6563C86.7797 58.3734 84.3047 67.0078 77.3438 71.7188C65.5594 79.6781 45.675 73.1391 45 67.5C45.0211 67.3555 45.0211 67.2086 45 67.0641C45.1125 64.2516 49.3594 60.7359 53.4375 60.4688C60.0188 60.0469 62.0859 68.3578 68.9062 68.9063C77.6813 69.6235 84.4734 56.7141 85.7812 57.6563Z" fill="white"/>
<path d="M81.5625 42.1875V50.625C81.5603 51.3702 81.2632 52.0843 80.7363 52.6113C80.2093 53.1382 79.4952 53.4353 78.75 53.4375H53.4375C52.6923 53.4353 51.9782 53.1382 51.4512 52.6113C50.9243 52.0843 50.6272 51.3702 50.625 50.625V33.75C50.6272 33.0048 50.9243 32.2907 51.4512 31.7637C51.9782 31.2368 52.6923 30.9397 53.4375 30.9375H78.75C79.4952 30.9397 80.2093 31.2368 80.7363 31.7637C81.2632 32.2907 81.5603 33.0048 81.5625 33.75V42.1875ZM68.7797 42.8906L73.125 39.7406H67.7531L66.0938 34.6359L64.4344 39.7406H59.0625L63.4078 42.8906L61.7484 48.0094L66.0938 44.8453L70.4391 48.0094L68.7797 42.8906Z" fill="#FB3006"/>
<path d="M73.125 39.7405L68.7797 42.8905L70.4391 48.0093L66.0938 44.8452L61.7484 48.0093L63.4078 42.8905L59.0625 39.7405H64.4344L66.0938 34.6359L67.7531 39.7405H73.125Z" fill="white"/>
<path d="M39.375 43.5938V50.625C39.3728 51.3702 39.0757 52.0843 38.5488 52.6113C38.0218 53.1382 37.3077 53.4353 36.5625 53.4375H11.25C10.5048 53.4353 9.79069 53.1382 9.26372 52.6113C8.73676 52.0843 8.43973 51.3702 8.4375 50.625V33.75C8.43973 33.0048 8.73676 32.2907 9.26372 31.7637C9.79069 31.2368 10.5048 30.9397 11.25 30.9375H36.5625C37.3077 30.9397 38.0218 31.2368 38.5488 31.7637C39.0757 32.2907 39.3728 33.0048 39.375 33.75V43.5938ZM26.5922 42.8906L30.9375 39.7406H25.5656L23.9062 34.6359L22.2469 39.7406H16.875L21.2203 42.8906L19.5609 48.0094L23.9062 44.8453L28.2516 48.0094L26.5922 42.8906Z" fill="#FB3006"/>
<path d="M30.9375 39.7405L26.5922 42.8905L28.2516 48.0093L23.9062 44.8452L19.5609 48.0093L21.2203 42.8905L16.875 39.7405H22.2469L23.9062 34.6359L25.5656 39.7405H30.9375Z" fill="white"/>
<path d="M88.1817 35.5683C87.918 35.3046 87.5604 35.1566 87.1875 35.1566C86.8146 35.1566 86.457 35.3046 86.1933 35.5683L82.9688 38.7928V33.75C82.9688 32.6311 82.5243 31.5581 81.7331 30.7669C80.9419 29.9757 79.8689 29.5313 78.75 29.5312H53.4375C52.3186 29.5313 51.2456 29.9757 50.4544 30.7669C49.6632 31.5581 49.2188 32.6311 49.2188 33.75V38.0053C48.0112 37.0703 46.5272 36.5629 45 36.5629C43.4728 36.5629 41.9888 37.0703 40.7812 38.0053V33.75C40.7812 32.6311 40.3368 31.5581 39.5456 30.7669C38.7544 29.9757 37.6814 29.5313 36.5625 29.5312H11.25C10.1311 29.5313 9.05806 29.9757 8.26689 30.7669C7.47572 31.5581 7.03124 32.6311 7.03124 33.75V38.7928L3.80671 35.5683C3.54149 35.3121 3.18627 35.1704 2.81755 35.1736C2.44884 35.1768 2.09613 35.3247 1.8354 35.5854C1.57467 35.8461 1.42678 36.1988 1.42358 36.5676C1.42037 36.9363 1.56211 37.2915 1.81827 37.5567L7.03124 42.7697V50.625C7.03124 51.7439 7.47572 52.8169 8.26689 53.6081C9.05806 54.3993 10.1311 54.8438 11.25 54.8438H36.5625C37.6814 54.8438 38.7544 54.3993 39.5456 53.6081C40.3368 52.8169 40.7812 51.7439 40.7812 50.625V43.5938C40.7812 42.4749 41.2257 41.4018 42.0169 40.6106C42.8081 39.8195 43.8811 39.375 45 39.375C46.1189 39.375 47.1919 39.8195 47.9831 40.6106C48.7743 41.4018 49.2188 42.4749 49.2188 43.5938V50.625C49.2188 51.7439 49.6632 52.8169 50.4544 53.6081C51.2456 54.3993 52.3186 54.8438 53.4375 54.8438H78.75C79.8689 54.8438 80.9419 54.3993 81.7331 53.6081C82.5243 52.8169 82.9688 51.7439 82.9688 50.625V42.7697L88.1817 37.5567C88.4454 37.293 88.5935 36.9354 88.5935 36.5625C88.5935 36.1896 88.4454 35.832 88.1817 35.5683ZM37.9687 50.625C37.9687 50.998 37.8206 51.3556 37.5569 51.6194C37.2931 51.8831 36.9355 52.0312 36.5625 52.0312H11.25C10.877 52.0312 10.5193 51.8831 10.2556 51.6194C9.9919 51.3556 9.84374 50.998 9.84374 50.625V33.75C9.84374 33.377 9.9919 33.0194 10.2556 32.7556C10.5193 32.4919 10.877 32.3438 11.25 32.3438H36.5625C36.9355 32.3438 37.2931 32.4919 37.5569 32.7556C37.8206 33.0194 37.9687 33.377 37.9687 33.75V50.625ZM80.1563 50.625C80.1563 50.998 80.0081 51.3556 79.7444 51.6194C79.4807 51.8831 79.123 52.0312 78.75 52.0312H53.4375C53.0645 52.0312 52.7069 51.8831 52.4431 51.6194C52.1794 51.3556 52.0313 50.998 52.0313 50.625V33.75C52.0313 33.377 52.1794 33.0194 52.4431 32.7556C52.7069 32.4919 53.0645 32.3438 53.4375 32.3438H78.75C79.123 32.3438 79.4807 32.4919 79.7444 32.7556C80.0081 33.0194 80.1563 33.377 80.1563 33.75V50.625Z" fill="black"/>
<path d="M73.125 38.333H68.7755L67.4311 34.1958C67.3386 33.9144 67.1597 33.6695 66.9198 33.4958C66.6799 33.3221 66.3913 33.2286 66.0952 33.2286C65.799 33.2286 65.5104 33.3221 65.2705 33.4958C65.0307 33.6695 64.8517 33.9144 64.7592 34.1958L63.4149 38.333H59.0625C58.7655 38.3329 58.4761 38.4269 58.2359 38.6014C57.9956 38.776 57.8167 39.0221 57.7249 39.3045C57.6331 39.587 57.633 39.8912 57.7248 40.1737C57.8166 40.4562 57.9954 40.7023 58.2356 40.8769L61.7513 43.4334L60.4055 47.5706C60.3133 47.8533 60.3131 48.1579 60.4048 48.4407C60.4966 48.7235 60.6757 48.97 60.9163 49.1447C61.1569 49.3193 61.4467 49.4133 61.744 49.4129C62.0413 49.4126 62.3309 49.318 62.5711 49.1428L66.0938 46.5863L69.6094 49.1428C69.8496 49.318 70.1392 49.4126 70.4365 49.4129C70.7338 49.4133 71.0236 49.3193 71.2642 49.1447C71.5048 48.97 71.6839 48.7235 71.7757 48.4407C71.8674 48.1579 71.8672 47.8533 71.775 47.5706L70.4292 43.4334L73.9449 40.8769C74.1847 40.7027 74.3633 40.4571 74.4552 40.1754C74.5471 39.8936 74.5477 39.59 74.4567 39.3079C74.3658 39.0258 74.1881 38.7796 73.9489 38.6045C73.7098 38.4294 73.4214 38.3344 73.125 38.333ZM67.9528 41.7656C67.7124 41.9401 67.5334 42.1861 67.4414 42.4686C67.3495 42.751 67.3493 43.0553 67.441 43.3378L67.7644 44.3306L66.9207 43.7175C66.6803 43.5428 66.3909 43.4487 66.0938 43.4487C65.7967 43.4487 65.5072 43.5428 65.2669 43.7175L64.4232 44.3306L64.7466 43.3378C64.8382 43.0553 64.8381 42.751 64.7461 42.4686C64.6542 42.1861 64.4751 41.9401 64.2347 41.7656L63.391 41.1525H64.4344C64.7314 41.1525 65.0207 41.0585 65.2609 40.8839C65.5012 40.7093 65.68 40.4632 65.7717 40.1808L66.0938 39.1824L66.4158 40.1738C66.5076 40.4562 66.6864 40.7023 66.9266 40.8769C67.1669 41.0514 67.4562 41.1455 67.7532 41.1455H68.7966L67.9528 41.7656Z" fill="black"/>
<path d="M30.9375 38.333H26.5879L25.2436 34.1958C25.1511 33.9144 24.9721 33.6695 24.7323 33.4958C24.4924 33.3221 24.2038 33.2286 23.9076 33.2286C23.6115 33.2286 23.3229 33.3221 23.083 33.4958C22.8431 33.6695 22.6642 33.9144 22.5717 34.1958L21.2273 38.333H16.875C16.578 38.3329 16.2886 38.4269 16.0483 38.6014C15.808 38.776 15.6291 39.0221 15.5373 39.3045C15.4455 39.587 15.4455 39.8912 15.5372 40.1737C15.629 40.4562 15.8078 40.7023 16.0481 40.8769L19.5637 43.4334L18.2179 47.5706C18.1257 47.8533 18.1255 48.1579 18.2173 48.4407C18.3091 48.7235 18.4881 48.97 18.7287 49.1447C18.9693 49.3193 19.2591 49.4133 19.5564 49.4129C19.8538 49.4126 20.1433 49.318 20.3836 49.1428L23.9062 46.5863L27.4218 49.1428C27.6621 49.318 27.9516 49.4126 28.249 49.4129C28.5463 49.4133 28.8361 49.3193 29.0767 49.1447C29.3173 48.97 29.4963 48.7235 29.5881 48.4407C29.6799 48.1579 29.6797 47.8533 29.5875 47.5706L28.2417 43.4334L31.7573 40.8769C31.9971 40.7027 32.1757 40.4571 32.2676 40.1754C32.3595 39.8936 32.3601 39.59 32.2692 39.3079C32.1783 39.0258 32.0005 38.7796 31.7614 38.6045C31.5222 38.4294 31.2338 38.3344 30.9375 38.333ZM25.7653 41.7656C25.5248 41.9401 25.3458 42.1861 25.2539 42.4686C25.1619 42.751 25.1617 43.0553 25.2534 43.3378L25.5768 44.3306L24.7331 43.7175C24.4928 43.5428 24.2033 43.4487 23.9062 43.4487C23.6091 43.4487 23.3196 43.5428 23.0793 43.7175L22.2356 44.3306L22.559 43.3378C22.6507 43.0553 22.6505 42.751 22.5586 42.4686C22.4666 42.1861 22.2876 41.9401 22.0471 41.7656L21.2034 41.1525H22.2468C22.5438 41.1525 22.8331 41.0585 23.0734 40.8839C23.3136 40.7093 23.4924 40.4632 23.5842 40.1808L23.9062 39.1824L24.2282 40.1738C24.32 40.4562 24.4988 40.7023 24.7391 40.8769C24.9793 41.0514 25.2686 41.1455 25.5656 41.1455H26.609L25.7653 41.7656Z" fill="black"/>
<path d="M86.6067 56.5171C85.1484 55.4596 83.9123 56.8743 81.8676 59.2157C79.0228 62.474 74.2612 67.9218 69.0201 67.5C66.2076 67.2722 64.2825 65.4328 62.2476 63.4851C59.9512 61.29 57.3567 58.8107 53.3475 59.0611C50.1827 59.3565 47.2595 60.8794 45.2039 63.3037C45.1251 63.3979 45.0731 63.4936 45 63.585C44.9268 63.4908 44.8748 63.3951 44.7961 63.3037C42.7402 60.8799 39.817 59.3575 36.6525 59.0625C32.6531 58.8051 30.0431 61.2914 27.7523 63.4865C25.7175 65.437 23.7937 67.2764 20.9798 67.5C15.7443 67.9218 10.9786 62.4712 8.13232 59.2115C6.08763 56.8687 4.85013 55.4554 3.39325 56.5129C3.10877 56.7475 2.88736 57.0494 2.74911 57.3913C2.61085 57.7331 2.56013 58.104 2.60153 58.4704C2.64794 61.2534 5.4956 68.5743 11.8687 72.8803C16.1649 75.5776 21.1627 76.9441 26.2336 76.8079C30.9536 76.823 35.6246 75.8516 39.9473 73.9561C41.8547 73.1609 43.5755 71.977 45 70.4798C46.424 71.9785 48.1448 73.1638 50.0526 73.9603C54.3753 75.8559 59.0464 76.8273 63.7664 76.8122C68.8372 76.9481 73.835 75.5816 78.1312 72.8845C84.5043 68.5786 87.352 61.2576 87.3984 58.4747C87.4398 58.1083 87.3891 57.7373 87.2508 57.3955C87.1126 57.0537 86.8912 56.7517 86.6067 56.5171ZM38.7773 71.4023C31.6392 74.6634 20.6451 75.42 13.4437 70.5586C10.1169 68.2271 7.5595 64.9579 6.09747 61.1676C9.30091 64.8365 14.5842 70.8567 21.2076 70.3083C25.0172 69.9975 27.5034 67.6195 29.6972 65.527C31.8445 63.4725 33.6951 61.6936 36.4725 61.8708C38.8619 62.13 41.0641 63.2858 42.6347 65.1051C43.2276 65.6984 43.5738 66.4943 43.6036 67.3326C43.4953 68.2425 42.165 69.8526 38.7773 71.4023ZM76.5562 70.5586C69.3534 75.427 58.3593 74.6705 51.2226 71.4023C47.835 69.8554 46.5047 68.2425 46.3964 67.3326C46.4261 66.4943 46.7723 65.6984 47.3653 65.1051C48.9366 63.2874 51.1387 62.1331 53.5275 61.875C53.6582 61.8665 53.7848 61.8623 53.9114 61.8623C56.4736 61.8623 58.2553 63.5667 60.3028 65.5186C62.4965 67.6167 64.9828 69.9947 68.7923 70.2998C75.4017 70.8469 80.699 64.8239 83.9025 61.1592C82.4409 64.9505 79.8835 68.2207 76.5562 70.5529V70.5586Z" fill="black"/>
<path d="M9.48513 23.438C11.3185 21.4214 13.5434 19.7994 16.0243 18.6711C18.5051 17.5427 21.1898 16.9316 23.9147 16.875C26.9562 16.9553 29.9431 17.7022 32.6645 19.0629C35.3858 20.4236 37.7755 22.365 39.6647 24.75C39.898 25.019 40.2247 25.1894 40.5789 25.2269C40.933 25.2644 41.2882 25.1661 41.5727 24.952C41.8572 24.7378 42.0498 24.4236 42.1117 24.0729C42.1736 23.7223 42.1002 23.3611 41.9062 23.0625C39.7892 20.321 37.0842 18.0894 33.9905 16.5318C30.8967 14.9742 27.493 14.1304 24.03 14.0625H23.8978C20.781 14.1253 17.7097 14.8227 14.8714 16.1121C12.0332 17.4015 9.48747 19.2559 7.38981 21.562C7.26462 21.6993 7.16787 21.86 7.10513 22.0348C7.0424 22.2097 7.01493 22.3952 7.02432 22.5808C7.0337 22.7663 7.07976 22.9481 7.15982 23.1158C7.23988 23.2834 7.35236 23.4335 7.49076 23.5574C7.62917 23.6813 7.79075 23.7766 7.96618 23.8377C8.14161 23.8988 8.32741 23.9246 8.51285 23.9135C8.69828 23.9023 8.87968 23.8546 9.04656 23.773C9.21344 23.6914 9.3625 23.5775 9.48513 23.438Z" fill="black"/>
<path d="M49.2188 25.3125C49.4371 25.3125 49.6524 25.2617 49.8476 25.164C50.0429 25.0664 50.2128 24.9247 50.3438 24.75C50.9541 23.94 56.565 16.875 65.977 16.875H66.0881C68.8129 16.9316 71.4977 17.5427 73.9785 18.6711C76.4594 19.7994 78.6843 21.4214 80.5177 23.438C80.6403 23.5775 80.7893 23.6914 80.9562 23.773C81.1231 23.8546 81.3045 23.9023 81.4899 23.9135C81.6754 23.9246 81.8612 23.8988 82.0366 23.8377C82.212 23.7766 82.3736 23.6813 82.512 23.5574C82.6504 23.4335 82.7629 23.2834 82.843 23.1158C82.923 22.9481 82.9691 22.7663 82.9785 22.5808C82.9879 22.3952 82.9604 22.2097 82.8977 22.0348C82.8349 21.86 82.7382 21.6993 82.613 21.562C80.515 19.2556 77.9689 17.401 75.1301 16.1116C72.2913 14.8221 69.2195 14.1249 66.1022 14.0625C62.6193 14.1185 59.1936 14.9564 56.078 16.5142C52.9625 18.0719 50.2367 20.3098 48.1022 23.0625C47.9459 23.2709 47.8506 23.5185 47.8268 23.7779C47.803 24.0372 47.8517 24.2981 47.9675 24.5314C48.0833 24.7647 48.2616 24.9612 48.4825 25.0992C48.7034 25.2371 48.9583 25.3109 49.2188 25.3125Z" fill="black"/>
</svg>
