<svg width="90" height="90" viewBox="0 0 90 90" fill="none" xmlns="http://www.w3.org/2000/svg">
<path d="M78.4828 37.9688L78.5109 38.0812L45 85.7812L61.7625 38.0812L61.7344 37.9688H78.4828Z" fill="#FB3006"/>
<path d="M78.4828 37.9688H61.7344L57.1922 18.2812H72.4219L78.4828 37.9688Z" fill="white"/>
<path d="M61.7344 37.9688L61.7625 38.0812L45 85.7812V40.0359L50.3437 43.9312L48.4172 37.9688H61.7344Z" fill="white"/>
<path d="M57.1922 18.2812L61.7344 37.9688H48.4172L48.3047 37.6313L53.6625 33.75H47.0391L45 27.4641V18.2812H57.1922Z" fill="white"/>
<path d="M45 40.0359L39.6563 43.9312L41.5828 37.9687L41.6953 37.6312L36.3375 33.75H42.961L45 27.4641L47.0391 33.75H53.6625L48.3047 37.6312L48.4172 37.9687L50.3438 43.9312L45 40.0359Z" fill="white"/>
<path d="M45 40.0359V85.7812L28.2375 38.0812L28.2656 37.9688H41.5828L39.6562 43.9312L45 40.0359Z" fill="white"/>
<path d="M45 18.2812V27.4641L42.9609 33.75H36.3375L41.6953 37.6313L41.5828 37.9688H28.2656L32.8078 18.2812H45Z" fill="#FB3006"/>
<path d="M28.2375 38.0812L45 85.7812L11.4891 38.0812L11.5172 37.9688H28.2656L28.2375 38.0812Z" fill="#FB3006"/>
<path d="M32.8078 18.2812L28.2657 37.9688H11.5172L17.5782 18.2812H32.8078Z" fill="white"/>
<path d="M80.1562 37.9687C80.1539 37.7592 80.104 37.553 80.0102 37.3656C79.9164 37.1783 79.7812 37.0147 79.6148 36.8873L73.7662 17.8678C73.6778 17.5803 73.4995 17.3287 73.2575 17.15C73.0155 16.9713 72.7226 16.8749 72.4218 16.875H17.5781C17.2773 16.8749 16.9844 16.9713 16.7424 17.15C16.5005 17.3287 16.3222 17.5803 16.2337 17.8678L10.3851 36.8873C10.2062 37.0207 10.063 37.1963 9.96852 37.3985C9.87399 37.6007 9.831 37.8231 9.84339 38.046C9.85579 38.2688 9.92318 38.4851 10.0396 38.6755C10.1559 38.866 10.3176 39.0246 10.5103 39.1373L43.8497 86.5898C43.8567 86.5997 43.8651 86.6067 43.8736 86.6166C43.8946 86.6427 43.9171 86.6676 43.9411 86.6911L43.972 86.7262C43.9931 86.7502 44.0114 86.7741 44.0339 86.7952C44.0451 86.805 44.0522 86.8176 44.0634 86.8275C44.0747 86.8373 44.1225 86.8711 44.152 86.8936C44.1851 86.9193 44.2199 86.9427 44.2561 86.9639C44.3089 86.9979 44.3638 87.0285 44.4206 87.0553L44.4979 87.0862C44.512 87.0862 44.5204 87.1031 44.5345 87.1073H44.5542L44.6118 87.1228C44.8643 87.2035 45.1356 87.2035 45.3881 87.1228L45.4458 87.1073H45.4654C45.4795 87.1073 45.4879 87.0919 45.502 87.0862L45.5807 87.0553C45.6369 87.0282 45.6914 86.9976 45.7439 86.9639C45.7798 86.9431 45.8141 86.9196 45.8465 86.8936C45.8777 86.8732 45.9077 86.8511 45.9365 86.8275C45.9478 86.8176 45.9548 86.8064 45.9661 86.7952C45.9886 86.7741 46.0068 86.7502 46.0279 86.7277L46.0589 86.6911C46.0828 86.6676 46.1054 86.6427 46.1264 86.6166C46.1348 86.6067 46.1432 86.5997 46.1503 86.5898L79.4897 39.1345C79.6909 39.0131 79.8577 38.8422 79.9744 38.6382C80.091 38.4342 80.1536 38.2038 80.1562 37.9687ZM27.2053 39.375L40.3003 76.6406L14.1159 39.375H27.2053ZM43.5937 19.6875V27.2419L41.9386 32.3437H36.3375C36.0402 32.3436 35.7506 32.4376 35.5101 32.6123C35.2696 32.787 35.0907 33.0334 34.999 33.3162C34.9073 33.5989 34.9076 33.9035 34.9997 34.186C35.0919 34.4686 35.2712 34.7148 35.512 34.8891L37.8281 36.5625H30.0375L33.9314 19.6875H43.5937ZM56.0686 19.6875L59.9625 36.5625H52.1718L54.4823 34.8891C54.7227 34.715 54.9019 34.4694 54.9942 34.1874C55.0865 33.9053 55.0872 33.6013 54.9962 33.3189C54.9052 33.0364 54.7272 32.7899 54.4876 32.6148C54.2481 32.4396 53.9592 32.3448 53.6625 32.3437H48.0614L46.4062 27.2419V19.6875H56.0686ZM42.6375 39.285C42.911 39.1953 43.1499 39.023 43.3212 38.7917C43.4925 38.5604 43.5877 38.2816 43.5938 37.9938C43.5998 37.706 43.5163 37.4235 43.3548 37.1853C43.1933 36.947 42.9618 36.7648 42.6923 36.6637C42.6402 36.6017 42.5828 36.5443 42.5207 36.4922L40.6772 35.1562H42.9609C43.2579 35.1562 43.5472 35.0622 43.7874 34.8876C44.0277 34.7131 44.2065 34.467 44.2982 34.1845L45.0014 32.0217L45.7045 34.1845C45.7961 34.4665 45.9745 34.7123 46.2142 34.8868C46.4538 35.0613 46.7425 35.1556 47.039 35.1562H49.3228L47.4792 36.4922C47.4172 36.5443 47.3598 36.6017 47.3076 36.6637C47.0381 36.7648 46.8066 36.947 46.6451 37.1853C46.4837 37.4235 46.4001 37.706 46.4062 37.9938C46.4122 38.2816 46.5074 38.5604 46.6787 38.7917C46.85 39.023 47.089 39.1953 47.3625 39.285L47.6747 40.2455L46.3936 39.3117C46.3774 38.9529 46.2236 38.6142 45.964 38.366C45.7044 38.1178 45.3591 37.9793 45 37.9793C44.6408 37.9793 44.2955 38.1178 44.0359 38.366C43.7764 38.6142 43.6225 38.9529 43.6064 39.3117L42.3253 40.2455L42.6375 39.285ZM46.4062 42.8006L49.5154 45.0675C49.7554 45.2419 50.0443 45.336 50.341 45.3363C50.6376 45.3366 50.9268 45.2431 51.167 45.0691C51.4073 44.8951 51.5864 44.6496 51.6787 44.3677C51.7711 44.0858 51.7719 43.7819 51.6811 43.4995L50.3437 39.375H59.8106L46.4062 77.5378V42.8006ZM39.6562 39.375L38.3231 43.4995C38.2323 43.7819 38.2331 44.0858 38.3254 44.3677C38.4177 44.6496 38.5968 44.8951 38.8371 45.0691C39.0774 45.2431 39.3665 45.3366 39.6632 45.3363C39.9598 45.336 40.2488 45.2419 40.4887 45.0675L43.5937 42.8006V77.535L30.1851 39.375H39.6562ZM62.7989 39.375H75.8883L49.6997 76.6406L62.7989 39.375ZM76.5801 36.5625H62.8495L58.9556 19.6875H71.384L76.5801 36.5625ZM18.6159 19.6875H31.0443L27.1504 36.5625H13.4268L18.6159 19.6875Z" fill="black"/>
<path d="M59.0625 14.0625C59.2942 14.0628 59.5223 14.0058 59.7267 13.8966C59.9311 13.7874 60.1053 13.6295 60.2339 13.4367L65.8589 4.99922C66.0659 4.68891 66.1411 4.30909 66.0681 3.94331C65.995 3.57752 65.7796 3.25574 65.4693 3.04875C65.159 2.84175 64.7792 2.76651 64.4134 2.83956C64.0476 2.91261 63.7259 3.12798 63.5189 3.43828L57.8939 11.8758C57.7526 12.0875 57.6715 12.3335 57.6591 12.5877C57.6467 12.8418 57.7035 13.0946 57.8234 13.319C57.9433 13.5435 58.1219 13.7312 58.3401 13.8621C58.5583 13.993 58.808 14.0623 59.0625 14.0625Z" fill="black"/>
<path d="M70.3126 15.4688C70.6481 15.4693 70.9725 15.349 71.2266 15.1299L81.0704 6.69238C81.3376 6.4455 81.4987 6.10469 81.5199 5.74152C81.5412 5.37835 81.4208 5.02109 81.1842 4.74478C80.9475 4.46847 80.613 4.29461 80.2509 4.25972C79.8888 4.22483 79.5273 4.33163 79.2422 4.55769L69.3985 12.9952C69.1805 13.1822 69.0251 13.4314 68.9529 13.7093C68.8808 13.9872 68.8955 14.2806 68.995 14.55C69.0946 14.8193 69.2742 15.0517 69.5097 15.216C69.7452 15.3803 70.0254 15.4685 70.3126 15.4688Z" fill="black"/>
<path d="M79.0313 27.5625C79.1421 27.7102 79.2809 27.8347 79.4398 27.9288C79.5987 28.0229 79.7746 28.0848 79.9574 28.1109C80.1402 28.137 80.3264 28.1268 80.5053 28.081C80.6842 28.0352 80.8523 27.9546 81 27.8438L86.625 23.625C86.7727 23.5142 86.8972 23.3754 86.9913 23.2165C87.0854 23.0576 87.1473 22.8817 87.1734 22.6989C87.1995 22.5161 87.1893 22.3299 87.1435 22.151C87.0977 21.9721 87.0171 21.804 86.9063 21.6562C86.7955 21.5085 86.6566 21.384 86.4977 21.29C86.3388 21.1959 86.1629 21.134 85.9801 21.1079C85.7973 21.0818 85.6111 21.0919 85.4323 21.1377C85.2534 21.1836 85.0852 21.2642 84.9375 21.375L79.3125 25.5938C79.0141 25.8175 78.8169 26.1507 78.7641 26.5199C78.7114 26.8891 78.8075 27.2641 79.0313 27.5625Z" fill="black"/>
<path d="M85.7812 36.5625H82.9688C82.5958 36.5625 82.2381 36.7107 81.9744 36.9744C81.7107 37.2381 81.5625 37.5958 81.5625 37.9688C81.5625 38.3417 81.7107 38.6994 81.9744 38.9631C82.2381 39.2268 82.5958 39.375 82.9688 39.375H85.7812C86.1542 39.375 86.5119 39.2268 86.7756 38.9631C87.0393 38.6994 87.1875 38.3417 87.1875 37.9688C87.1875 37.5958 87.0393 37.2381 86.7756 36.9744C86.5119 36.7107 86.1542 36.5625 85.7812 36.5625Z" fill="black"/>
<path d="M82.5568 46.8183C82.2916 46.5622 81.9363 46.4204 81.5676 46.4236C81.1989 46.4268 80.8462 46.5747 80.5855 46.8355C80.3247 47.0962 80.1768 47.4489 80.1736 47.8176C80.1704 48.1863 80.3122 48.5416 80.5683 48.8068L84.7871 53.0255C85.0523 53.2817 85.4075 53.4234 85.7762 53.4202C86.145 53.417 86.4977 53.2691 86.7584 53.0084C87.0191 52.7477 87.167 52.395 87.1702 52.0262C87.1734 51.6575 87.0317 51.3023 86.7755 51.0371L82.5568 46.8183Z" fill="black"/>
<path d="M29.7676 13.4367C29.9746 13.747 30.2963 13.9624 30.6621 14.0354C31.0279 14.1085 31.4077 14.0332 31.718 13.8262C32.0283 13.6193 32.2437 13.2975 32.3168 12.9317C32.3898 12.5659 32.3146 12.1861 32.1076 11.8758L26.4826 3.43828C26.2756 3.12798 25.9538 2.91261 25.588 2.83956C25.2222 2.76651 24.8424 2.84175 24.5321 3.04875C24.2218 3.25574 24.0064 3.57752 23.9334 3.94331C23.8603 4.30909 23.9356 4.68891 24.1426 4.99922L29.7676 13.4367Z" fill="black"/>
<path d="M18.7734 15.1299C18.9123 15.2582 19.0757 15.3572 19.2538 15.421C19.4319 15.4847 19.6209 15.5119 19.8098 15.5008C19.9986 15.4898 20.1832 15.4408 20.3526 15.3568C20.5221 15.2727 20.6728 15.1554 20.7958 15.0117C20.9188 14.868 21.0116 14.7011 21.0686 14.5207C21.1256 14.3404 21.1456 14.1504 21.1275 13.9621C21.1094 13.7739 21.0534 13.5912 20.9631 13.4251C20.8727 13.2589 20.7497 13.1127 20.6015 12.9952L10.7578 4.55769C10.4728 4.33163 10.1112 4.22483 9.74912 4.25972C9.38701 4.29461 9.0525 4.46847 8.81587 4.74478C8.57924 5.02109 8.4589 5.37835 8.48012 5.74152C8.50134 6.10469 8.66247 6.4455 8.92968 6.69238L18.7734 15.1299Z" fill="black"/>
<path d="M9.00001 27.8438C9.29838 28.0675 9.67342 28.1636 10.0426 28.1109C10.4118 28.0581 10.745 27.8609 10.9688 27.5625C11.1925 27.2641 11.2886 26.8891 11.2359 26.5199C11.1831 26.1507 10.9859 25.8175 10.6875 25.5938L5.06251 21.375C4.76414 21.1512 4.38909 21.0551 4.01988 21.1079C3.65067 21.1606 3.31753 21.3579 3.09376 21.6563C2.86998 21.9546 2.77389 22.3297 2.82664 22.6989C2.87938 23.0681 3.07664 23.4012 3.37501 23.625L9.00001 27.8438Z" fill="black"/>
<path d="M4.21875 39.375H7.03125C7.40421 39.375 7.7619 39.2268 8.02562 38.9631C8.28934 38.6994 8.4375 38.3417 8.4375 37.9688C8.4375 37.5958 8.28934 37.2381 8.02562 36.9744C7.7619 36.7107 7.40421 36.5625 7.03125 36.5625H4.21875C3.84579 36.5625 3.4881 36.7107 3.22438 36.9744C2.96066 37.2381 2.8125 37.5958 2.8125 37.9688C2.8125 38.3417 2.96066 38.6994 3.22438 38.9631C3.4881 39.2268 3.84579 39.375 4.21875 39.375Z" fill="black"/>
<path d="M7.44329 46.8183L3.22454 51.0371C3.09023 51.1668 2.9831 51.322 2.9094 51.4935C2.8357 51.6651 2.7969 51.8496 2.79528 52.0364C2.79366 52.2231 2.82924 52.4083 2.89995 52.5811C2.97065 52.7539 3.07507 52.9109 3.20711 53.0429C3.33914 53.175 3.49616 53.2794 3.66898 53.3501C3.8418 53.4208 4.02698 53.4564 4.2137 53.4548C4.40042 53.4532 4.58495 53.4144 4.75651 53.3407C4.92808 53.267 5.08325 53.1598 5.21298 53.0255L9.43173 48.8068C9.68789 48.5416 9.82963 48.1863 9.82642 47.8176C9.82322 47.4489 9.67533 47.0962 9.4146 46.8355C9.15387 46.5747 8.80116 46.4268 8.43245 46.4236C8.06373 46.4204 7.70851 46.5622 7.44329 46.8183Z" fill="black"/>
<path d="M45 12.6562C45.373 12.6562 45.7306 12.5081 45.9944 12.2444C46.2581 11.9806 46.4062 11.623 46.4062 11.25V2.8125C46.4062 2.43954 46.2581 2.08185 45.9944 1.81813C45.7306 1.55441 45.373 1.40625 45 1.40625C44.627 1.40625 44.2694 1.55441 44.0056 1.81813C43.7419 2.08185 43.5938 2.43954 43.5938 2.8125V11.25C43.5938 11.623 43.7419 11.9806 44.0056 12.2444C44.2694 12.5081 44.627 12.6562 45 12.6562Z" fill="black"/>
</svg>
