<svg width="90" height="90" viewBox="0 0 90 90" fill="none" xmlns="http://www.w3.org/2000/svg">
<g clip-path="url(#clip0)">
<path d="M74.3676 38.3197H75.7711C76.2336 38.3197 76.6447 38.6254 76.7655 39.0719C77.096 40.2943 78.2126 41.1936 79.539 41.1936C80.8655 41.1936 81.9821 40.2943 82.3126 39.0719C82.4333 38.6254 82.8445 38.3197 83.307 38.3197H84.7104C85.2817 38.3197 85.7448 38.7829 85.7448 39.3544V58.8401C85.7448 59.4116 85.2817 59.8748 84.7104 59.8748H83.307C82.8447 59.8748 82.4333 59.5691 82.3126 59.1226C81.9821 57.9002 80.8655 57.0009 79.539 57.0009C78.2126 57.0009 77.096 57.9002 76.7655 59.1226C76.6447 59.5691 76.2336 59.8748 75.7713 59.8748H74.3678C73.7965 59.8748 73.3335 59.4116 73.3335 58.8401V39.3544C73.3333 38.7831 73.7963 38.3197 74.3676 38.3197Z" fill="#FB3006"/>
<path d="M85.7448 39.3544C85.7448 38.7829 85.2817 38.3197 84.7104 38.3197H83.307C82.8445 38.3197 82.4333 38.6254 82.3126 39.0719C82.0633 39.9935 81.367 40.7311 80.471 41.0386V57.1561C81.367 57.4636 82.0633 58.201 82.3126 59.1226C82.4333 59.5691 82.8447 59.8748 83.307 59.8748H84.7104C85.2817 59.8748 85.7448 59.4116 85.7448 58.8401V39.3544Z" fill="#FB3006"/>
<path d="M82.0958 65.9772L64.44 86.1679C62.7472 88.1051 59.7676 88.2053 57.9482 86.3876L53.3725 81.8137V88.6816C53.3725 89.4094 52.7837 90 52.0559 90H4.40763C3.43729 90 2.64978 89.2125 2.64978 88.2422V67.0495C2.64978 62.1979 5.95981 57.972 10.6708 56.8101L21.6187 54.11C23.1885 53.7215 24.2924 52.3135 24.2924 50.6963V39.7501H39.0549V50.4273C39.0549 52.1711 40.317 53.6565 42.0379 53.9395L43.3985 54.1627L49.268 55.1243C53.0895 55.7518 56.4013 58.1197 58.2295 61.5352L62.4852 69.4806C62.5837 69.6652 62.719 69.8129 62.8772 69.9201C63.373 70.2594 64.0831 70.2084 64.5191 69.7127L74.4755 58.3552L82.0958 65.9772Z" fill="#FB3006"/>
<path d="M85.3601 53.718C83.684 52.378 81.4426 52.201 79.6266 53.0975C80.9263 54.1617 81.5983 55.7051 81.5983 57.2596C81.5983 58.5129 81.1624 59.7733 80.2694 60.7946L76.316 65.3176L58.6601 85.5082C58.4056 85.7995 58.1215 86.0486 57.8169 86.2565L57.948 86.3877C59.7674 88.2053 62.747 88.1051 64.4398 86.1679L82.0956 65.9773L86.049 61.4543C86.942 60.433 87.378 59.1727 87.378 57.9193C87.3781 56.346 86.6908 54.7833 85.3601 53.718Z" fill="#FB3006"/>
<path d="M62.8772 69.9201C62.8931 70.3631 62.6716 70.8025 62.262 71.0451C62.2462 71.0557 62.2286 71.0644 62.211 71.075C60.0084 72.3776 57.166 71.6182 55.9056 69.391C54.923 67.6507 53.9386 65.9122 52.9559 64.1719C51.1278 60.7564 47.816 58.3886 43.9944 57.761L41.2205 57.3058C41.6055 56.9015 42.0274 56.4005 42.4422 55.7993C42.8465 55.2139 43.1594 54.6549 43.3985 54.1627L49.268 55.1243C53.0895 55.7518 56.4013 58.1196 58.2295 61.5351L62.4852 69.4806C62.5837 69.6652 62.719 69.8129 62.8772 69.9201Z" fill="#FB3006"/>
<path d="M21.6179 54.1093L20.113 54.4804C22.305 58.6279 26.6571 61.4566 31.6731 61.4566C36.8171 61.4566 41.265 58.4832 43.399 54.1622L42.0365 53.9388C40.317 53.6568 39.0547 52.1702 39.0547 50.4272V39.7493H24.2917V50.5883V50.6959C24.2917 52.3133 23.1883 53.7221 21.6179 54.1093Z" fill="white"/>
<path d="M43.3989 54.1625L42.0379 53.9394C40.8883 53.7519 39.8942 52.9941 39.3999 51.9573C39.1779 51.4916 39.0547 50.9718 39.0547 50.4271V39.7502L33.7813 42.387V53.0642C33.7813 54.808 35.0434 56.2934 36.7644 56.5764L41.2211 57.3068C42.0912 56.3751 42.8284 55.3176 43.3989 54.1625Z" fill="white"/>
<path d="M46.7187 24.3955C36.6884 24.3955 26.6581 24.3955 16.6277 24.3955C15.8962 22.9444 12.7695 16.3602 15.5795 9.8781C16.1647 8.52807 17.1142 6.39474 19.2993 4.98951C23.217 2.46999 27.5177 4.82832 32.9535 5.27552C36.6366 5.57839 41.9151 5.10641 48.6204 1.46748C49.1929 1.15687 49.9091 1.34268 50.2592 1.89253C52.4883 5.39417 53.1834 9.9848 52.4901 14.043C52.1417 16.0819 51.3582 17.9853 50.3195 19.7672C49.8853 20.5119 47.7128 24.3955 46.7187 24.3955Z" fill="white"/>
<path d="M50.2592 1.89153C49.9092 1.34168 49.1929 1.15687 48.6204 1.46748C47.575 2.03492 46.5642 2.52418 45.589 2.94659C47.3327 6.28475 47.8424 10.379 47.2166 14.042C46.8681 16.0809 46.0847 17.9843 45.046 19.7662C44.6118 20.511 42.4392 24.3945 41.4452 24.3945H46.7187C47.7128 24.3945 49.8853 20.5109 50.3195 19.7662C51.3582 17.9843 52.1417 16.0809 52.4901 14.042C53.1834 9.9838 52.4883 5.39317 50.2592 1.89153Z" fill="white"/>
<path d="M46.7187 24.3947C45.9212 22.8946 44.5703 20.9759 42.4036 20.3318C39.8039 19.5591 38.443 21.3384 34.9114 21.3266C30.8954 21.313 29.9451 19.0032 26.7063 18.7492C24.3777 18.5668 21.0149 19.4587 16.6278 24.3946V35.0034C16.6278 43.3157 23.3639 50.0543 31.6733 50.0543C39.9827 50.0543 46.7187 43.3157 46.7187 35.0034V24.3947Z" fill="white"/>
<path d="M42.4036 20.332C40.8039 19.8565 39.6726 20.3473 38.2165 20.7926C39.762 21.6515 40.7906 23.1636 41.4452 24.3948V35.0036C41.4835 35.9878 41.5726 40.8774 37.885 44.7231C34.5066 48.2462 29.2582 49.5373 24.2917 48.1205C25.8051 48.9454 27.8515 49.7676 30.3386 49.9936C30.8007 50.0357 31.2461 50.0541 31.6733 50.0543C39.9827 50.0543 46.7187 43.3159 46.7187 35.0034V24.3946C45.9212 22.8946 44.5703 20.9759 42.4036 20.332Z" fill="white"/>
<path d="M87.3782 57.9193C87.3782 59.1727 86.9422 60.433 86.0492 61.4543L82.0958 65.9773L74.4755 58.3553L77.9684 54.372C79.8616 52.2133 83.1171 51.925 85.3602 53.718C86.6908 54.7833 87.3782 56.346 87.3782 57.9193Z" fill="white"/>
<path d="M85.3601 53.718C83.7515 52.4304 81.4732 52.1825 79.6266 53.0975C80.9263 54.1617 81.5983 55.7051 81.5983 57.2596C81.5983 58.5129 81.1624 59.7733 80.2694 60.7946L78.7044 62.5851L82.0956 65.9773L86.049 61.4543C88.0558 59.1619 87.7626 55.6413 85.3601 53.718Z" fill="white"/>
<path d="M48.5451 32.2889H46.7187V25.2698H48.5451C50.4834 25.2698 52.0546 26.8411 52.0546 28.7792C52.0546 30.7176 50.4833 32.2889 48.5451 32.2889Z" fill="white"/>
<path d="M14.8012 32.2889H16.6276V25.2698H14.8012C12.8629 25.2698 11.2917 26.8411 11.2917 28.7792C11.2917 30.7176 12.863 32.2889 14.8012 32.2889Z" fill="white"/>
<path d="M15.9897 77.1804C15.2614 77.1804 14.6713 77.7706 14.6713 78.4987V88.6816C14.6713 89.4097 15.2614 90 15.9897 90C16.718 90 17.3081 89.4097 17.3081 88.6816V78.4987C17.3081 77.7706 16.7178 77.1804 15.9897 77.1804ZM72.3023 77.176C71.7542 76.6966 70.9213 76.7525 70.4419 77.3006L63.4471 85.3004C62.8714 85.9594 62.0723 86.3386 61.1972 86.3681C60.3197 86.3987 59.4992 86.0735 58.8802 85.4553L54.6913 81.2679V78.4987C54.6913 77.7706 54.1011 77.1804 53.3729 77.1804C52.6446 77.1804 52.0545 77.7706 52.0545 78.4987V81.804V81.8239V88.6816C52.0545 89.4097 52.6446 90 53.3729 90C54.1011 90 54.6913 89.4097 54.6913 88.6816V84.9961L57.0164 87.3203C58.0953 88.3983 59.5718 89.0067 61.0933 89.0067C62.7468 89.0067 64.3448 88.2812 65.4324 87.0357L72.4271 79.0363C72.9065 78.4882 72.8504 77.6553 72.3023 77.176ZM24.414 28.464C23.6858 28.464 23.0957 29.0543 23.0957 29.7824V32.6871C23.0957 33.4152 23.6858 34.0055 24.414 34.0055C25.1423 34.0055 25.7324 33.4152 25.7324 32.6871V29.7824C25.7324 29.0543 25.1423 28.464 24.414 28.464ZM38.9323 34.0055C39.6606 34.0055 40.2507 33.4152 40.2507 32.6871V29.7824C40.2507 29.0543 39.6606 28.464 38.9323 28.464C38.204 28.464 37.6139 29.0543 37.6139 29.7824V32.6871C37.6139 33.4152 38.2042 34.0055 38.9323 34.0055ZM87.0635 53.536V39.3546C87.0635 38.0568 86.0075 37.0008 84.7097 37.0008H83.3069C82.2482 37.0008 81.3158 37.7101 81.0393 38.7277C80.8569 39.4031 80.2395 39.8749 79.5383 39.8749C78.838 39.8749 78.2213 39.4031 78.0385 38.7262C77.7627 37.7103 76.8303 37.0008 75.7712 37.0008H74.3686C73.0706 37.0008 72.0147 38.0568 72.0147 39.3546C72.0147 39.6357 71.9957 58.882 72.0351 59.1397L63.5972 68.7643L59.3919 60.9129C57.3848 57.1628 53.6801 54.5125 49.4813 53.8231C47.724 53.5345 43.7265 52.8809 42.252 52.6385C41.1635 52.4594 40.3732 51.5295 40.3732 50.4271V48.8612C44.9739 45.9608 48.0373 40.8336 48.0373 35.0034V33.6073H48.5453C51.2076 33.6073 53.3732 31.4415 53.3732 28.7794C53.3732 26.3344 51.5461 24.3095 49.1858 23.9952C49.8675 23.13 50.6306 21.851 51.4587 20.4303C52.675 18.3435 53.4376 16.3266 53.7898 14.2641C54.573 9.6819 53.6689 4.79191 51.3717 1.18357C50.6526 0.0539802 49.1681 -0.330813 47.9919 0.307814C42.8096 3.12037 37.7858 4.34894 33.062 3.9608C31.4625 3.82914 29.9497 3.52081 28.4866 3.22233C25.02 2.5155 21.746 1.84787 18.5862 3.87994C17.7766 4.40079 17.0444 5.05418 16.41 5.82184C15.9463 6.38312 16.0254 7.21406 16.5867 7.67795C17.1478 8.1415 17.9789 8.06257 18.443 7.50129C18.9037 6.94352 19.4319 6.47119 20.0127 6.09764C22.2705 4.64566 24.7809 5.15772 27.96 5.80584C29.4988 6.11962 31.09 6.44412 32.8459 6.58861C38.0706 7.01805 43.5671 5.69668 49.1857 2.65999C51.1128 5.72568 51.8624 9.89126 51.1909 13.8201C50.8927 15.5656 50.2351 17.2934 49.1808 19.1024C48.276 20.6548 47.4753 21.912 47.0646 22.4223C45.8691 20.6859 44.4326 19.5596 42.7794 19.0681C40.98 18.5332 39.6281 18.9626 38.3209 19.3784C37.3462 19.6881 36.3388 20.0084 34.9466 20.0084C34.9365 20.0084 34.9263 20.0084 34.9161 20.0084C33.0562 20.0021 32.0262 19.4455 30.8334 18.8011C29.7676 18.2252 28.5596 17.5724 26.8095 17.4351C23.6685 17.1884 20.3859 18.7413 17.0316 22.0526C16.15 19.7767 15.2337 16.2199 16.0875 12.5345C16.2518 11.8252 15.8099 11.117 15.1006 10.9525C14.3917 10.7881 13.6831 11.23 13.5187 11.9393C12.3828 16.8423 13.8754 21.4658 14.9645 23.9514C12.2432 23.8686 9.97366 26.0536 9.97366 28.7794C9.97366 31.5946 12.4658 33.8852 15.3096 33.6073V35.0034C15.3096 40.8338 18.3734 45.9613 22.9744 48.8617V50.6962C22.9744 51.7091 22.2869 52.5864 21.3034 52.8299C20.0199 53.1476 11.7185 55.1937 10.3555 55.53C5.04201 56.8405 1.33136 61.5775 1.33136 67.0495V88.6816C1.33136 89.4097 1.92147 90 2.64975 90C3.37803 90 3.96814 89.4097 3.96814 88.6816V67.0495C3.96814 62.7936 6.85418 59.1093 10.9865 58.0901L19.4668 55.9986C22.0886 60.2032 26.6753 62.7751 31.6731 62.7751C36.8586 62.7751 41.5399 60.0559 44.1143 55.6158L49.0544 56.4252C52.4489 56.9827 55.4443 59.1255 57.0672 62.1576L61.3224 70.102C61.7184 70.8431 62.4537 71.3429 63.2891 71.4389C64.1258 71.5348 64.9559 71.2142 65.5103 70.5817L74.4882 60.3412C74.5031 60.3331 80.2945 66.0405 80.2915 66.0359L74.5024 72.6567C74.0232 73.2048 74.0791 74.0377 74.6272 74.517C75.1732 74.9945 76.0064 74.9423 76.4875 74.3924L87.0419 62.3218C89.2128 59.859 89.2019 55.9773 87.0635 53.536ZM48.0371 26.5882H48.5451C49.7533 26.5882 50.7363 27.5712 50.7363 28.7794C50.7363 29.9875 49.7533 30.9705 48.5451 30.9705H48.0371V26.5882ZM15.3094 30.9707H14.8012C13.5931 30.9707 12.6101 29.9877 12.6101 28.7795C12.6101 27.5714 13.5931 26.5884 14.8012 26.5884H15.3094V30.9707ZM17.9462 35.0036V24.9017C21.0787 21.486 23.9865 19.8586 26.6033 20.0638C27.7969 20.1573 28.623 20.6038 29.5797 21.1208C30.8945 21.8313 32.385 22.6367 34.907 22.6452H34.9462C36.7475 22.6452 38.062 22.2273 39.1195 21.8912C40.2553 21.5303 41.0055 21.292 42.0281 21.5956C43.3064 21.9756 44.44 23.03 45.4007 24.7319V35.0036C45.4007 42.5757 39.2427 48.7361 31.6734 48.7361C24.1041 48.7361 17.9462 42.5757 17.9462 35.0036ZM31.6731 60.1384C27.8828 60.1384 24.3822 58.3258 22.1863 55.3164C24.3348 54.6503 25.8275 52.4987 25.6108 50.2077C27.4866 50.9589 29.5324 51.3728 31.6731 51.3728C33.8141 51.3728 35.8603 50.9587 37.7363 50.2074C37.5981 52.4819 39.1645 54.5356 41.3026 55.1246C39.1225 58.2543 35.5727 60.1384 31.6731 60.1384ZM74.6513 39.6376H75.5599C76.123 41.3411 77.7267 42.5117 79.5383 42.5117C81.3512 42.5117 82.9561 41.3401 83.5182 39.6376H84.4269V51.6752C81.872 50.6799 78.8802 51.3333 76.9771 53.5026L74.6515 56.1554V39.6376H74.6513ZM85.0567 60.5864L82.0304 64.0475L76.2812 58.2961L78.9594 55.2412C80.3914 53.6086 82.8411 53.3923 84.5362 54.7472C86.3034 56.1598 86.5635 58.8808 85.0567 60.5864ZM35.2109 42.3519C35.8494 42.0017 36.0828 41.2003 35.7327 40.5619C35.3827 39.9238 34.5813 39.69 33.9426 40.0402C33.4476 40.3117 32.635 40.6304 31.6237 40.6225C30.6474 40.6123 29.8776 40.3003 29.4039 40.0402C28.7647 39.69 27.9638 39.9233 27.6137 40.5617C27.2635 41.2 27.497 42.0014 28.1352 42.3519C28.8735 42.7571 30.0733 43.2433 31.5961 43.2593C33.1353 43.2751 34.4503 42.769 35.2109 42.3519Z" fill="black"/>
</g>
<defs>
<clipPath id="clip0">
<rect width="90" height="90" fill="white"/>
</clipPath>
</defs>
</svg>
