<svg width="90" height="90" viewBox="0 0 90 90" fill="none" xmlns="http://www.w3.org/2000/svg">
<path d="M85.7812 25.3125V75.9375H4.21875V25.3125H85.7812ZM81.5625 71.7188V29.5312H8.4375V71.7188H81.5625Z" fill="white"/>
<path d="M85.7812 16.875V25.3125H4.21875V16.875C4.22098 16.1298 4.51801 15.4157 5.04497 14.8887C5.57194 14.3618 6.28601 14.0647 7.03125 14.0625H12.6562C12.6618 14.8067 12.9599 15.5189 13.4861 16.0451C14.0124 16.5714 14.7245 16.8695 15.4688 16.875H18.2812C19.0265 16.8728 19.7406 16.5757 20.2675 16.0488C20.7945 15.5218 21.0915 14.8077 21.0938 14.0625H40.7812C40.7835 14.8077 41.0805 15.5218 41.6075 16.0488C42.1344 16.5757 42.8485 16.8728 43.5938 16.875H46.4062C47.1515 16.8728 47.8656 16.5757 48.3925 16.0488C48.9195 15.5218 49.2165 14.8077 49.2188 14.0625H68.9062C68.9085 14.8077 69.2055 15.5218 69.7325 16.0488C70.2594 16.5757 70.9735 16.8728 71.7188 16.875H74.5312C75.2765 16.8728 75.9906 16.5757 76.5175 16.0488C77.0445 15.5218 77.3415 14.8077 77.3438 14.0625H82.9688C83.714 14.0647 84.4281 14.3618 84.955 14.8887C85.482 15.4157 85.779 16.1298 85.7812 16.875Z" fill="white"/>
<path d="M81.5625 29.5312V71.7188H8.4375V29.5312H81.5625ZM70.8047 53.1L76.1625 49.2188H69.5391L67.5 42.9328L65.4609 49.2188H58.8375L64.1953 53.1L62.1562 59.4L67.5 55.5047L72.8438 59.4L70.8047 53.1ZM48.3047 53.1L53.6625 49.2188H47.0391L45 42.9328L42.9609 49.2188H36.3375L41.6953 53.1L39.6563 59.4L45 55.5047L50.3438 59.4L48.3047 53.1ZM25.8047 53.1L31.1625 49.2188H24.5391L22.5 42.9328L20.4609 49.2188H13.8375L19.1953 53.1L17.1562 59.4L22.5 55.5047L27.8437 59.4L25.8047 53.1Z" fill="#FB3006"/>
<path d="M74.5312 5.625H71.7188C70.1654 5.625 68.9062 6.8842 68.9062 8.4375V14.0625C68.9062 15.6158 70.1654 16.875 71.7188 16.875H74.5312C76.0846 16.875 77.3438 15.6158 77.3438 14.0625V8.4375C77.3438 6.8842 76.0846 5.625 74.5312 5.625Z" fill="white"/>
<path d="M76.1625 49.2187L70.8047 53.1L72.8437 59.4L67.5 55.5047L62.1563 59.4L64.1953 53.1L58.8375 49.2187H65.4609L67.5 42.9328L69.5391 49.2187H76.1625Z" fill="white"/>
<path d="M53.6625 49.2187L48.3047 53.1L50.3437 59.4L45 55.5047L39.6563 59.4L41.6953 53.1L36.3375 49.2187H42.9609L45 42.9328L47.0391 49.2187H53.6625Z" fill="white"/>
<path d="M46.4062 5.625H43.5938C42.0404 5.625 40.7812 6.8842 40.7812 8.4375V14.0625C40.7812 15.6158 42.0404 16.875 43.5938 16.875H46.4062C47.9596 16.875 49.2188 15.6158 49.2188 14.0625V8.4375C49.2188 6.8842 47.9596 5.625 46.4062 5.625Z" fill="white"/>
<path d="M31.1625 49.2187L25.8047 53.1L27.8438 59.4L22.5 55.5047L17.1563 59.4L19.1953 53.1L13.8375 49.2187H20.4609L22.5 42.9328L24.5391 49.2187H31.1625Z" fill="white"/>
<path d="M21.0938 8.4375V14.0625C21.0915 14.8077 20.7945 15.5218 20.2675 16.0488C19.7406 16.5757 19.0265 16.8728 18.2812 16.875H15.4688C14.7245 16.8695 14.0124 16.5714 13.4861 16.0451C12.9599 15.5189 12.6618 14.8067 12.6562 14.0625V8.4375C12.6585 7.69226 12.9555 6.97819 13.4825 6.45122C14.0094 5.92426 14.7235 5.62723 15.4688 5.625H18.2812C19.0265 5.62723 19.7406 5.92426 20.2675 6.45122C20.7945 6.97819 21.0915 7.69226 21.0938 8.4375Z" fill="white"/>
<path d="M82.9688 12.6562H78.75V8.4375C78.75 7.31862 78.3055 6.24556 77.5144 5.45439C76.7232 4.66322 75.6501 4.21875 74.5312 4.21875H71.7188C70.5999 4.21875 69.5268 4.66322 68.7356 5.45439C67.9445 6.24556 67.5 7.31862 67.5 8.4375V12.6562H50.625V8.4375C50.625 7.31862 50.1805 6.24556 49.3894 5.45439C48.5982 4.66322 47.5251 4.21875 46.4062 4.21875H43.5938C42.4749 4.21875 41.4018 4.66322 40.6106 5.45439C39.8195 6.24556 39.375 7.31862 39.375 8.4375V12.6562H22.5V8.4375C22.5 7.31862 22.0555 6.24556 21.2644 5.45439C20.4732 4.66322 19.4001 4.21875 18.2812 4.21875H15.4688C14.3499 4.21875 13.2768 4.66322 12.4856 5.45439C11.6945 6.24556 11.25 7.31862 11.25 8.4375V12.6562H7.03125C5.91237 12.6562 4.83931 13.1007 4.04814 13.8919C3.25697 14.6831 2.8125 15.7561 2.8125 16.875V75.9375C2.8125 76.3105 2.96066 76.6681 3.22438 76.9319C3.4881 77.1956 3.84579 77.3438 4.21875 77.3438H85.7812C86.1542 77.3438 86.5119 77.1956 86.7756 76.9319C87.0393 76.6681 87.1875 76.3105 87.1875 75.9375V16.875C87.1875 15.7561 86.743 14.6831 85.9519 13.8919C85.1607 13.1007 84.0876 12.6562 82.9688 12.6562ZM70.3125 8.4375C70.3125 8.06454 70.4607 7.70685 70.7244 7.44313C70.9881 7.17941 71.3458 7.03125 71.7188 7.03125H74.5312C74.9042 7.03125 75.2619 7.17941 75.5256 7.44313C75.7893 7.70685 75.9375 8.06454 75.9375 8.4375V14.0625C75.9375 14.4355 75.7893 14.7931 75.5256 15.0569C75.2619 15.3206 74.9042 15.4688 74.5312 15.4688H71.7188C71.3458 15.4688 70.9881 15.3206 70.7244 15.0569C70.4607 14.7931 70.3125 14.4355 70.3125 14.0625V8.4375ZM42.1875 8.4375C42.1875 8.06454 42.3357 7.70685 42.5994 7.44313C42.8631 7.17941 43.2208 7.03125 43.5938 7.03125H46.4062C46.7792 7.03125 47.1369 7.17941 47.4006 7.44313C47.6643 7.70685 47.8125 8.06454 47.8125 8.4375V14.0625C47.8125 14.4355 47.6643 14.7931 47.4006 15.0569C47.1369 15.3206 46.7792 15.4688 46.4062 15.4688H43.5938C43.2208 15.4688 42.8631 15.3206 42.5994 15.0569C42.3357 14.7931 42.1875 14.4355 42.1875 14.0625V8.4375ZM14.0625 8.4375C14.0625 8.06454 14.2107 7.70685 14.4744 7.44313C14.7381 7.17941 15.0958 7.03125 15.4688 7.03125H18.2812C18.6542 7.03125 19.0119 7.17941 19.2756 7.44313C19.5393 7.70685 19.6875 8.06454 19.6875 8.4375V14.0625C19.6875 14.4355 19.5393 14.7931 19.2756 15.0569C19.0119 15.3206 18.6542 15.4688 18.2812 15.4688H15.4688C15.0958 15.4688 14.7381 15.3206 14.4744 15.0569C14.2107 14.7931 14.0625 14.4355 14.0625 14.0625V8.4375ZM7.03125 15.4688H11.4905C11.7824 16.2907 12.3214 17.0023 13.0337 17.5058C13.7459 18.0093 14.5965 18.2802 15.4688 18.2812H18.2812C19.1535 18.2802 20.0041 18.0093 20.7163 17.5058C21.4286 17.0023 21.9676 16.2907 22.2595 15.4688H39.6338C39.9236 16.2885 40.4595 16.9986 41.1684 17.5021C41.8772 18.0055 42.7243 18.2776 43.5938 18.2812H46.4062C47.2757 18.2776 48.1228 18.0055 48.8316 17.5021C49.5405 16.9986 50.0764 16.2885 50.3663 15.4688H67.7588C68.0486 16.2885 68.5845 16.9986 69.2934 17.5021C70.0022 18.0055 70.8493 18.2776 71.7188 18.2812H74.5312C75.4007 18.2776 76.2478 18.0055 76.9566 17.5021C77.6655 16.9986 78.2014 16.2885 78.4912 15.4688H82.9688C83.3417 15.4688 83.6994 15.6169 83.9631 15.8806C84.2268 16.1444 84.375 16.502 84.375 16.875V23.9062H5.625V16.875C5.625 16.502 5.77316 16.1444 6.03688 15.8806C6.3006 15.6169 6.65829 15.4688 7.03125 15.4688ZM5.625 74.5312V26.7188H84.375V74.5312H5.625Z" fill="black"/>
<path d="M40.0401 53.6428L38.3119 58.9613C38.2205 59.2436 38.2208 59.5477 38.3128 59.8298C38.4048 60.112 38.5836 60.3579 38.8238 60.5322C39.064 60.7065 39.3532 60.8004 39.65 60.8004C39.9468 60.8003 40.2359 60.7064 40.4761 60.532L45 57.2456L49.5239 60.532C49.7641 60.7064 50.0532 60.8003 50.35 60.8004C50.6468 60.8004 50.936 60.7065 51.1762 60.5322C51.4164 60.3579 51.5952 60.112 51.6872 59.8298C51.7791 59.5477 51.7795 59.2436 51.6881 58.9613L49.9598 53.6428L54.4823 50.3564C54.7226 50.1818 54.9014 49.9357 54.9932 49.6532C55.0849 49.3708 55.0849 49.0665 54.9931 48.784C54.9013 48.5016 54.7224 48.2555 54.4821 48.0809C54.2418 47.9064 53.9524 47.8124 53.6555 47.8125H48.0656L46.3373 42.4969C46.2449 42.2155 46.0659 41.9706 45.826 41.7969C45.5861 41.6232 45.2976 41.5297 45.0014 41.5297C44.7052 41.5297 44.4166 41.6232 44.1768 41.7969C43.9369 41.9706 43.7579 42.2155 43.6655 42.4969L41.9344 47.8125H36.3445C36.0475 47.8124 35.7581 47.9064 35.5179 48.0809C35.2776 48.2555 35.0987 48.5016 35.0069 48.784C34.9151 49.0665 34.915 49.3708 35.0068 49.6532C35.0986 49.9357 35.2774 50.1818 35.5176 50.3564L40.0401 53.6428ZM42.9567 50.625C43.2537 50.625 43.543 50.531 43.7832 50.3564C44.0235 50.1818 44.2023 49.9357 44.2941 49.6533L44.9972 47.4806L45.7003 49.6533C45.7921 49.9357 45.9709 50.1818 46.2111 50.3564C46.4514 50.531 46.7407 50.625 47.0377 50.625H49.3228L47.475 51.968C47.2348 52.1423 47.056 52.3881 46.9641 52.6703C46.8721 52.9524 46.8718 53.2564 46.9631 53.5387L47.6662 55.7128L45.8184 54.3698C45.5781 54.1951 45.2887 54.1011 44.9916 54.1011C44.6945 54.1011 44.405 54.1951 44.1647 54.3698L42.3169 55.7128L43.02 53.5387C43.1113 53.2564 43.111 52.9524 43.019 52.6703C42.9271 52.3881 42.7483 52.1423 42.5081 51.968L40.6716 50.625H42.9567Z" fill="black"/>
<path d="M62.5402 53.6428L60.8119 58.9613C60.7205 59.2436 60.7208 59.5477 60.8128 59.8298C60.9048 60.112 61.0836 60.3579 61.3238 60.5322C61.564 60.7065 61.8532 60.8004 62.15 60.8004C62.4468 60.8003 62.7359 60.7064 62.9761 60.532L67.5 57.2456L72.0239 60.532C72.2641 60.7064 72.5532 60.8003 72.85 60.8004C73.1468 60.8004 73.436 60.7065 73.6762 60.5322C73.9164 60.3579 74.0952 60.112 74.1872 59.8298C74.2792 59.5477 74.2795 59.2436 74.1881 58.9613L72.4598 53.6428L76.9823 50.3564C77.2226 50.1818 77.4014 49.9357 77.4932 49.6532C77.5849 49.3708 77.5849 49.0665 77.4931 48.784C77.4013 48.5016 77.2224 48.2555 76.9821 48.0809C76.7418 47.9064 76.4525 47.8124 76.1555 47.8125H70.5656L68.8373 42.4969C68.7449 42.2155 68.5659 41.9706 68.326 41.7969C68.0862 41.6232 67.7976 41.5297 67.5014 41.5297C67.2053 41.5297 66.9167 41.6232 66.6768 41.7969C66.4369 41.9706 66.2579 42.2155 66.1655 42.4969L64.4344 47.8125H58.8445C58.5475 47.8124 58.2582 47.9064 58.0179 48.0809C57.7776 48.2555 57.5987 48.5016 57.5069 48.784C57.4151 49.0665 57.4151 49.3708 57.5068 49.6532C57.5986 49.9357 57.7774 50.1818 58.0177 50.3564L62.5402 53.6428ZM65.4567 50.625C65.7537 50.625 66.043 50.531 66.2833 50.3564C66.5235 50.1818 66.7023 49.9357 66.7941 49.6533L67.4972 47.4806L68.2003 49.6533C68.2921 49.9357 68.4709 50.1818 68.7111 50.3564C68.9514 50.531 69.2407 50.625 69.5377 50.625H71.8228L69.975 51.968C69.7349 52.1423 69.556 52.3881 69.4641 52.6703C69.3721 52.9524 69.3718 53.2564 69.4631 53.5387L70.1663 55.7128L68.3184 54.3698C68.0781 54.1951 67.7887 54.1011 67.4916 54.1011C67.1945 54.1011 66.905 54.1951 66.6647 54.3698L64.8169 55.7128L65.52 53.5387C65.6113 53.2564 65.611 52.9524 65.5191 52.6703C65.4271 52.3881 65.2483 52.1423 65.0081 51.968L63.1716 50.625H65.4567Z" fill="black"/>
<path d="M17.5402 53.6428L15.8119 58.9613C15.7205 59.2436 15.7208 59.5477 15.8128 59.8298C15.9048 60.112 16.0836 60.3579 16.3238 60.5322C16.564 60.7065 16.8532 60.8004 17.15 60.8004C17.4468 60.8003 17.7359 60.7064 17.9761 60.532L22.5 57.2456L27.0239 60.532C27.2641 60.7064 27.5532 60.8003 27.85 60.8004C28.1468 60.8004 28.436 60.7065 28.6762 60.5322C28.9164 60.3579 29.0952 60.112 29.1872 59.8298C29.2791 59.5477 29.2795 59.2436 29.1881 58.9613L27.4598 53.6428L31.9823 50.3564C32.2226 50.1818 32.4014 49.9357 32.4932 49.6532C32.5849 49.3708 32.5849 49.0665 32.4931 48.784C32.4013 48.5016 32.2224 48.2555 31.9821 48.0809C31.7418 47.9064 31.4525 47.8124 31.1555 47.8125H25.5656L23.8373 42.4969C23.7449 42.2155 23.5659 41.9706 23.326 41.7969C23.0861 41.6232 22.7976 41.5297 22.5014 41.5297C22.2052 41.5297 21.9167 41.6232 21.6768 41.7969C21.4369 41.9706 21.2579 42.2155 21.1655 42.4969L19.4344 47.8125H13.8445C13.5475 47.8124 13.2582 47.9064 13.0179 48.0809C12.7776 48.2555 12.5987 48.5016 12.5069 48.784C12.4151 49.0665 12.4151 49.3708 12.5068 49.6532C12.5986 49.9357 12.7774 50.1818 13.0177 50.3564L17.5402 53.6428ZM20.4567 50.625C20.7537 50.625 21.043 50.531 21.2832 50.3564C21.5235 50.1818 21.7023 49.9357 21.7941 49.6533L22.4972 47.4806L23.2003 49.6533C23.2921 49.9357 23.4709 50.1818 23.7111 50.3564C23.9514 50.531 24.2407 50.625 24.5377 50.625H26.8228L24.975 51.968C24.7349 52.1423 24.556 52.3881 24.4641 52.6703C24.3721 52.9524 24.3718 53.2564 24.4631 53.5387L25.1662 55.7128L23.3184 54.3698C23.0781 54.1951 22.7887 54.1011 22.4916 54.1011C22.1945 54.1011 21.905 54.1951 21.6647 54.3698L19.8169 55.7128L20.52 53.5387C20.6113 53.2564 20.611 52.9524 20.519 52.6703C20.4271 52.3881 20.2483 52.1423 20.0081 51.968L18.1716 50.625H20.4567Z" fill="black"/>
<path d="M81.5625 28.125H8.4375C8.06454 28.125 7.70685 28.2732 7.44313 28.5369C7.17941 28.8006 7.03125 29.1583 7.03125 29.5312V71.7188C7.03125 72.0917 7.17941 72.4494 7.44313 72.7131C7.70685 72.9768 8.06454 73.125 8.4375 73.125H81.5625C81.9355 73.125 82.2931 72.9768 82.5569 72.7131C82.8206 72.4494 82.9688 72.0917 82.9688 71.7188V29.5312C82.9688 29.1583 82.8206 28.8006 82.5569 28.5369C82.2931 28.2732 81.9355 28.125 81.5625 28.125ZM80.1562 70.3125H9.84375V30.9375H80.1562V70.3125Z" fill="black"/>
</svg>
