<svg width="160" height="28" viewBox="0 0 160 28" fill="none" xmlns="http://www.w3.org/2000/svg">
<path d="M46.2139 0.319399C46.5592 0.261963 46.9943 0.233245 47.505 0.233245C48.0156 0.233245 48.4348 0.261963 48.7808 0.319399L43.3468 9.51273C43.0008 9.57017 42.5801 9.59745 42.0703 9.59745C41.5604 9.59745 41.1252 9.56873 40.7792 9.51273L42.7455 6.20299L39.2626 0.320117C39.6078 0.262681 40.043 0.233963 40.5536 0.233963C41.0643 0.233963 41.485 0.262681 41.8302 0.320117L44.0221 4.2236L46.2139 0.319399ZM58.2524 0.319399C59.0489 0.191604 59.8453 0.191604 60.6402 0.319399V9.51273C59.8445 9.63981 59.0489 9.63981 58.2532 9.51273V5.80668H54.2139V9.5113C53.4191 9.63909 52.6234 9.63909 51.8285 9.5113V0.320117C52.6234 0.192322 53.4191 0.192322 54.2139 0.320117V3.92637H58.2532L58.2524 0.319399ZM73.0392 9.51273C72.2435 9.63981 71.4478 9.63981 70.6514 9.51273V4.12453L66.1015 9.51273C65.4865 9.61181 64.8562 9.61181 64.2267 9.51273V0.319399C65.0209 0.191604 65.8165 0.191604 66.6122 0.319399V5.7076L71.1628 0.319399C71.7786 0.220322 72.4096 0.220322 73.0399 0.319399L73.0392 9.51273ZM80.7991 0.30504C81.7441 0.30504 82.5108 0.531194 83.0969 0.98422C83.6814 1.43653 83.981 2.01807 83.981 2.72453C83.981 3.65786 83.5313 4.33632 82.6457 4.76063C83.1106 4.95878 83.4864 5.24165 83.7561 5.60924C84.0267 5.97683 84.1616 6.4155 84.1616 6.91089C84.1616 7.71642 83.8613 8.35396 83.2623 8.82063C82.6602 9.2873 81.8493 9.51273 80.8288 9.51273H76.5968V0.318681L80.7991 0.30504ZM78.9982 4.09581H80.5301C80.8456 4.09581 81.1017 4.01109 81.296 3.84166C81.4911 3.67222 81.581 3.43242 81.581 3.13519C81.581 2.49909 81.235 2.1875 80.5293 2.1875H78.9974V4.09724L78.9982 4.09581ZM78.9982 7.63099H80.6802C81.3859 7.63099 81.7319 7.30504 81.7319 6.64022C81.7319 6.00412 81.3562 5.67817 80.5903 5.67817H78.9974L78.9982 7.63099ZM94.0547 7.63171C94.1751 8.25345 94.1751 8.87591 94.0547 9.51273H87.2535V0.318681H94.0547C94.1751 0.954784 94.1751 1.57725 94.0547 2.19971H89.6573V3.92494H93.5441C93.6645 4.56176 93.6645 5.1835 93.5441 5.80596H89.6573V7.62955H94.0547V7.63171ZM101.034 0.319399C102.13 0.319399 103.016 0.601553 103.692 1.16658C104.368 1.73376 104.713 2.48258 104.713 3.40227C104.713 4.32124 104.368 5.07007 103.692 5.63653C103.016 6.20227 102.129 6.48371 101.034 6.48371H99.6076V9.5113C98.8119 9.63765 98.017 9.63765 97.2221 9.5113V0.318681L101.034 0.319399ZM101.019 4.57683C101.364 4.57683 101.665 4.47776 101.905 4.2796C102.145 4.08289 102.266 3.78566 102.266 3.38935C102.266 2.99448 102.146 2.69653 101.905 2.49909C101.666 2.30094 101.379 2.20114 101.035 2.20114H99.6083V4.60627L101.02 4.57755L101.019 4.57683ZM113.209 7.8155C114.093 7.8155 115.04 7.51827 116.046 6.93817C116.12 7.0516 116.151 7.37612 116.136 7.92894C116.12 8.48032 116.09 8.83355 116.031 8.98935C115.22 9.45601 114.23 9.69724 113.058 9.69724C111.392 9.69724 110.056 9.23058 109.05 8.3116C108.044 7.39263 107.548 6.24607 107.548 4.88842C107.548 3.53078 108.059 2.38566 109.065 1.46596C110.071 0.546989 111.407 0.0803223 113.074 0.0803223C114.244 0.0803223 115.235 0.321553 116.046 0.787502C116.107 0.943296 116.136 1.29725 116.151 1.84863C116.166 2.40001 116.136 2.72453 116.061 2.8394C115.055 2.25786 114.11 1.96135 113.224 1.96135C112.307 1.96135 111.541 2.23058 110.926 2.7676C110.31 3.30607 110.01 4.01253 110.01 4.9035C110.01 5.79376 110.31 6.50165 110.926 7.0394C111.541 7.57642 112.307 7.84494 113.223 7.84494L113.208 7.81622L113.209 7.8155ZM128.505 9.51273C127.71 9.63981 126.914 9.63981 126.118 9.51273V4.12453L121.568 9.51273C120.954 9.61181 120.324 9.61181 119.693 9.51273V0.319399C120.488 0.191604 121.284 0.191604 122.079 0.319399V5.7076L126.629 0.319399C127.244 0.220322 127.875 0.220322 128.506 0.319399L128.505 9.51273ZM139.253 0.319399C139.373 0.955502 139.373 1.57796 139.253 2.20042H136.61V9.51273C135.815 9.63981 135.019 9.63981 134.223 9.51273V2.20042H131.582C131.46 1.5636 131.46 0.941861 131.582 0.319399H139.253ZM149.191 7.63171C149.31 8.25345 149.31 8.87591 149.191 9.51273H142.389V0.318681H149.191C149.31 0.954784 149.31 1.57725 149.191 2.19971H144.792V3.92494H148.68C148.8 4.56176 148.8 5.1835 148.68 5.80596H144.792V7.62955H149.191V7.63171ZM159.549 0.319399C159.668 0.955502 159.668 1.57796 159.549 2.20042H156.906V9.51273C156.111 9.63981 155.315 9.63981 154.519 9.51273V2.20042H151.878C151.756 1.5636 151.756 0.941861 151.878 0.319399H159.549ZM47.5919 24.6212C48.9789 24.6212 50.462 24.156 52.0381 23.2471C52.1554 23.4237 52.2027 23.9342 52.1798 24.7979C52.1555 25.6616 52.109 26.2172 52.0145 26.4599C50.744 27.1908 49.1916 27.5677 47.3564 27.5677C44.7453 27.5677 42.6518 26.8354 41.0749 25.3959C39.4996 23.955 38.723 22.1594 38.723 20.0328C38.723 17.9063 39.5232 16.11 41.0986 14.6698C42.6762 13.2288 44.7705 12.4972 47.3815 12.4972C49.2167 12.4972 50.7691 12.8742 52.0396 13.6058C52.1333 13.8499 52.1814 14.4041 52.2042 15.2685C52.2271 16.1329 52.1814 16.6427 52.0625 16.8193C50.4872 15.9104 49.0048 15.4459 47.6162 15.4459C46.1812 15.4459 44.9816 15.8673 44.0175 16.7094C43.0526 17.5509 42.5824 18.6587 42.5824 20.0551C42.5824 21.4515 43.0526 22.5607 44.0175 23.4022C44.9816 24.2443 46.1819 24.6658 47.6162 24.6658L47.5934 24.6227L47.5919 24.6212ZM69.2118 27.2798C67.9642 27.4787 66.7173 27.4787 65.4697 27.2798V18.8367L58.3416 27.2798C57.3775 27.4356 56.3906 27.4356 55.4013 27.2798V12.8749C56.6474 12.6753 57.8935 12.6753 59.1411 12.8749V21.318L66.27 12.8749C67.2348 12.7198 68.2225 12.7198 69.2118 12.8749V27.2798ZM82.5261 12.8749C83.7729 12.6753 85.0182 12.6753 86.2658 12.8749V27.2798C85.019 27.4787 83.7737 27.4787 82.5253 27.2798V21.4738H76.1959V27.2798C74.9498 27.4787 73.7037 27.4787 72.4561 27.2798V12.8749C73.703 12.6753 74.9498 12.6753 76.1959 12.8749V18.5266H82.5245V12.8749H82.5261ZM100.239 24.3312C100.428 25.3076 100.428 26.284 100.239 27.2791H89.5833V12.8749H100.239C100.428 13.8728 100.428 14.8471 100.239 15.8213H93.3467V18.5259H99.4399C99.6281 19.5238 99.6281 20.4981 99.4399 21.4738H93.3467V24.3312H100.239ZM108.825 12.8742C110.543 12.8742 111.931 13.3179 112.99 14.2045C114.049 15.0912 114.59 16.265 114.59 17.706C114.59 19.1462 114.049 20.3207 112.99 21.2074C111.93 22.0941 110.543 22.5356 108.825 22.5356H106.591V27.2784C105.344 27.4794 104.097 27.4794 102.849 27.2784V12.8742H108.825ZM108.803 19.5453C109.344 19.5453 109.814 19.3903 110.19 19.0808C110.566 18.77 110.755 18.3054 110.755 17.6844C110.755 17.0634 110.566 16.5989 110.191 16.2887C109.814 15.9779 109.367 15.8221 108.825 15.8221H106.591V19.5913L108.803 19.5453ZM127.363 12.8749C127.552 13.8728 127.552 14.8478 127.363 15.8213H121.059V27.2798C119.811 27.4787 118.565 27.4787 117.317 27.2798V12.8749H127.363ZM143.69 27.2798C142.443 27.4787 141.197 27.4787 139.949 27.2798V18.8367L132.821 27.2798C131.857 27.4356 130.868 27.4356 129.881 27.2798V12.8749C131.127 12.6753 132.373 12.6753 133.621 12.8749V21.318L140.749 12.8749C141.713 12.7198 142.702 12.7198 143.69 12.8749V27.2798ZM158.675 27.2575C157.428 27.4571 156.181 27.4571 154.933 27.2575V22.3827H153.475L150.111 27.2575C149.57 27.3466 148.888 27.3911 148.065 27.3911C147.242 27.3911 146.559 27.3466 146.018 27.2575L149.734 21.8514C148.816 21.4738 148.111 20.9195 147.594 20.1886C147.076 19.4563 146.817 18.6163 146.817 17.6614C146.817 16.2428 147.335 15.0912 148.37 14.2045C149.405 13.3179 150.793 12.8749 152.51 12.8749H158.697L158.674 27.2575H158.675ZM152.535 15.7991C151.994 15.7991 151.546 15.9556 151.171 16.2643C150.793 16.5752 150.607 17.0182 150.607 17.6169C150.607 18.2157 150.793 18.658 151.171 18.9688C151.546 19.2811 152.017 19.4355 152.558 19.4355H154.91V15.8005H152.535V15.7991Z" fill="white"/>
<path d="M0.666626 27.374H29.452V0.25708H0.666626V27.374ZM25.8548 23.9831H4.26537V3.6458H25.8548V23.9831ZM18.5445 22.8201L8.98596 13.8155L18.5445 4.80888V9.60262L14.0731 13.8148L18.5453 18.027V22.8201H18.5445Z" fill="white"/>
</svg>
