<svg width="34" height="34" viewBox="0 0 34 34" fill="none" xmlns="http://www.w3.org/2000/svg">
<path d="M24.6783 19.3878C24.616 19.3579 22.2831 18.2091 21.8686 18.0599C21.6993 17.9992 21.518 17.9398 21.3252 17.9398C21.0102 17.9398 20.7456 18.0968 20.5394 18.4052C20.3064 18.7516 19.6009 19.5762 19.383 19.8225C19.3545 19.8551 19.3156 19.8939 19.2924 19.8939C19.2715 19.8939 18.9104 19.7452 18.8011 19.6978C16.2986 18.6107 14.3991 15.9966 14.1386 15.5557C14.1014 15.4924 14.0998 15.4636 14.0995 15.4636C14.1087 15.43 14.1928 15.3457 14.2362 15.3021C14.3633 15.1764 14.501 15.0107 14.6342 14.8504C14.6972 14.7744 14.7604 14.6984 14.8224 14.6267C15.0157 14.4019 15.1017 14.2273 15.2014 14.0251L15.2537 13.9201C15.4972 13.4362 15.2892 13.0279 15.222 12.8961C15.1668 12.7858 14.1818 10.4084 14.0771 10.1586C13.8252 9.55593 13.4925 9.27531 13.03 9.27531C12.9871 9.27531 13.03 9.27531 12.8501 9.28289C12.6309 9.29214 11.4377 9.44923 10.9101 9.7818C10.3506 10.1345 9.40414 11.2589 9.40414 13.2362C9.40414 15.0159 10.5335 16.6962 11.0184 17.3353C11.0304 17.3514 11.0526 17.3841 11.0847 17.4311C12.9416 20.143 15.2565 22.1527 17.6032 23.0902C19.8624 23.9926 20.9323 24.0969 21.5405 24.0969C21.796 24.0969 22.0007 24.0769 22.1812 24.0591L22.2957 24.0482C23.0762 23.979 24.7913 23.0903 25.1814 22.0061C25.4887 21.1522 25.5698 20.2192 25.3653 19.8806C25.2252 19.6504 24.9839 19.5345 24.6783 19.3878Z" fill="black"/>
<path d="M17.284 1C8.61744 1 1.56663 7.99782 1.56663 16.5993C1.56663 19.3813 2.31115 22.1045 3.72154 24.4879L1.022 32.451C0.971716 32.5995 1.00912 32.7637 1.11894 32.8755C1.19821 32.9564 1.30574 33 1.41556 33C1.45764 33 1.50003 32.9937 1.54138 32.9805L9.84476 30.3419C12.117 31.556 14.6851 32.1968 17.2841 32.1968C25.9499 32.1969 33 25.1998 33 16.5993C33 7.99782 25.9499 1 17.284 1ZM17.284 28.9474C14.8384 28.9474 12.4697 28.2413 10.4335 26.9052C10.3651 26.8602 10.2856 26.8371 10.2056 26.8371C10.1633 26.8371 10.1209 26.8436 10.0797 26.8566L5.92019 28.1788L7.26294 24.2174C7.30637 24.0892 7.28466 23.9478 7.20466 23.8385C5.65411 21.7198 4.83447 19.2166 4.83447 16.5993C4.83447 9.78962 10.4193 4.24946 17.2839 4.24946C24.1477 4.24946 29.7319 9.78962 29.7319 16.5993C29.7321 23.4081 24.1479 28.9474 17.284 28.9474Z" fill="black"/>
<path d="M24.6783 19.3878C24.616 19.3579 22.2831 18.2091 21.8686 18.0599C21.6993 17.9992 21.518 17.9398 21.3252 17.9398C21.0102 17.9398 20.7456 18.0968 20.5394 18.4052C20.3064 18.7516 19.6009 19.5762 19.383 19.8225C19.3545 19.8551 19.3156 19.8939 19.2924 19.8939C19.2715 19.8939 18.9104 19.7452 18.8011 19.6978C16.2986 18.6107 14.3991 15.9966 14.1386 15.5557C14.1014 15.4924 14.0998 15.4636 14.0995 15.4636C14.1087 15.43 14.1928 15.3457 14.2362 15.3021C14.3633 15.1764 14.501 15.0107 14.6342 14.8504C14.6972 14.7744 14.7604 14.6984 14.8224 14.6267C15.0157 14.4019 15.1017 14.2273 15.2014 14.0251L15.2537 13.9201C15.4972 13.4362 15.2892 13.0279 15.222 12.8961C15.1668 12.7858 14.1818 10.4084 14.0771 10.1586C13.8252 9.55593 13.4925 9.27531 13.03 9.27531C12.9871 9.27531 13.03 9.27531 12.8501 9.28289C12.6309 9.29214 11.4377 9.44923 10.9101 9.7818C10.3506 10.1345 9.40414 11.2589 9.40414 13.2362C9.40414 15.0159 10.5335 16.6962 11.0184 17.3353C11.0304 17.3514 11.0526 17.3841 11.0847 17.4311C12.9416 20.143 15.2565 22.1527 17.6032 23.0902C19.8624 23.9926 20.9323 24.0969 21.5405 24.0969C21.796 24.0969 22.0007 24.0769 22.1812 24.0591L22.2957 24.0482C23.0762 23.979 24.7913 23.0903 25.1814 22.0061C25.4887 21.1522 25.5698 20.2192 25.3653 19.8806C25.2252 19.6504 24.9839 19.5345 24.6783 19.3878Z" stroke="white"/>
<path d="M17.284 1C8.61744 1 1.56663 7.99782 1.56663 16.5993C1.56663 19.3813 2.31115 22.1045 3.72154 24.4879L1.022 32.451C0.971716 32.5995 1.00912 32.7637 1.11894 32.8755C1.19821 32.9564 1.30574 33 1.41556 33C1.45764 33 1.50003 32.9937 1.54138 32.9805L9.84476 30.3419C12.117 31.556 14.6851 32.1968 17.2841 32.1968C25.9499 32.1969 33 25.1998 33 16.5993C33 7.99782 25.9499 1 17.284 1ZM17.284 28.9474C14.8384 28.9474 12.4697 28.2413 10.4335 26.9052C10.3651 26.8602 10.2856 26.8371 10.2056 26.8371C10.1633 26.8371 10.1209 26.8436 10.0797 26.8566L5.92019 28.1788L7.26294 24.2174C7.30637 24.0892 7.28466 23.9478 7.20466 23.8385C5.65411 21.7198 4.83447 19.2166 4.83447 16.5993C4.83447 9.78962 10.4193 4.24946 17.2839 4.24946C24.1477 4.24946 29.7319 9.78962 29.7319 16.5993C29.7321 23.4081 24.1479 28.9474 17.284 28.9474Z" stroke="white"/>
</svg>
