<svg width="90" height="90" viewBox="0 0 90 90" fill="none" xmlns="http://www.w3.org/2000/svg">
<path d="M85.7812 59.0625V70.3125L81.5625 66.0938L77.3438 70.3125V59.0625L81.5625 54.8438L85.7812 59.0625Z" fill="#FF7956"/>
<path d="M85.7812 28.125L81.5625 30.6L71.7188 36.3656L45 52.0312L18.2812 36.3656L4.21875 28.125L45 4.21875L85.7812 28.125Z" fill="#FB3006"/>
<path d="M71.7188 36.3657V46.4063L45 63.2813L18.2812 46.4063V36.3657L45 52.0313L71.7188 36.3657Z" fill="white"/>
<path d="M21.0938 68.9063V82.9688C21.0915 83.714 20.7945 84.4281 20.2675 84.955C19.7406 85.482 19.0265 85.779 18.2812 85.7813H7.03125C6.28601 85.779 5.57194 85.482 5.04497 84.955C4.51801 84.4281 4.22098 83.714 4.21875 82.9688V68.9063C4.21875 66.6685 5.1077 64.5224 6.69004 62.94C8.27238 61.3577 10.4185 60.4688 12.6562 60.4688C14.893 60.4721 17.0372 61.3621 18.6188 62.9437C20.2004 64.5253 21.0904 66.6695 21.0938 68.9063Z" fill="white"/>
<path d="M82.9688 54.2615V31.4029L86.4928 29.3372C86.704 29.213 86.879 29.0358 87.0006 28.8232C87.1222 28.6106 87.1862 28.3699 87.1862 28.125C87.1862 27.88 87.1222 27.6393 87.0006 27.4267C86.879 27.2141 86.704 27.037 86.4928 26.9128L45.7116 3.00654C45.4958 2.87996 45.2502 2.81323 45 2.81323C44.7498 2.81323 44.5042 2.87996 44.2884 3.00654L3.50719 26.9128C3.29605 27.037 3.121 27.2141 2.99938 27.4267C2.87776 27.6393 2.81378 27.88 2.81378 28.125C2.81378 28.3699 2.87776 28.6106 2.99938 28.8232C3.121 29.0358 3.29605 29.213 3.50719 29.3372L16.875 37.1742V46.4062C16.8749 46.6437 16.9349 46.8774 17.0495 47.0854C17.1641 47.2935 17.3295 47.4691 17.5303 47.5959L43.5938 64.0575V78.75C43.5938 80.2418 43.0011 81.6726 41.9462 82.7274C40.8913 83.7823 39.4606 84.375 37.9688 84.375C36.4769 84.375 35.0462 83.7823 33.9913 82.7274C32.9364 81.6726 32.3438 80.2418 32.3438 78.75V63.2812C32.3438 62.1623 31.8993 61.0893 31.1081 60.2981C30.3169 59.507 29.2439 59.0625 28.125 59.0625H25.3125V56.25C25.3125 55.5041 25.0162 54.7887 24.4887 54.2612C23.9613 53.7338 23.2459 53.4375 22.5 53.4375H14.0625C13.3166 53.4375 12.6012 53.7338 12.0738 54.2612C11.5463 54.7887 11.25 55.5041 11.25 56.25V59.175C8.90916 59.5128 6.76822 60.6822 5.21885 62.4692C3.66948 64.2561 2.81527 66.5411 2.8125 68.9062V82.9687C2.8125 84.0876 3.25697 85.1607 4.04814 85.9518C4.83931 86.743 5.91237 87.1875 7.03125 87.1875H18.2812C19.4001 87.1875 20.4732 86.743 21.2644 85.9518C22.0555 85.1607 22.5 84.0876 22.5 82.9687V68.9062C22.4972 66.5411 21.643 64.2561 20.0937 62.4692C18.5443 60.6822 16.4033 59.5128 14.0625 59.175V56.25H22.5V59.0625C22.5 59.8084 22.7963 60.5238 23.3238 61.0512C23.8512 61.5787 24.5666 61.875 25.3125 61.875H28.125C28.498 61.875 28.8556 62.0231 29.1194 62.2869C29.3831 62.5506 29.5312 62.9083 29.5312 63.2812V78.75C29.5312 80.9877 30.4202 83.1339 32.0025 84.7162C33.5849 86.2985 35.731 87.1875 37.9688 87.1875C40.2065 87.1875 42.3526 86.2985 43.935 84.7162C45.5173 83.1339 46.4062 80.9877 46.4062 78.75V64.0575L72.4697 47.5959C72.6705 47.4691 72.8359 47.2935 72.9505 47.0854C73.0651 46.8774 73.1251 46.6437 73.125 46.4062V37.1742L80.1562 33.0469V54.2615L76.3495 58.0683C76.0858 58.3319 75.9376 58.6895 75.9375 59.0625V70.3125C75.9376 70.5906 76.0201 70.8624 76.1746 71.0936C76.3291 71.3248 76.5487 71.505 76.8056 71.6114C77.0626 71.7178 77.3453 71.7457 77.618 71.6914C77.8908 71.6372 78.1413 71.5033 78.338 71.3067L81.5625 68.0822L84.787 71.3067C85.0507 71.5704 85.4083 71.7186 85.7812 71.7187C85.9661 71.7193 86.1492 71.683 86.3198 71.6118C86.5767 71.5053 86.7963 71.325 86.9507 71.0938C87.1052 70.8625 87.1876 70.5906 87.1875 70.3125V59.0625C87.1874 58.6895 87.0392 58.3319 86.7755 58.0683L82.9688 54.2615ZM19.6875 68.9062V82.9687C19.6875 83.3417 19.5393 83.6994 19.2756 83.9631C19.0119 84.2268 18.6542 84.375 18.2812 84.375H7.03125C6.65829 84.375 6.3006 84.2268 6.03688 83.9631C5.77316 83.6994 5.625 83.3417 5.625 82.9687V68.9062C5.625 67.0414 6.36579 65.253 7.68441 63.9344C9.00302 62.6158 10.7914 61.875 12.6562 61.875C14.5211 61.875 16.3095 62.6158 17.6281 63.9344C18.9467 65.253 19.6875 67.0414 19.6875 68.9062ZM70.3125 45.6314L45 61.6176L19.6875 45.6314V38.8223L44.2884 53.2434C44.5042 53.37 44.7498 53.4367 45 53.4367C45.2502 53.4367 45.4958 53.37 45.7116 53.2434L70.3125 38.8223V45.6314ZM45 50.4014L7.00031 28.125L45 5.84858L82.9997 28.125L45 50.4014ZM84.375 66.9178L82.5567 65.0995C82.293 64.8359 81.9354 64.6878 81.5625 64.6878C81.1896 64.6878 80.832 64.8359 80.5683 65.0995L78.75 66.9178V59.6447L81.5625 56.8322L84.375 59.6447V66.9178Z" fill="black"/>
<path d="M11.25 64.6875H14.0625V75.9375H11.25V64.6875Z" fill="black"/>
</svg>
