<svg width="153" height="28" viewBox="0 0 153 28" fill="none" xmlns="http://www.w3.org/2000/svg">
<path d="M43.7255 0.319399C44.0569 0.261963 44.4747 0.233245 44.9649 0.233245C45.4551 0.233245 45.8575 0.261963 46.1897 0.319399L40.9731 9.51273C40.6409 9.57017 40.2371 9.59745 39.7476 9.59745C39.2581 9.59745 38.8404 9.56873 38.5082 9.51273L40.3958 6.20299L37.0522 0.320117C37.3837 0.262681 37.8014 0.233963 38.2916 0.233963C38.7818 0.233963 39.1857 0.262681 39.5171 0.320117L41.6213 4.2236L43.7255 0.319399ZM55.2825 0.319399C56.047 0.191604 56.8116 0.191604 57.5747 0.319399V9.51273C56.8109 9.63981 56.047 9.63981 55.2832 9.51273V5.80668H51.4055V9.5113C50.6424 9.63909 49.8786 9.63909 49.1155 9.5113V0.320117C49.8786 0.192322 50.6424 0.192322 51.4055 0.320117V3.92637H55.2832L55.2825 0.319399ZM69.4777 9.51273C68.7139 9.63981 67.9501 9.63981 67.1855 9.51273V4.12453L62.8176 9.51273C62.2272 9.61181 61.6221 9.61181 61.0178 9.51273V0.319399C61.7802 0.191604 62.544 0.191604 63.3078 0.319399V5.7076L67.6764 0.319399C68.2676 0.220322 68.8734 0.220322 69.4785 0.319399L69.4777 9.51273ZM76.9273 0.30504C77.8345 0.30504 78.5705 0.531194 79.1332 0.98422C79.6943 1.43653 79.9819 2.01807 79.9819 2.72453C79.9819 3.65786 79.5502 4.33632 78.7 4.76063C79.1463 4.95878 79.507 5.24166 79.766 5.60924C80.0258 5.97683 80.1553 6.4155 80.1553 6.91089C80.1553 7.71642 79.867 8.35396 79.2919 8.82063C78.7139 9.2873 77.9355 9.51273 76.9558 9.51273H72.893V0.318681L76.9273 0.30504ZM75.1984 4.09581H76.669C76.9719 4.09581 77.2177 4.01109 77.4043 3.84166C77.5916 3.67222 77.6779 3.43242 77.6779 3.13519C77.6779 2.49909 77.3458 2.1875 76.6683 2.1875H75.1977V4.09724L75.1984 4.09581ZM75.1984 7.63099H76.8131C77.4906 7.63099 77.8228 7.30504 77.8228 6.64022C77.8228 6.00412 77.4621 5.67817 76.7268 5.67817H75.1977L75.1984 7.63099ZM89.6527 7.63171C89.7683 8.25345 89.7683 8.87591 89.6527 9.51273H83.1235V0.318681H89.6527C89.7683 0.954784 89.7683 1.57725 89.6527 2.19971H85.4311V3.92494H89.1625C89.2781 4.56176 89.2781 5.1835 89.1625 5.80596H85.4311V7.62955H89.6527V7.63171ZM96.353 0.319399C97.4051 0.319399 98.2553 0.601553 98.9042 1.16658C99.5532 1.73376 99.8846 2.48258 99.8846 3.40227C99.8846 4.32125 99.5532 5.07007 98.9042 5.63653C98.2553 6.20227 97.4044 6.48371 96.353 6.48371H94.9834V9.5113C94.2196 9.63766 93.4564 9.63766 92.6933 9.5113V0.318681L96.353 0.319399ZM96.3384 4.57683C96.6698 4.57683 96.9588 4.47776 97.1885 4.2796C97.4197 4.08289 97.5353 3.78566 97.5353 3.38935C97.5353 2.99448 97.4205 2.69653 97.1893 2.49909C96.9595 2.30094 96.6844 2.20114 96.3537 2.20114H94.9841V4.60627L96.3391 4.57755L96.3384 4.57683ZM108.041 7.8155C108.89 7.8155 109.798 7.51827 110.764 6.93817C110.836 7.0516 110.865 7.37612 110.85 7.92894C110.836 8.48032 110.807 8.83355 110.749 8.98935C109.972 9.45601 109.021 9.69724 107.896 9.69724C106.296 9.69724 105.013 9.23058 104.048 8.3116C103.082 7.39263 102.606 6.24607 102.606 4.88842C102.606 3.53078 103.097 2.38566 104.062 1.46596C105.028 0.546989 106.311 0.0803223 107.911 0.0803223C109.035 0.0803223 109.986 0.321553 110.764 0.787502C110.823 0.943297 110.85 1.29725 110.865 1.84863C110.88 2.40001 110.85 2.72453 110.779 2.8394C109.813 2.25786 108.906 1.96135 108.055 1.96135C107.175 1.96135 106.439 2.23058 105.849 2.7676C105.258 3.30607 104.97 4.01253 104.97 4.9035C104.97 5.79376 105.258 6.50166 105.849 7.0394C106.439 7.57642 107.175 7.84494 108.054 7.84494L108.039 7.81622L108.041 7.8155ZM122.725 9.51273C121.962 9.63981 121.198 9.63981 120.433 9.51273V4.12453L116.066 9.51273C115.476 9.61181 114.871 9.61181 114.266 9.51273V0.319399C115.029 0.191604 115.793 0.191604 116.556 0.319399V5.7076L120.924 0.319399C121.515 0.220322 122.121 0.220322 122.726 0.319399L122.725 9.51273ZM133.043 0.319399C133.158 0.955502 133.158 1.57796 133.043 2.20042H130.506V9.51273C129.742 9.63981 128.978 9.63981 128.214 9.51273V2.20042H125.679C125.561 1.5636 125.561 0.941861 125.679 0.319399H133.043ZM142.583 7.63171C142.698 8.25345 142.698 8.87591 142.583 9.51273H136.054V0.318681H142.583C142.698 0.954784 142.698 1.57725 142.583 2.19971H138.36V3.92494H142.093C142.208 4.56176 142.208 5.1835 142.093 5.80596H138.36V7.62955H142.583V7.63171ZM152.527 0.319399C152.642 0.955502 152.642 1.57796 152.527 2.20042H149.99V9.51273C149.226 9.63981 148.463 9.63981 147.699 9.51273V2.20042H145.163C145.046 1.5636 145.046 0.941861 145.163 0.319399H152.527ZM45.0483 24.6212C46.3799 24.6212 47.8037 24.156 49.3167 23.2471C49.4294 23.4237 49.4747 23.9342 49.4528 24.7979C49.4294 25.6616 49.3847 26.2172 49.294 26.4599C48.0744 27.1908 46.584 27.5677 44.8222 27.5677C42.3156 27.5677 40.3058 26.8354 38.7921 25.3959C37.2798 23.955 36.5342 22.1594 36.5342 20.0328C36.5342 17.9063 37.3025 16.11 38.8148 14.6698C40.3292 13.2288 42.3398 12.4972 44.8464 12.4972C46.6082 12.4972 48.0985 12.8742 49.3182 13.6058C49.4081 13.8499 49.4542 14.4041 49.4762 15.2685C49.4981 16.1329 49.4542 16.6427 49.3401 16.8193C47.8278 15.9104 46.4048 15.4459 45.0717 15.4459C43.6941 15.4459 42.5425 15.8673 41.6169 16.7094C40.6907 17.5509 40.2393 18.6587 40.2393 20.0551C40.2393 21.4515 40.6907 22.5607 41.6169 23.4022C42.5425 24.2443 43.6948 24.6658 45.0717 24.6658L45.0498 24.6227L45.0483 24.6212ZM65.8034 27.2798C64.6057 27.4787 63.4088 27.4787 62.2111 27.2798V18.8367L55.3681 27.2798C54.4426 27.4356 53.4951 27.4356 52.5454 27.2798V12.8749C53.7416 12.6753 54.9379 12.6753 56.1356 12.8749V21.318L62.9793 12.8749C63.9056 12.7198 64.8538 12.7198 65.8034 12.8749V27.2798ZM78.5852 12.8749C79.7821 12.6753 80.9776 12.6753 82.1753 12.8749V27.2798C80.9784 27.4787 79.7829 27.4787 78.5844 27.2798V21.4738H72.5082V27.2798C71.3119 27.4787 70.1157 27.4787 68.918 27.2798V12.8749C70.115 12.6753 71.3119 12.6753 72.5082 12.8749V18.5266H78.5837V12.8749H78.5852ZM95.5899 24.3312C95.7706 25.3076 95.7706 26.284 95.5899 27.2791H85.3601V12.8749H95.5899C95.7706 13.8728 95.7706 14.8471 95.5899 15.8213H88.973V18.5259H94.8224C95.0031 19.5238 95.0031 20.4981 94.8224 21.4738H88.973V24.3312H95.5899ZM103.833 12.8742C105.482 12.8742 106.814 13.3179 107.83 14.2045C108.847 15.0912 109.367 16.265 109.367 17.706C109.367 19.1462 108.847 20.3207 107.83 21.2074C106.813 22.0941 105.482 22.5356 103.833 22.5356H101.687V27.2784C100.49 27.4794 99.2935 27.4794 98.095 27.2784V12.8742H103.833ZM103.811 19.5453C104.33 19.5453 104.781 19.3903 105.142 19.0808C105.504 18.77 105.685 18.3054 105.685 17.6844C105.685 17.0634 105.504 16.5989 105.144 16.2887C104.781 15.9779 104.352 15.8221 103.833 15.8221H101.687V19.5913L103.811 19.5453ZM121.629 12.8749C121.81 13.8728 121.81 14.8478 121.629 15.8213H115.577V27.2798C114.379 27.4787 113.182 27.4787 111.984 27.2798V12.8749H121.629ZM137.302 27.2798C136.105 27.4787 134.91 27.4787 133.711 27.2798V18.8367L126.868 27.2798C125.943 27.4356 124.994 27.4356 124.046 27.2798V12.8749C125.242 12.6753 126.438 12.6753 127.636 12.8749V21.318L134.479 12.8749C135.405 12.7198 136.354 12.7198 137.302 12.8749V27.2798ZM151.688 27.2576C150.491 27.4571 149.294 27.4571 148.096 27.2576V22.3827H146.696L143.467 27.2576C142.947 27.3466 142.293 27.3911 141.502 27.3911C140.712 27.3911 140.057 27.3466 139.537 27.2576L143.105 21.8514C142.224 21.4738 141.546 20.9195 141.05 20.1886C140.553 19.4563 140.304 18.6163 140.304 17.6614C140.304 16.2428 140.802 15.0912 141.795 14.2045C142.789 13.3179 144.122 12.8749 145.77 12.8749H151.709L151.687 27.2576H151.688ZM145.793 15.7991C145.274 15.7991 144.845 15.9556 144.484 16.2643C144.122 16.5752 143.942 17.0182 143.942 17.6169C143.942 18.2157 144.122 18.658 144.484 18.9688C144.845 19.2811 145.296 19.4355 145.815 19.4355H148.074V15.8005H145.793V15.7991Z" fill="black"/>
<path d="M0 27.374H27.634V0.25708H0V27.374ZM24.1806 23.9831H3.4548V3.6458H24.1806V23.9831ZM17.1628 22.8201L7.98657 13.8155L17.1628 4.80888V9.60262L12.8703 13.8148L17.1635 18.027V22.8201H17.1628Z" fill="#ED1C24"/>
</svg>
