<svg width="90" height="90" viewBox="0 0 90 90" fill="none" xmlns="http://www.w3.org/2000/svg">
<g clip-path="url(#clip0)">
<path d="M62.705 82.4387H84.8362V27.8484H62.705V82.4387ZM70.0821 45.5534C70.0821 43.9231 71.4033 42.6025 73.0329 42.6025H75.9837C77.6133 42.6025 78.9345 43.9231 78.9345 45.5534V54.4059C78.9345 56.0354 77.6133 57.3567 75.9837 57.3567H73.0329C71.4033 57.3567 70.0821 56.0354 70.0821 54.4059V45.5534ZM70.0821 66.2092C70.0821 64.5789 71.4033 63.2583 73.0329 63.2583H75.9837C77.6133 63.2583 78.9345 64.5789 78.9345 66.2092V75.0617C78.9345 76.6912 77.6133 78.0125 75.9837 78.0125H73.0329C71.4033 78.0125 70.0821 76.6912 70.0821 75.0617V66.2092Z" fill="white"/>
<path d="M62.705 88.3406H87.787V82.439H62.705V88.3406Z" fill="black"/>
<path d="M62.705 18.996V27.8485H87.787L84.8362 10.1436H53.8525L62.705 18.996Z" fill="#FB3006"/>
<path d="M27.295 18.996L36.1475 10.1436H5.16378L2.21295 27.8485H27.295V18.996Z" fill="#FB3006"/>
<path d="M42.0492 4.24194H18.4425L15.4917 10.1436H36.1475L42.0492 4.24194Z" fill="black"/>
<path d="M74.5083 10.1436L71.5574 4.24194H47.9508L53.8525 10.1436H74.5083Z" fill="black"/>
<path d="M27.295 27.8484H5.16376V82.4387H27.295V27.8484ZM19.9179 75.0617C19.9179 76.6912 18.5967 78.0125 16.9671 78.0125H14.0162C12.3867 78.0125 11.0654 76.6912 11.0654 75.0617V66.2092C11.0654 64.5789 12.3867 63.2583 14.0162 63.2583H16.9671C18.5967 63.2583 19.9179 64.5789 19.9179 66.2092V75.0617ZM19.9179 54.4059C19.9179 56.0354 18.5967 57.3567 16.9671 57.3567H14.0162C12.3867 57.3567 11.0654 56.0354 11.0654 54.4059V45.5534C11.0654 43.9231 12.3867 42.6025 14.0162 42.6025H16.9671C18.5967 42.6025 19.9179 43.9231 19.9179 45.5534V54.4059Z" fill="white"/>
<path d="M27.295 82.439H2.21295V88.3406H27.295V82.439Z" fill="black"/>
<path d="M27.295 18.996V88.3405H62.705V18.996L45 1.29102L27.295 18.996ZM42.0491 75.0618C42.0491 76.6913 40.7279 78.0126 39.0983 78.0126H36.1475C34.5179 78.0126 33.1966 76.6913 33.1966 75.0618V66.2093C33.1966 64.579 34.5179 63.2584 36.1475 63.2584H39.0983C40.7279 63.2584 42.0491 64.579 42.0491 66.2093V75.0618ZM42.0491 54.406C42.0491 56.0355 40.7279 57.3568 39.0983 57.3568H36.1475C34.5179 57.3568 33.1966 56.0355 33.1966 54.406V45.5535C33.1966 43.9232 34.5179 42.6026 36.1475 42.6026H39.0983C40.7279 42.6026 42.0491 43.9232 42.0491 45.5535V54.406ZM56.8033 75.0618C56.8033 76.6913 55.482 78.0126 53.8525 78.0126H50.9016C49.272 78.0126 47.9508 76.6913 47.9508 75.0618V66.2093C47.9508 64.579 49.272 63.2584 50.9016 63.2584H53.8525C55.482 63.2584 56.8033 64.579 56.8033 66.2093V75.0618ZM56.8033 54.406C56.8033 56.0355 55.482 57.3568 53.8525 57.3568H50.9016C49.272 57.3568 47.9508 56.0355 47.9508 54.406V45.5535C47.9508 43.9232 49.272 42.6026 50.9016 42.6026H53.8525C55.482 42.6026 56.8033 43.9232 56.8033 45.5535V54.406ZM45 14.5697C51.5183 14.5697 56.8033 19.854 56.8033 26.3731C56.8033 32.8914 51.5183 38.1764 45 38.1764C38.4809 38.1764 33.1966 32.8914 33.1966 26.3731C33.2038 19.8569 38.4838 14.577 45 14.5697Z" fill="#FB3006"/>
<path d="M45 38.1765C51.5183 38.1765 56.8033 32.8915 56.8033 26.3731C56.8033 19.8541 51.5183 14.5698 45 14.5698C38.4809 14.5698 33.1967 19.8541 33.1967 26.3731C33.2039 32.8886 38.4838 38.1685 45 38.1765ZM45 18.9961V26.3731L49.4262 23.4223L45 26.3731V18.9961Z" fill="white"/>
<path d="M50.9016 42.6028H53.8525C55.482 42.6028 56.8033 43.9233 56.8033 45.5536V54.4061C56.8033 56.0357 55.482 57.3569 53.8525 57.3569H50.9016C49.272 57.3569 47.9508 56.0357 47.9508 54.4061V45.5536C47.9508 43.9233 49.272 42.6028 50.9016 42.6028Z" fill="white"/>
<path d="M36.1475 42.6028H39.0983C40.7279 42.6028 42.0491 43.9233 42.0491 45.5536V54.4061C42.0491 56.0357 40.7279 57.3569 39.0983 57.3569H36.1475C34.5179 57.3569 33.1967 56.0357 33.1967 54.4061V45.5536C33.1967 43.9233 34.5179 42.6028 36.1475 42.6028Z" fill="white"/>
<path d="M50.9016 63.2583H53.8525C55.482 63.2583 56.8033 64.5788 56.8033 66.2091V75.0616C56.8033 76.6912 55.482 78.0125 53.8525 78.0125H50.9016C49.272 78.0125 47.9508 76.6912 47.9508 75.0616V66.2091C47.9508 64.5788 49.272 63.2583 50.9016 63.2583Z" fill="white"/>
<path d="M73.0329 42.6028H75.9837C77.6133 42.6028 78.9345 43.9233 78.9345 45.5536V54.4061C78.9345 56.0357 77.6133 57.3569 75.9837 57.3569H73.0329C71.4033 57.3569 70.082 56.0357 70.082 54.4061V45.5536C70.082 43.9233 71.4033 42.6028 73.0329 42.6028Z" fill="white"/>
<path d="M73.0329 63.2585H75.9837C77.6133 63.2585 78.9345 64.5791 78.9345 66.2094V75.0619C78.9345 76.6915 77.6133 78.0127 75.9837 78.0127H73.0329C71.4033 78.0127 70.082 76.6915 70.082 75.0619V66.2094C70.082 64.5791 71.4033 63.2585 73.0329 63.2585Z" fill="white"/>
<path d="M14.0163 42.6028H16.9671C18.5967 42.6028 19.9179 43.9233 19.9179 45.5536V54.4061C19.9179 56.0357 18.5967 57.3569 16.9671 57.3569H14.0163C12.3867 57.3569 11.0654 56.0357 11.0654 54.4061V45.5536C11.0654 43.9233 12.3867 42.6028 14.0163 42.6028Z" fill="white"/>
<path d="M14.0163 63.2585H16.9671C18.5967 63.2585 19.9179 64.5791 19.9179 66.2094V75.0619C19.9179 76.6915 18.5967 78.0127 16.9671 78.0127H14.0163C12.3867 78.0127 11.0654 76.6915 11.0654 75.0619V66.2094C11.0654 64.5791 12.3867 63.2585 14.0163 63.2585Z" fill="white"/>
<path d="M36.1475 63.2583H39.0983C40.7279 63.2583 42.0491 64.5788 42.0491 66.2091V75.0616C42.0491 76.6912 40.7279 78.0125 39.0983 78.0125H36.1475C34.5179 78.0125 33.1967 76.6912 33.1967 75.0616V66.2091C33.1967 64.5788 34.5179 63.2583 36.1475 63.2583Z" fill="white"/>
<path d="M45 13.0942C37.6661 13.0942 31.7213 19.0391 31.7213 26.373C31.7213 33.7061 37.6661 39.6517 45 39.6517C52.3331 39.6517 58.2787 33.7061 58.2787 26.373C58.2694 19.0427 52.3295 13.1029 45 13.0942ZM45 36.7009C39.2957 36.7009 34.6721 32.0765 34.6721 26.373C34.6721 20.6687 39.2957 16.0451 45 16.0451C50.7035 16.0451 55.3279 20.6687 55.3279 26.373C55.3214 32.0736 50.7014 36.6944 45 36.7009Z" fill="black"/>
<path d="M48.6071 22.1946L46.4754 23.6152V18.9959C46.4754 18.1804 45.8148 17.5205 45 17.5205C44.1852 17.5205 43.5246 18.1804 43.5246 18.9959V26.373C43.5246 26.9169 43.8236 27.4169 44.3041 27.6741C44.7839 27.9305 45.366 27.9025 45.8184 27.5999L50.2447 24.649C50.9226 24.1973 51.1056 23.281 50.6538 22.6031C50.2014 21.9251 49.2851 21.7422 48.6071 22.1946Z" fill="black"/>
<path d="M53.8525 41.1272H50.9017C48.4573 41.1272 46.4754 43.1083 46.4754 45.5534V54.4059C46.4754 56.8503 48.4573 58.8322 50.9017 58.8322H53.8525C56.2969 58.8322 58.2787 56.8503 58.2787 54.4059V45.5534C58.2787 43.1083 56.2969 41.1272 53.8525 41.1272ZM55.3279 54.4059C55.3279 55.2207 54.6673 55.8813 53.8525 55.8813H50.9017C50.0869 55.8813 49.4262 55.2207 49.4262 54.4059V45.5534C49.4262 44.7379 50.0869 44.078 50.9017 44.078H53.8525C54.6673 44.078 55.3279 44.7379 55.3279 45.5534V54.4059Z" fill="black"/>
<path d="M39.0983 41.1272H36.1475C33.7031 41.1272 31.7213 43.1083 31.7213 45.5534V54.4059C31.7213 56.8503 33.7031 58.8322 36.1475 58.8322H39.0983C41.5427 58.8322 43.5246 56.8503 43.5246 54.4059V45.5534C43.5246 43.1083 41.5427 41.1272 39.0983 41.1272ZM40.5737 54.4059C40.5737 55.2207 39.9131 55.8813 39.0983 55.8813H36.1475C35.3327 55.8813 34.6721 55.2207 34.6721 54.4059V45.5534C34.6721 44.7379 35.3327 44.078 36.1475 44.078H39.0983C39.9131 44.078 40.5737 44.7379 40.5737 45.5534V54.4059Z" fill="black"/>
<path d="M53.8525 61.783H50.9017C48.4573 61.783 46.4754 63.7641 46.4754 66.2092V75.0617C46.4754 77.5061 48.4573 79.4879 50.9017 79.4879H53.8525C56.2969 79.4879 58.2787 77.5061 58.2787 75.0617V66.2092C58.2787 63.7641 56.2969 61.783 53.8525 61.783ZM55.3279 75.0617C55.3279 75.8765 54.6673 76.5371 53.8525 76.5371H50.9017C50.0869 76.5371 49.4262 75.8765 49.4262 75.0617V66.2092C49.4262 65.3937 50.0869 64.7338 50.9017 64.7338H53.8525C54.6673 64.7338 55.3279 65.3937 55.3279 66.2092V75.0617Z" fill="black"/>
<path d="M73.0329 58.8322H75.9837C78.4281 58.8322 80.4099 56.8503 80.4099 54.4059V45.5534C80.4099 43.1083 78.4281 41.1272 75.9837 41.1272H73.0329C70.5885 41.1272 68.6066 43.1083 68.6066 45.5534V54.4059C68.6066 56.8503 70.5885 58.8322 73.0329 58.8322ZM71.5575 45.5534C71.5575 44.7379 72.2181 44.078 73.0329 44.078H75.9837C76.7985 44.078 77.4591 44.7379 77.4591 45.5534V54.4059C77.4591 55.2207 76.7985 55.8813 75.9837 55.8813H73.0329C72.2181 55.8813 71.5575 55.2207 71.5575 54.4059V45.5534Z" fill="black"/>
<path d="M73.0329 79.4879H75.9837C78.4281 79.4879 80.4099 77.5061 80.4099 75.0617V66.2092C80.4099 63.7641 78.4281 61.783 75.9837 61.783H73.0329C70.5885 61.783 68.6066 63.7641 68.6066 66.2092V75.0617C68.6066 77.5061 70.5885 79.4879 73.0329 79.4879ZM71.5575 66.2092C71.5575 65.3937 72.2181 64.7338 73.0329 64.7338H75.9837C76.7985 64.7338 77.4591 65.3937 77.4591 66.2092V75.0617C77.4591 75.8765 76.7985 76.5371 75.9837 76.5371H73.0329C72.2181 76.5371 71.5575 75.8765 71.5575 75.0617V66.2092Z" fill="black"/>
<path d="M16.9671 41.1272H14.0163C11.5719 41.1272 9.59003 43.1083 9.59003 45.5534V54.4059C9.59003 56.8503 11.5719 58.8322 14.0163 58.8322H16.9671C19.4115 58.8322 21.3933 56.8503 21.3933 54.4059V45.5534C21.3933 43.1083 19.4115 41.1272 16.9671 41.1272ZM18.4425 54.4059C18.4425 55.2207 17.7819 55.8813 16.9671 55.8813H14.0163C13.2015 55.8813 12.5409 55.2207 12.5409 54.4059V45.5534C12.5409 44.7379 13.2015 44.078 14.0163 44.078H16.9671C17.7819 44.078 18.4425 44.7379 18.4425 45.5534V54.4059Z" fill="black"/>
<path d="M16.9671 61.783H14.0163C11.5719 61.783 9.59003 63.7641 9.59003 66.2092V75.0617C9.59003 77.5061 11.5719 79.4879 14.0163 79.4879H16.9671C19.4115 79.4879 21.3933 77.5061 21.3933 75.0617V66.2092C21.3933 63.7641 19.4115 61.783 16.9671 61.783ZM18.4425 75.0617C18.4425 75.8765 17.7819 76.5371 16.9671 76.5371H14.0163C13.2015 76.5371 12.5409 75.8765 12.5409 75.0617V66.2092C12.5409 65.3937 13.2015 64.7338 14.0163 64.7338H16.9671C17.7819 64.7338 18.4425 65.3937 18.4425 66.2092V75.0617Z" fill="black"/>
<path d="M39.0983 61.783H36.1475C33.7031 61.783 31.7213 63.7641 31.7213 66.2092V75.0617C31.7213 77.5061 33.7031 79.4879 36.1475 79.4879H39.0983C41.5427 79.4879 43.5246 77.5061 43.5246 75.0617V66.2092C43.5246 63.7641 41.5427 61.783 39.0983 61.783ZM40.5737 75.0617C40.5737 75.8765 39.9131 76.5371 39.0983 76.5371H36.1475C35.3327 76.5371 34.6721 75.8765 34.6721 75.0617V66.2092C34.6721 65.3937 35.3327 64.7338 36.1475 64.7338H39.0983C39.9131 64.7338 40.5737 65.3937 40.5737 66.2092V75.0617Z" fill="black"/>
<path d="M87.787 80.9635H86.3116V29.324H87.787C88.2207 29.3233 88.6321 29.1323 88.9123 28.8017C89.1926 28.4703 89.3129 28.033 89.2416 27.6051L86.2907 9.90008C86.1719 9.18903 85.5566 8.66816 84.8362 8.66816H75.4196L72.8852 3.58202C72.6338 3.07916 72.1194 2.7629 71.5575 2.7665H48.5617L46.0432 0.247924C45.4668 -0.32841 44.5332 -0.32841 43.9568 0.247924L41.4383 2.7665H18.4425C17.8835 2.76578 17.372 3.08205 17.122 3.58202L14.5796 8.66816H5.16379C4.44266 8.66816 3.82814 9.18903 3.70855 9.90008L0.757721 27.6051C0.686399 28.033 0.806709 28.4703 1.08695 28.8017C1.36719 29.1323 1.77927 29.3233 2.21296 29.324H3.68838V80.9635H2.21296C1.39817 80.9635 0.737549 81.6234 0.737549 82.4389V88.3406C0.737549 89.1554 1.39817 89.816 2.21296 89.816H87.787C88.6018 89.816 89.2625 89.1554 89.2625 88.3406V82.4389C89.2625 81.6234 88.6018 80.9635 87.787 80.9635ZM83.3608 80.9635H64.1804V29.324H83.3608V80.9635ZM86.0443 26.3731H64.1804V18.9961C64.1804 18.6042 64.0248 18.2295 63.7481 17.9529L57.4142 11.619H83.5863L86.0443 26.3731ZM70.6454 5.71733L72.1208 8.66816H54.4634L51.5126 5.71733H70.6454ZM19.3539 5.71733H38.4874L35.5366 8.66816H17.8784L19.3539 5.71733ZM6.413 11.619H32.5858L26.2519 17.9529C25.9752 18.2295 25.8196 18.6042 25.8196 18.9961V26.3731H3.95493L6.413 11.619ZM6.63921 29.324H25.8196V80.9635H6.63921V29.324ZM3.68838 83.9143H25.8196V86.8652H3.68838V83.9143ZM28.7704 86.8652V19.6063L45 3.3767L61.2296 19.6063V86.8652H28.7704ZM86.3116 86.8652H64.1804V83.9143H86.3116V86.8652Z" fill="black"/>
</g>
<defs>
<clipPath id="clip0">
<rect width="90" height="90" fill="white"/>
</clipPath>
</defs>
</svg>
